<?xml version="1.0" standalone="no"?>
<!DOCTYPE svg PUBLIC "-//W3C//DTD SVG 1.1//EN" "http://www.w3.org/Graphics/SVG/1.1/DTD/svg11.dtd" >
<svg xmlns="http://www.w3.org/2000/svg" xmlns:xlink="http://www.w3.org/1999/xlink" version="1.1">
<metadata></metadata>
<defs>
<font id="tremblebolditalic" horiz-adv-x="1024" >
<font-face units-per-em="2048" ascent="1638" descent="-410" />
<missing-glyph horiz-adv-x="512" />
<glyph horiz-adv-x="0" />
<glyph horiz-adv-x="682" />
<glyph unicode=" "  horiz-adv-x="512" />
<glyph unicode="&#x09;" horiz-adv-x="512" />
<glyph unicode="&#xa0;" horiz-adv-x="512" />
<glyph unicode="!" horiz-adv-x="339" d="M41 0l37 213h260l-39 -213h-258zM86 258l180 1016h258l-178 -1016h-260z" />
<glyph unicode="&#x22;" horiz-adv-x="561" d="M238 1114l41 232h217l-80 -449zM500 1114l41 232h217l-80 -449z" />
<glyph unicode="#" horiz-adv-x="1216" d="M111 399l47 260h194l19 52h-203l45 260h252l108 305l263 -2l-109 -303h168l104 303l265 2l-107 -305h191l-48 -260h-233l-18 -52h243l-45 -260h-291l-139 -399h-262l139 399h-170l-141 -399h-262l139 399h-149zM616 659h168l19 52h-168z" />
<glyph unicode="$" horiz-adv-x="1026" d="M41 0l59 340h260l-14 -84h90l47 266h-350l133 754h348l13 70h260l-13 -70h334l-59 -342h-260l14 84h-74l-43 -236h336l-137 -782h-336l-12 -74h-260l12 74h-348zM438 782h90l41 236h-90zM694 256h78l47 266h-78z" />
<glyph unicode="%" horiz-adv-x="1499" d="M172 743l94 531h531l-95 -531h-530zM365 907h202l37 203h-203zM383 0l682 1274h274l-680 -1274h-276zM928 0l94 530h530l-94 -530h-530zM1120 164h203l37 203h-203z" />
<glyph unicode="&#x26;" horiz-adv-x="1140" d="M86 254l57 326l80 67l-53 62l61 348l256 219h441l166 -203l-52 -297h179l-45 -258h-179l-47 -260h195l-45 -258h-807zM362 360l82 -102h246l47 260h-301l-53 -45zM449 817l32 -41h301l33 189l-41 53h-225l-76 -68z" />
<glyph unicode="'" horiz-adv-x="299" d="M238 1114l41 232h217l-80 -449z" />
<glyph unicode="(" horiz-adv-x="501" d="M80 219l147 834l262 223h197l-47 -258h-88l-84 -72l-109 -618l58 -70h86l-47 -258h-193z" />
<glyph unicode=")" horiz-adv-x="501" d="M45 0l47 258h86l82 70l109 618l-60 72h-88l45 258h197l184 -223l-147 -834l-262 -219h-193z" />
<glyph unicode="*" horiz-adv-x="679" d="M207 889l67 59h-65l33 191h67l-41 47l160 135l39 -49l12 74h191l-13 -74l54 45l110 -135l-53 -43h72l-33 -191h-72l47 -59l-157 -133l-47 57l-13 -70h-190l12 70l-70 -57z" />
<glyph unicode="+" horiz-adv-x="694" d="M106 373l46 258h178l32 188h259l-33 -188h178l-47 -258h-176l-31 -170h-258l29 170h-177z" />
<glyph unicode="," horiz-adv-x="299" d="M49 49l41 232h217l-80 -449z" />
<glyph unicode="-" horiz-adv-x="477" d="M106 373l46 258h395l-45 -258h-396z" />
<glyph unicode="." horiz-adv-x="294" d="M41 2l45 258h213l-45 -258h-213z" />
<glyph unicode="/" horiz-adv-x="575" d="M41 -2l461 1280h258l-463 -1280h-256z" />
<glyph unicode="0" horiz-adv-x="1067" d="M76 203l153 870l238 203h582l165 -203l-153 -870l-238 -203h-579zM354 309l41 -49h367l59 49l117 658l-41 49h-367l-59 -49z" />
<glyph unicode="1" horiz-adv-x="436" d="M135 0l180 1016h-96l47 258h355l-226 -1274h-260z" />
<glyph unicode="2" d="M41 0l94 539l748 360l14 80l-31 39h-344l-51 -43l-12 -80h-260l32 184l232 197h553l158 -195l-60 -340l-747 -362l-21 -119h684l-47 -260h-942z" />
<glyph unicode="3" horiz-adv-x="1054" d="M70 0l47 260h639l53 43l33 184l-33 39h-543l45 258h545l41 35l27 148l-41 49h-359l-141 -119l-152 182l232 197h573l166 -203l-63 -360l-70 -58l49 -59l-69 -401l-230 -195h-749z" />
<glyph unicode="4" horiz-adv-x="1075" d="M121 451l51 294l709 529h305l-137 -774h73l-47 -260h-74l-40 -238h-261l43 238h-448zM399 559l50 -59h339l84 471l-460 -342z" />
<glyph unicode="5" horiz-adv-x="1042" d="M41 0l45 258l639 2l53 45l25 144l-39 49h-453l-149 182l104 596h805l129 -156l-217 -182l-65 78h-439l-41 -228l27 -30h453l163 -203l-63 -358l-232 -197h-745z" />
<glyph unicode="6" horiz-adv-x="1058" d="M78 213l155 883l213 180h641l127 -154l-217 -182l-63 76h-426l-35 -29l-12 -74h471l176 -213l-86 -485l-250 -215h-516zM356 322l50 -62h303l71 62l49 272l-51 61l-305 -2l-67 -59z" />
<glyph unicode="7" horiz-adv-x="1021" d="M78 0l80 451l729 479l14 86h-682l47 258h940l-84 -473l-729 -477l-57 -324h-258z" />
<glyph unicode="8" horiz-adv-x="1079" d="M76 193l71 413l54 47l-27 35l68 389l233 199h576l161 -193l-69 -395l-41 -35l43 -51l-72 -409l-225 -193h-615zM352 299l35 -39h399l48 39l34 207l-14 16h-440l-25 -22zM453 795l8 -13l426 2l16 15l33 176l-37 41h-360l-56 -45z" />
<glyph unicode="9" d="M102 170l215 184l78 -94h275l118 100l11 58h-467l-178 215l73 422l256 221h508l178 -221l-141 -803l-297 -252h-487zM430 739l51 -63h363l49 276l-55 66h-291l-78 -66z" />
<glyph unicode=":" horiz-adv-x="299" d="M41 0l45 260h217l-45 -260h-217zM106 371l46 260h217l-45 -260h-218z" />
<glyph unicode=";" horiz-adv-x="299" d="M49 49l41 232h217l-80 -449zM109 371l45 258h217l-47 -258h-215z" />
<glyph unicode="&#x3c;" horiz-adv-x="669" d="M133 522l473 402l150 -183l-258 -219l184 -225l-217 -182z" />
<glyph unicode="=" horiz-adv-x="696" d="M90 279l45 260h615q-44 -256 -45 -260h-615zM147 602l46 258h614q-9 -53 -22.5 -131t-22.5 -127h-615z" />
<glyph unicode="&#x3e;" horiz-adv-x="669" d="M94 297l260 225l-180 219l215 183l332 -402l-475 -407z" />
<glyph unicode="?" horiz-adv-x="972" d="M41 0l45 256h262l-47 -256h-260zM98 319l45 254l244 207h373l59 51l33 181l-633 2l47 260l891 2l-96 -551l-240 -205h-370l-66 -55l-27 -146h-260z" />
<glyph unicode="@" horiz-adv-x="1189" d="M29 -74l168 961l460 389h510l170 -205l-155 -883l-219 -188h-400l-149 184l98 566l229 194h314l12 74h-360l-269 -230l-151 -862h-258zM690 291l27 -31h182l43 37l68 387h-207l-49 -41z" />
<glyph unicode="A" horiz-adv-x="1021" d="M41 0l225 1276h940l-223 -1274h-260l76 428h-424l-76 -430h-258zM422 688h422l59 330h-424z" />
<glyph unicode="B" d="M41 0l225 1276h738l167 -205l-49 -289l-161 -137l112 -139l-51 -291l-254 -215h-727zM346 260h361l75 64l23 135l-49 57h-365zM436 774h359l77 66l23 125l-45 51h-371z" />
<glyph unicode="C" horiz-adv-x="1021" d="M80 215l145 825l275 236h706l-45 -260h-600l-96 -82l-109 -610l54 -64h618l-47 -260h-725z" />
<glyph unicode="D" horiz-adv-x="1021" d="M41 0l225 1276h676l219 -262l-133 -746l-311 -268h-676zM346 260h307l135 115l95 530l-92 111h-312z" />
<glyph unicode="E" d="M41 0l225 1276h942l-47 -260h-682l-43 -238h598l-45 -260h-598l-45 -258h682l-45 -260h-942z" />
<glyph unicode="F" d="M41 0l225 1276h942l-47 -258h-682l-43 -242h641l-45 -260h-641l-92 -516h-258z" />
<glyph unicode="G" horiz-adv-x="1026" d="M41 0l225 1276h942l-45 -260h-684l-133 -756h424l43 244l-18 22h-244l45 260h350l146 -176l-107 -610h-944z" />
<glyph unicode="H" d="M41 0l225 1276h258l-88 -502h424l90 502h258l-225 -1276h-258l90 514h-424l-92 -514h-258z" />
<glyph unicode="I" horiz-adv-x="339" d="M41 0l225 1276h258l-225 -1276h-258z" />
<glyph unicode="J" horiz-adv-x="1044" d="M43 0l45 260h246l74 62l122 696l-309 -2l45 260h774l154 -189l-215 -182l-92 113h-99l-141 -803l-252 -215h-352z" />
<glyph unicode="K" d="M41 0l225 1276h258l-90 -510h146l333 311l35 199h260l-53 -299l-367 -340l248 -336l-53 -301h-258l35 201l-225 307h-146l-90 -508h-258z" />
<glyph unicode="L" horiz-adv-x="980" d="M74 190l192 1086h258l-172 -977l33 -41h600l-45 -258h-707z" />
<glyph unicode="M" horiz-adv-x="1331" d="M41 0l188 1073l244 203h336l68 -78l94 80l338 -2l170 -203l-189 -1073h-258l170 965l-45 53h-125l-67 -55l-170 -963h-258l170 963l-48 55h-124l-64 -53l-172 -965h-258z" />
<glyph unicode="N" d="M41 0l225 1276h309l234 -795l141 795h258l-225 -1276h-311l-232 791l-141 -791h-258z" />
<glyph unicode="O" d="M41 0l225 1276h942l-225 -1276h-942zM346 260h424l133 756h-424z" />
<glyph unicode="P" d="M41 0l178 1008l316 268h673l-151 -858h-684l-74 -418h-258zM420 676h424l59 342h-307l-137 -117z" />
<glyph unicode="Q" horiz-adv-x="1021" d="M41 0l225 1276h940l-225 -1276h-342l-6 -37l31 -41h124l-45 -260h-231l-158 195l25 143h-338zM346 258h422l135 760h-424z" />
<glyph unicode="R" d="M41 -2l192 1092l220 186h755l-110 -625l-107 -92l74 -90l-82 -471h-258l63 360l-57 72h-354l-78 -432h-258zM422 690l354 -2l82 68l45 262h-389l-41 -35z" />
<glyph unicode="S" d="M41 0l61 342h258l-14 -82h424l47 266h-682l133 750h940l-59 -342h-260l14 82h-422l-41 -232h682l-139 -784h-942z" />
<glyph unicode="T" horiz-adv-x="905" d="M221 1018l45 258h824l-46 -258h-286l-180 -1018h-259l181 1018h-279z" />
<glyph unicode="U" d="M86 260l180 1016h258l-159 -907l90 -111h204l129 111l160 907h258l-178 -1016l-307 -260h-420z" />
<glyph unicode="V" d="M137 545l129 731h258l-114 -655l159 -328l265 330l116 653h258l-129 -733l-446 -543h-223z" />
<glyph unicode="W" horiz-adv-x="1560" d="M139 559l127 717h258l-114 -653l112 -314l238 316l114 651l261 2l-115 -655l113 -314l237 316l115 651h260l-129 -719l-418 -557h-248l-116 326l-246 -326h-246z" />
<glyph unicode="X" d="M41 0l86 489l276 173l-215 178l78 436h258l-53 -301l188 -158l236 158l53 301h258l-76 -436l-284 -178l223 -170l-86 -492h-258l61 352l-182 150l-242 -150l-63 -352h-258z" />
<glyph unicode="Y" horiz-adv-x="1019" d="M174 754l92 522h258l-71 -416l69 -86h250l100 86l74 416h258l-92 -522l-276 -238h-115l-90 -518h-260l92 516h-96z" />
<glyph unicode="Z" horiz-adv-x="1026" d="M43 0l76 432l774 584h-414l-14 -82h-260l61 342h942l-65 -371l-787 -592l-10 -53h426l14 82h261l-62 -342h-942z" />
<glyph unicode="[" horiz-adv-x="534" d="M41 0l225 1276h449l-45 -260h-191l-133 -756h193l-45 -260h-453z" />
<glyph unicode="\" horiz-adv-x="581" d="M266 1276h262l13 -1278l-265 2z" />
<glyph unicode="]" horiz-adv-x="534" d="M41 0l45 260h195l133 756h-191l45 260h451l-225 -1276h-453z" />
<glyph unicode="^" horiz-adv-x="694" d="M227 1059l363 309l250 -307l-217 -182l-99 122l-145 -124z" />
<glyph unicode="_" horiz-adv-x="696" d="M-4 -258l45 258h614l-45 -258h-614z" />
<glyph unicode="`" horiz-adv-x="569" d="M244 1151l215 184l252 -305l-215 -184z" />
<glyph unicode="a" horiz-adv-x="1013" d="M41 0l117 657h673l23 136h-424l-14 -74h-248l59 332h932l-186 -1051h-932zM338 258h422l24 141h-422z" />
<glyph unicode="b" d="M41 0l225 1274h258l-39 -223h682l-143 -809l-285 -242h-698zM346 256h330l108 92l78 443h-422z" />
<glyph unicode="c" horiz-adv-x="1021" d="M41 0l143 811l281 240h702l-61 -344h-260l14 84h-332l-104 -91l-78 -440h682l-47 -260h-940z" />
<glyph unicode="d" horiz-adv-x="1021" d="M41 0l184 1051h682l41 225h258l-182 -1036l-283 -240h-700zM346 258h332l106 90l78 443h-424z" />
<glyph unicode="e" d="M41 0l186 1051h942l-90 -506l-229 -195h-488l-16 -90h612l-45 -260h-872zM406 598h380l52 43l26 152h-424z" />
<glyph unicode="f" horiz-adv-x="933" d="M-14 -319l202 1157l250 213h641l-47 -258h-528l-76 -64l-22 -125h442l-47 -260h-441l-116 -663h-258z" />
<glyph unicode="g" d="M82 233l143 818h942l-206 -1170l-261 -223h-538l45 258h461l47 43l8 41h-447zM360 344l68 -82h342l94 529l-424 2z" />
<glyph unicode="h" d="M41 0l225 1276h258l-39 -225h473l175 -211l-150 -840h-258l129 733l-49 60h-365l-141 -793h-258z" />
<glyph unicode="i" horiz-adv-x="342" d="M41 0l172 979h260l-174 -979h-258zM221 1018l45 258h260l-45 -258h-260z" />
<glyph unicode="j" horiz-adv-x="534" d="M-14 -311l45 258h176l22 20l179 1012h260l-199 -1120l-201 -170h-282zM412 1018l47 258h260l-45 -258h-262z" />
<glyph unicode="k" horiz-adv-x="950" d="M41 0l225 1276h258l-92 -520h74l373 295h178l-33 -187l-289 -231l246 -227l-72 -406h-260l51 281l-233 215h-80l-88 -496h-258z" />
<glyph unicode="l" horiz-adv-x="339" d="M41 0l225 1276h258l-225 -1276h-258z" />
<glyph unicode="m" horiz-adv-x="1331" d="M41 0l149 848l244 203h336l68 -78l94 78h336l172 -203l-150 -848h-258l129 739l-45 54h-125l-65 -56l-129 -737h-260l129 737l-48 56h-124l-64 -54l-131 -739h-258z" />
<glyph unicode="n" horiz-adv-x="1021" d="M41 0l186 1051h688l207 -250l-141 -801h-258l123 692l-82 101h-324l-141 -793h-258z" />
<glyph unicode="o" d="M41 0l186 1051h942l-186 -1051h-942zM346 260h424l94 533h-424z" />
<glyph unicode="p" d="M-14 -317l241 1368h717l184 -228l-145 -823h-682l-57 -317h-258zM346 260h424l80 457l-59 74l-353 -3z" />
<glyph unicode="q" d="M41 0l145 823l267 228h716l-241 -1368h-260l57 317h-684zM344 260h426l94 528l-350 3l-88 -74z" />
<glyph unicode="r" horiz-adv-x="860" d="M41 0l152 856l229 195h584l-62 -342h-258l14 84h-217l-51 -45l-133 -748h-258z" />
<glyph unicode="s" d="M41 0l59 334h258l-14 -86h424l25 141h-682l116 662h940l-57 -332h-260l16 84h-424l-28 -154h684l-115 -649h-942z" />
<glyph unicode="t" horiz-adv-x="765" d="M84 246l182 1030h258l-39 -225h340l-47 -258h-338l-78 -439l76 -94h332l-45 -260h-440z" />
<glyph unicode="u" d="M86 262l139 789h260l-120 -682l90 -109h207l129 109l118 682h260l-139 -789l-307 -262h-422z" />
<glyph unicode="v" d="M152 625l73 426h260l-63 -359l151 -383l275 385l61 357h260l-75 -428l-455 -623h-244z" />
<glyph unicode="w" horiz-adv-x="1560" d="M139 559l86 492h260l-75 -426l114 -314l236 316l76 424h258l-74 -426l113 -314l237 316l76 424h258l-88 -494l-418 -557h-246l-118 326l-244 -326h-248z" />
<glyph unicode="x" d="M41 0l72 406l290 167l-229 179l53 299h258l-28 -162l186 -158l238 156l28 164h260l-53 -297l-272 -181l211 -170l-72 -403h-258l45 266l-182 150l-242 -152l-47 -264h-258z" />
<glyph unicode="y" d="M66 141l159 910h260l-114 -648h424l114 648h260l-200 -1129l-283 -241h-553l45 258h447l104 90l21 112h-684z" />
<glyph unicode="z" d="M43 0l76 432l704 361h-383l-14 -84h-260l61 342h940l-67 -383l-748 -383l-6 -27h422l16 88h260l-61 -346h-940z" />
<glyph unicode="{" horiz-adv-x="565" d="M131 508l45 260h64l51 285l262 223h197l-48 -258h-88l-84 -72l-108 -618l57 -70h86l-47 -258h-192l-183 219l52 289h-64z" />
<glyph unicode="|" horiz-adv-x="339" d="M41 0l225 1276h258l-225 -1276h-258z" />
<glyph unicode="}" horiz-adv-x="565" d="M45 0l47 258h86l82 70l109 618l-60 72h-88l45 258h197l184 -223l-51 -285h63l-45 -260h-63l-51 -289l-262 -219h-193z" />
<glyph unicode="~" horiz-adv-x="835" d="M150 621l348 292l114 -139l160 135l150 -182l-375 -319l-115 139l-131 -111z" />
<glyph unicode="&#xa1;" horiz-adv-x="339" d="M41 -2l178 1018h260l-180 -1018h-258zM227 1061l39 213h258l-37 -213h-260z" />
<glyph unicode="&#xa2;" horiz-adv-x="1064" d="M41 0l143 809l283 242h160l12 73h260l-14 -73h323l-61 -346l-256 2l14 84h-65l-95 -533h326l-47 -258h-324l-12 -74h-260l14 74h-401zM346 258h141l95 533h-54l-104 -91z" />
<glyph unicode="&#xa3;" horiz-adv-x="1163" d="M66 143l36 207h260l-16 -92h152l47 262h-154l45 258h154l51 289l246 209h459l-46 -260h-352l-67 -55l-33 -183h293l-47 -258h-291l-45 -262h409l-45 -258h-940z" />
<glyph unicode="&#xa4;" horiz-adv-x="1253" d="M135 416l27 157h190l19 97h-191l27 157h190l39 213l275 236h706l-45 -260h-600l-96 -82l-19 -107h560l-27 -157h-561l-17 -97h559l-26 -157h-561l-17 -92l54 -64h618l-47 -260h-725l-176 215l35 201h-191z" />
<glyph unicode="&#xa5;" horiz-adv-x="950" d="M174 754l92 522h258l-71 -416l69 -86h180l101 86l74 414h258l-93 -520l-278 -238h-68l-14 -74h145l-26 -155h-146l-10 -54h146l-27 -155h-146l-14 -78h-258l14 78h-147l27 155h147l10 54h-147l26 155h148l12 74h-67z" />
<glyph unicode="&#xa7;" horiz-adv-x="886" d="M51 -57l49 278h209l-10 -67h342l33 188h-553l115 635l69 397h762l-49 -278h-209l12 69h-344l-33 -188h553l-114 -635l-70 -399h-762zM369 551h344l37 215h-342z" />
<glyph unicode="&#xa8;" horiz-adv-x="569" d="M221 1018l45 258h215l-47 -258h-213zM494 1018l45 258h215l-45 -258h-215z" />
<glyph unicode="&#xa9;" horiz-adv-x="950" d="M100 336l166 940h869l-166 -940h-869zM244 459h622l123 694h-622zM276 492l113 632h572l-23 -123h-449l-67 -387h448l-22 -122h-572z" />
<glyph unicode="&#xaa;" horiz-adv-x="878" d="M135 422l94 532h547l19 111h-344l-11 -59h-200l47 268h755l-151 -852h-756zM377 631h342l20 114h-344z" />
<glyph unicode="&#xab;" horiz-adv-x="1161" d="M129 500l496 422l151 -183l-280 -239l192 -232l-217 -182zM604 500l496 422l151 -183l-280 -239l192 -232l-217 -182z" />
<glyph unicode="&#xad;" horiz-adv-x="477" d="M106 373l46 258h395l-45 -258h-396z" />
<glyph unicode="&#xae;" horiz-adv-x="950" d="M100 338l166 938h869l-166 -938h-869zM246 461h622l121 692h-622zM283 489l96 547l108 92h461l-57 -325l-51 -45l39 -47l-39 -222h-123l28 170l-28 37h-275l-36 -207h-123zM465 819h272l39 33l29 154h-289l-22 -21z" />
<glyph unicode="&#xaf;" horiz-adv-x="493" d="M233 1087l46 259h411l-47 -259h-410z" />
<glyph unicode="&#xb0;" horiz-adv-x="612" d="M184 815l95 531h530l-94 -531h-531zM377 979h203l36 203h-202z" />
<glyph unicode="&#xb4;" horiz-adv-x="567" d="M223 1036l355 301l151 -184l-354 -301z" />
<glyph unicode="&#xb6;" horiz-adv-x="1191" d="M106 371l115 649l301 256h600l209 -254l-237 -1341h-258l120 690h-147l-123 -690h-258l121 690h-443zM412 629h182l70 387h-76l-127 -105zM854 629h147l52 293l-78 96h-53z" />
<glyph unicode="&#xb8;" horiz-adv-x="536" d="M-23 -356l236 356h283l-303 -469z" />
<glyph unicode="&#xba;" horiz-adv-x="886" d="M135 422l152 852h764l-152 -852h-764zM383 633h344l76 432h-344z" />
<glyph unicode="&#xbb;" horiz-adv-x="1161" d="M94 268l275 232l-197 239l215 183l348 -422l-489 -414zM569 268l275 232l-197 239l215 183l348 -422l-489 -414z" />
<glyph unicode="&#xbf;" horiz-adv-x="972" d="M41 0l96 551l240 205h371l67 55l25 145h260l-45 -254l-244 -206h-371l-61 -52l-33 -180l633 -2l-47 -260zM852 1020l45 256h260l-45 -256h-260z" />
<glyph unicode="&#xc0;" horiz-adv-x="1021" d="M41 0l225 1276h940l-223 -1274h-260l76 428h-424l-76 -430h-258zM422 688h422l59 330h-424zM524 1645l215 182l252 -305l-215 -183z" />
<glyph unicode="&#xc1;" horiz-adv-x="1021" d="M41 0l225 1276h940l-223 -1274h-260l76 428h-424l-76 -430h-258zM422 688h422l59 330h-424zM524 1511l355 304l149 -185l-354 -301z" />
<glyph unicode="&#xc2;" horiz-adv-x="1021" d="M41 0l225 1276h940l-223 -1274h-260l76 428h-424l-76 -430h-258zM422 688h422l59 330h-424zM485 1528l361 305l248 -301l-217 -182l-97 116l-143 -120z" />
<glyph unicode="&#xc3;" horiz-adv-x="1021" d="M41 0l225 1276h940l-223 -1274h-260l76 428h-424l-76 -430h-258zM422 688h422l59 330h-424zM432 1546l348 293l115 -139l158 135l151 -182l-375 -320l-114 140l-133 -111z" />
<glyph unicode="&#xc4;" horiz-adv-x="1021" d="M41 0l225 1276h940l-223 -1274h-260l76 428h-424l-76 -430h-258zM422 688h422l59 330h-424zM506 1348l47 258h213l-45 -258h-215zM778 1348l47 258h215l-47 -258h-215z" />
<glyph unicode="&#xc5;" horiz-adv-x="1021" d="M41 0l225 1276h940l-223 -1274h-260l76 428h-424l-76 -430h-258zM422 688h422l59 330h-424zM498 1346l100 569h508l-100 -569h-508zM705 1522h155l39 217h-156z" />
<glyph unicode="&#xc6;" horiz-adv-x="1599" d="M41 0l184 1044l275 232h1282l-45 -258h-588l-43 -246h502l-45 -260h-500l-45 -252h586l-45 -260h-848l90 512h-410l-92 -512h-258zM436 772h412l29 166l-68 78h-248l-96 -78z" />
<glyph unicode="&#xc7;" horiz-adv-x="1021" d="M80 215l145 825l275 236h706l-45 -260h-600l-96 -82l-109 -610l54 -64h618l-47 -260h-293l-278 -428l-213 113l209 315h-150z" />
<glyph unicode="&#xc8;" d="M41 0l225 1276h942l-47 -260h-682l-43 -238h598l-45 -260h-598l-45 -258h682l-45 -260h-942zM524 1642l215 183l252 -305l-215 -183z" />
<glyph unicode="&#xc9;" d="M41 0l225 1276h942l-47 -260h-682l-43 -238h598l-45 -260h-598l-45 -258h682l-45 -260h-942zM561 1524l354 303l152 -185l-354 -301z" />
<glyph unicode="&#xca;" d="M41 0l225 1276h942l-47 -260h-682l-43 -238h598l-45 -260h-598l-45 -258h682l-45 -260h-942zM489 1524l361 305l246 -301l-215 -182l-97 116l-143 -121z" />
<glyph unicode="&#xcb;" d="M41 0l225 1276h942l-47 -260h-682l-43 -238h598l-45 -260h-598l-45 -258h682l-45 -260h-942zM504 1348l47 258h215l-47 -258h-215zM776 1348l47 258h215l-47 -258h-215z" />
<glyph unicode="&#xcc;" horiz-adv-x="569" d="M137 0l225 1276h261l-226 -1276h-260zM332 1645l215 182l250 -305l-215 -183z" />
<glyph unicode="&#xcd;" horiz-adv-x="567" d="M190 0l226 1276h258l-225 -1276h-259zM307 1513l357 304l149 -185l-354 -301z" />
<glyph unicode="&#xce;" horiz-adv-x="688" d="M217 0l225 1276h260l-225 -1276h-260zM309 1520l359 305l247 -301l-215 -183l-96 117l-143 -121z" />
<glyph unicode="&#xcf;" horiz-adv-x="569" d="M156 0l225 1276h260l-225 -1276h-260zM279 1348l45 258h215l-45 -258h-215zM551 1348l45 258h215l-45 -258h-215z" />
<glyph unicode="&#xd1;" d="M41 0l225 1276h309l234 -795l141 795h258l-225 -1276h-311l-232 791l-141 -791h-258zM434 1550l346 293l115 -139l160 135l149 -182l-375 -320l-114 140l-131 -111z" />
<glyph unicode="&#xd2;" d="M41 0l225 1276h942l-225 -1276h-942zM346 260h424l133 756h-424zM524 1645l215 182l252 -305l-215 -183z" />
<glyph unicode="&#xd3;" d="M41 0l225 1276h942l-225 -1276h-942zM346 260h424l133 756h-424zM526 1524l355 303l151 -185l-356 -301z" />
<glyph unicode="&#xd4;" d="M41 0l225 1276h942l-225 -1276h-942zM346 260h424l133 756h-424zM457 1526l358 305l248 -301l-215 -182l-98 116l-144 -121z" />
<glyph unicode="&#xd5;" d="M41 0l225 1276h942l-225 -1276h-942zM346 260h424l133 756h-424zM434 1552l346 293l115 -139l160 135l151 -182l-375 -320l-116 140l-131 -111z" />
<glyph unicode="&#xd6;" d="M41 0l225 1276h942l-225 -1276h-942zM346 260h424l133 756h-424zM516 1348l47 258h213l-45 -258h-215zM788 1348l48 258h215l-47 -258h-216z" />
<glyph unicode="&#xd7;" horiz-adv-x="704" d="M119 403l139 119l-102 125l215 184l102 -124l156 131l151 -183l-155 -133l102 -125l-215 -182l-102 125l-142 -119z" />
<glyph unicode="&#xd8;" d="M41 0l225 1276h942l-225 -1276h-942zM346 260h16l275 756h-158zM621 260h149l133 756h-6z" />
<glyph unicode="&#xd9;" d="M86 260l180 1016h258l-159 -907l90 -111h204l129 111l160 907h258l-178 -1016l-307 -260h-420zM524 1642l215 183l252 -305l-217 -183z" />
<glyph unicode="&#xda;" d="M86 260l180 1016h258l-159 -907l90 -111h204l129 111l160 907h258l-178 -1016l-307 -260h-420zM526 1524l355 303l151 -185l-356 -301z" />
<glyph unicode="&#xdb;" d="M86 260l180 1016h258l-159 -907l90 -111h204l129 111l160 907h258l-178 -1016l-307 -260h-420zM461 1518l358 305l248 -301l-215 -183l-98 117l-144 -121z" />
<glyph unicode="&#xdc;" d="M86 260l180 1016h258l-159 -907l90 -111h204l129 111l160 907h258l-178 -1016l-307 -260h-420zM506 1348l47 258h213l-45 -258h-215zM778 1348l47 258h215l-47 -258h-215z" />
<glyph unicode="&#xdd;" horiz-adv-x="1019" d="M174 754l92 522h258l-71 -416l69 -86h250l100 86l74 416h258l-92 -522l-276 -238h-115l-90 -518h-260l92 516h-96zM565 1520l355 303l151 -185l-356 -301z" />
<glyph unicode="&#xdf;" horiz-adv-x="946" d="M10 -170l256 1446h674l156 -191l-58 -327l-71 -62l45 -55l-74 -418l-262 -223h-307l45 258h200l84 74l35 203l-26 32h-238l45 258h238l47 39l18 113l-31 39h-307l-209 -1186h-260z" />
<glyph unicode="&#xe0;" horiz-adv-x="1013" d="M41 0l117 657h673l23 136h-424l-14 -74h-248l59 332h932l-186 -1051h-932zM338 258h422l24 141h-422zM504 1427l217 183l250 -305l-215 -183z" />
<glyph unicode="&#xe1;" horiz-adv-x="1013" d="M41 0l117 657h673l23 136h-424l-14 -74h-248l59 332h932l-186 -1051h-932zM338 258h422l24 141h-422zM485 1298l357 304l149 -185l-354 -301z" />
<glyph unicode="&#xe2;" horiz-adv-x="1013" d="M41 0l117 657h673l23 136h-424l-14 -74h-248l59 332h932l-186 -1051h-932zM338 258h422l24 141h-422zM436 1292l359 305l247 -301l-215 -182l-96 117l-143 -121z" />
<glyph unicode="&#xe3;" horiz-adv-x="1013" d="M41 0l117 657h673l23 136h-424l-14 -74h-248l59 332h932l-186 -1051h-932zM338 258h422l24 141h-422zM395 1335l348 293l113 -139l160 135l151 -182l-374 -320l-115 140l-133 -111z" />
<glyph unicode="&#xe4;" horiz-adv-x="1013" d="M41 0l117 657h673l23 136h-424l-14 -74h-248l59 332h932l-186 -1051h-932zM338 258h422l24 141h-422zM455 1124l45 258h215l-45 -258h-215zM727 1124l47 258h213l-45 -258h-215z" />
<glyph unicode="&#xe5;" horiz-adv-x="1013" d="M41 0l117 657h673l23 136h-424l-14 -74h-248l59 332h932l-186 -1051h-932zM338 258h422l24 141h-422zM438 1124l101 570h505l-100 -570h-506zM645 1300h156l37 218h-154z" />
<glyph unicode="&#xe6;" horiz-adv-x="1585" d="M41 0l121 684h596l18 109h-336l-12 -64h-258l57 322h1502l-99 -559l-227 -195h-455l-6 -39h557l-47 -258h-1411zM348 260l336 2l29 162l-336 2zM995 557h344l52 41l32 195h-387z" />
<glyph unicode="&#xe7;" horiz-adv-x="1021" d="M41 0l143 811l281 240h702l-61 -344h-260l14 84h-332l-104 -91l-78 -440h682l-47 -260h-303l-277 -428l-215 113l209 315h-354z" />
<glyph unicode="&#xe8;" d="M41 0l186 1051h942l-90 -506l-229 -195h-488l-16 -90h612l-45 -260h-872zM406 598h380l52 43l26 152h-424zM506 1421l215 183l252 -306l-217 -182z" />
<glyph unicode="&#xe9;" d="M41 0l186 1051h942l-90 -506l-229 -195h-488l-16 -90h612l-45 -260h-872zM406 598h380l52 43l26 152h-424zM485 1298l357 304l149 -185l-354 -301z" />
<glyph unicode="&#xea;" d="M41 0l186 1051h942l-90 -506l-229 -195h-488l-16 -90h612l-45 -260h-872zM406 598h380l52 43l26 152h-424zM436 1296l361 306l245 -302l-215 -182l-96 117l-143 -121z" />
<glyph unicode="&#xeb;" d="M41 0l186 1051h942l-90 -506l-229 -195h-488l-16 -90h612l-45 -260h-872zM406 598h380l52 43l26 152h-424zM467 1124l45 258h215l-45 -258h-215zM739 1124l47 258h213l-45 -258h-215z" />
<glyph unicode="&#xec;" horiz-adv-x="569" d="M147 0l187 1051h258l-184 -1051h-261zM291 1417l215 182l252 -305l-215 -182z" />
<glyph unicode="&#xed;" horiz-adv-x="567" d="M170 0l184 1051h258l-184 -1051h-258zM270 1296l355 303l151 -184l-356 -301z" />
<glyph unicode="&#xee;" horiz-adv-x="688" d="M217 0l184 1051h261l-187 -1051h-258zM270 1303l361 305l246 -299l-215 -185l-97 119l-143 -123z" />
<glyph unicode="&#xef;" horiz-adv-x="569" d="M160 0l186 1051h258l-184 -1051h-260zM240 1124l45 258h215l-45 -258h-215zM512 1124l45 258h215l-45 -258h-215z" />
<glyph unicode="&#xf1;" horiz-adv-x="1021" d="M41 0l186 1051h688l207 -250l-141 -801h-258l123 692l-82 101h-324l-141 -793h-258zM356 1329l346 293l115 -139l160 135l151 -182l-374 -320l-117 139l-131 -110z" />
<glyph unicode="&#xf2;" d="M41 0l186 1051h942l-186 -1051h-942zM346 260h424l94 533h-424zM571 1427l217 183l250 -305l-215 -183z" />
<glyph unicode="&#xf3;" d="M41 0l186 1051h942l-186 -1051h-942zM346 260h424l94 533h-424zM532 1298l355 304l151 -185l-356 -301z" />
<glyph unicode="&#xf4;" d="M41 0l186 1051h942l-186 -1051h-942zM346 260h424l94 533h-424zM438 1300l359 306l247 -301l-215 -183l-98 117l-143 -121z" />
<glyph unicode="&#xf5;" d="M41 0l186 1051h942l-186 -1051h-942zM346 260h424l94 533h-424zM395 1331l346 293l115 -139l160 135l151 -182l-374 -320l-117 139l-131 -110z" />
<glyph unicode="&#xf6;" d="M41 0l186 1051h942l-186 -1051h-942zM346 260h424l94 533h-424zM475 1124l45 258h215l-45 -258h-215zM748 1124l47 258h213l-45 -258h-215z" />
<glyph unicode="&#xf7;" horiz-adv-x="694" d="M106 373l46 258h614l-47 -258h-613zM266 96l39 215h193l-39 -215h-193zM373 696l37 215h192l-37 -215h-192z" />
<glyph unicode="&#xf8;" d="M41 0l186 1051h942l-186 -1051h-942zM352 293l273 500h-185zM580 260h190l84 469z" />
<glyph unicode="&#xf9;" d="M86 262l139 789h260l-120 -682l90 -109h207l129 109l118 682h260l-139 -789l-307 -262h-422zM506 1417l217 182l250 -305l-215 -182z" />
<glyph unicode="&#xfa;" d="M86 262l139 789h260l-120 -682l90 -109h207l129 109l118 682h260l-139 -789l-307 -262h-422zM518 1284l354 303l150 -184l-354 -301z" />
<glyph unicode="&#xfb;" d="M86 262l139 789h260l-120 -682l90 -109h207l129 109l118 682h260l-139 -789l-307 -262h-422zM436 1296l361 306l247 -302l-217 -182l-96 117l-143 -121z" />
<glyph unicode="&#xfc;" d="M86 262l139 789h260l-120 -682l90 -109h207l129 109l118 682h260l-139 -789l-307 -262h-422zM459 1124l45 258h215l-45 -258h-215zM731 1124l47 258h213l-45 -258h-215z" />
<glyph unicode="&#xfd;" d="M66 141l159 910h260l-114 -648h424l114 648h260l-200 -1129l-283 -241h-553l45 258h447l104 90l21 112h-684zM516 1294l354 303l152 -184l-356 -301z" />
<glyph unicode="&#xff;" d="M66 141l159 910h260l-114 -648h424l114 648h260l-200 -1129l-283 -241h-553l45 258h447l104 90l21 112h-684zM467 1124l45 258h215l-45 -258h-215zM739 1124l47 258h213l-45 -258h-215z" />
<glyph unicode="&#x152;" horiz-adv-x="1531" d="M41 0l225 1276h1448l-45 -260h-586l-41 -234h500l-45 -258h-500l-47 -266h588l-47 -258h-1450zM346 260h344l133 756h-344z" />
<glyph unicode="&#x153;" horiz-adv-x="1550" d="M41 0l186 1051h1469l-90 -508l-228 -193h-442l-14 -90h544l-47 -260h-1378zM346 260h316l94 533h-316zM983 608h334l49 43l25 142h-377z" />
<glyph unicode="&#x178;" horiz-adv-x="1019" d="M174 754l92 522h258l-71 -416l69 -86h250l100 86l74 416h258l-92 -522l-276 -238h-115l-90 -518h-260l92 516h-96zM506 1348l47 258h213l-45 -258h-215zM778 1348l47 258h215l-47 -258h-215z" />
<glyph unicode="&#x2c6;" horiz-adv-x="688" d="M227 1053l359 305l248 -301l-216 -183l-98 117l-143 -123z" />
<glyph unicode="&#x2dc;" horiz-adv-x="876" d="M248 1063l348 293l115 -139l159 135l150 -183l-375 -319l-115 139l-131 -110z" />
<glyph unicode="&#x2000;" horiz-adv-x="957" />
<glyph unicode="&#x2001;" horiz-adv-x="1915" />
<glyph unicode="&#x2002;" horiz-adv-x="957" />
<glyph unicode="&#x2003;" horiz-adv-x="1915" />
<glyph unicode="&#x2004;" horiz-adv-x="638" />
<glyph unicode="&#x2005;" horiz-adv-x="478" />
<glyph unicode="&#x2006;" horiz-adv-x="319" />
<glyph unicode="&#x2007;" horiz-adv-x="319" />
<glyph unicode="&#x2008;" horiz-adv-x="239" />
<glyph unicode="&#x2009;" horiz-adv-x="383" />
<glyph unicode="&#x200a;" horiz-adv-x="106" />
<glyph unicode="&#x2010;" horiz-adv-x="477" d="M106 373l46 258h395l-45 -258h-396z" />
<glyph unicode="&#x2011;" horiz-adv-x="477" d="M106 373l46 258h395l-45 -258h-396z" />
<glyph unicode="&#x2012;" horiz-adv-x="477" d="M106 373l46 258h395l-45 -258h-396z" />
<glyph unicode="&#x2013;" horiz-adv-x="509" d="M106 371l46 258h428l-45 -258h-429z" />
<glyph unicode="&#x2014;" horiz-adv-x="1134" d="M106 375l48 258h1050l-45 -258h-1053z" />
<glyph unicode="&#x2018;" horiz-adv-x="299" d="M199 895l80 448l178 -217l-41 -231h-217z" />
<glyph unicode="&#x2019;" horiz-adv-x="299" d="M238 1114l41 232h217l-80 -449z" />
<glyph unicode="&#x201a;" horiz-adv-x="339" d="M63 6l39 232h217l-79 -449z" />
<glyph unicode="&#x201c;" horiz-adv-x="561" d="M199 889l77 448l179 -217l-41 -231h-215zM461 889l78 448l178 -217l-41 -231h-215z" />
<glyph unicode="&#x201d;" horiz-adv-x="561" d="M238 1114l41 232h217l-80 -449zM500 1114l41 232h217l-80 -449z" />
<glyph unicode="&#x201e;" horiz-adv-x="602" d="M61 0l41 231h217l-79 -448zM324 0l41 231h217l-80 -448z" />
<glyph unicode="&#x2022;" horiz-adv-x="540" d="M96 311l80 461h461l-82 -461h-459z" />
<glyph unicode="&#x2026;" horiz-adv-x="890" d="M41 0l45 258h219l-47 -258h-217zM334 0l45 258h219l-45 -258h-219zM631 0l45 258h219l-47 -258h-217z" />
<glyph unicode="&#x202f;" horiz-adv-x="383" />
<glyph unicode="&#x2039;" horiz-adv-x="727" d="M150 500l495 422l152 -183l-281 -239l193 -232l-217 -182z" />
<glyph unicode="&#x203a;" horiz-adv-x="727" d="M115 268l274 232l-196 239l215 183l348 -422l-490 -414z" />
<glyph unicode="&#x205f;" horiz-adv-x="478" />
<glyph unicode="&#x2122;" horiz-adv-x="1150" d="M244 1153l22 123h385l-22 -123h-133l-76 -436h-123l76 436h-129zM629 717l96 559h268l35 -41l49 41h158l84 -100l-82 -459h-123l72 407l-25 29h-55l-37 -31l-72 -405h-123l72 405l-24 31h-95l-75 -436h-123z" />
<glyph unicode="&#x25fc;" horiz-adv-x="1054" d="M0 0v1055h1055v-1055h-1055z" />
<glyph unicode="&#xfb01;" horiz-adv-x="1314" d="M6 -319l203 1157l250 213h641l-47 -258h-529l-75 -64l-23 -125h442l-47 -260h-440l-117 -663h-258zM991 0l174 979h258l-172 -979h-260zM1171 1018l46 258h262l-45 -258h-263z" />
<glyph unicode="&#xfb02;" horiz-adv-x="1308" d="M6 -319l203 1157l250 213h641l-47 -258h-529l-75 -64l-23 -125h442l-47 -260h-440l-117 -663h-258zM987 0l225 1276h261l-226 -1276h-260z" />
</font>
</defs>
</svg>
