<?xml version="1.0" standalone="no"?>
<!DOCTYPE svg PUBLIC "-//W3C//DTD SVG 1.1//EN" "http://www.w3.org/Graphics/SVG/1.1/DTD/svg11.dtd" >
<svg xmlns="http://www.w3.org/2000/svg" xmlns:xlink="http://www.w3.org/1999/xlink" version="1.1">
<metadata></metadata>
<defs>
<font id="trembleregularitalic" horiz-adv-x="993" >
<font-face units-per-em="2048" ascent="1638" descent="-410" />
<missing-glyph horiz-adv-x="512" />
<glyph horiz-adv-x="0" />
<glyph horiz-adv-x="682" />
<glyph unicode=" "  horiz-adv-x="512" />
<glyph unicode="&#x09;" horiz-adv-x="512" />
<glyph unicode="&#xa0;" horiz-adv-x="512" />
<glyph unicode="!" horiz-adv-x="258" d="M41 0l22 131h177l-23 -131h-176zM76 195l190 1081h176l-190 -1081h-176z" />
<glyph unicode="&#x22;" horiz-adv-x="385" d="M236 1098l30 176h129l-53 -307zM408 1098l30 176h129l-53 -307z" />
<glyph unicode="#" horiz-adv-x="1095" d="M117 432l30 176h203l58 160h-230l31 176h260l121 332h178l-119 -332h180l117 332h180l-118 -332h215l-33 -176h-244l-55 -160h272l-30 -176h-304l-153 -432h-178l151 432h-182l-154 -432h-178l154 432h-172zM530 608h181l57 160h-182z" />
<glyph unicode="$" horiz-adv-x="995" d="M41 0l55 311h176l-24 -135h201l67 389h-375l125 709h375l12 69h176l-12 -69h361l-56 -309h-176l23 133h-183l-63 -357h362l-131 -741h-362l-12 -74h-177l13 74h-375zM348 741h199l63 357h-198zM625 176h184l68 389h-185z" />
<glyph unicode="%" horiz-adv-x="1241" d="M178 778l88 496h453l-88 -496h-453zM287 0l680 1276h186l-678 -1276h-188zM385 954h100l27 144h-100zM762 82l88 493h453l-89 -493h-452zM969 258h100l27 141h-101z" />
<glyph unicode="&#x26;" horiz-adv-x="1118" d="M84 244l55 309l111 94l-74 88l60 334l237 207h432l154 -189l-62 -352h193l-31 -176h-192l-70 -383h211l-31 -176h-796zM272 315l113 -139h338l68 383h-396l-94 -78zM365 809l61 -74h395l49 279l-69 86h-285l-119 -103z" />
<glyph unicode="'" horiz-adv-x="212" d="M236 1098l30 176h129l-53 -307z" />
<glyph unicode="(" horiz-adv-x="430" d="M78 207l151 858l246 211h139l-30 -176h-66l-127 -109l-125 -710l86 -105h64l-31 -176h-135z" />
<glyph unicode=")" horiz-adv-x="430" d="M47 0l31 176h61l123 105l127 710l-88 109h-65l30 176h137l175 -211l-152 -858l-246 -207h-133z" />
<glyph unicode="*" horiz-adv-x="622" d="M209 948l16 103h146l-84 102l84 74l86 -105l26 152h103l-27 -150l117 99l59 -74l-117 -98h148l-16 -103h-150l94 -112l-86 -74l-94 115l-25 -148h-102l25 148l-133 -115l-60 74l133 112h-143z" />
<glyph unicode="+" horiz-adv-x="638" d="M115 414l30 176h191l35 201h176l-35 -201h190l-32 -176h-191l-30 -183h-177l31 183h-188z" />
<glyph unicode="," horiz-adv-x="212" d="M41 2l31 176h131l-53 -307z" />
<glyph unicode="-" horiz-adv-x="403" d="M115 414l30 176h322l-31 -176h-321z" />
<glyph unicode="." horiz-adv-x="208" d="M41 0l31 176h127l-31 -176h-127z" />
<glyph unicode="/" horiz-adv-x="489" d="M41 0l459 1276h174l-461 -1276h-172z" />
<glyph unicode="0" horiz-adv-x="1038" d="M74 188l159 899l220 187h583l154 -187l-160 -899l-219 -186h-582zM264 262l68 -84h436l100 84l133 752l-69 84h-436l-101 -84z" />
<glyph unicode="1" horiz-adv-x="317" d="M98 0l195 1100h-57l30 176h234l-224 -1276h-178z" />
<glyph unicode="2" d="M41 2l88 498l805 389l29 172l-29 35l-485 2l-46 -37l-16 -96h-176l31 168l164 141l630 -2l117 -139l-63 -353l-803 -389l-39 -213h735l-31 -176h-911z" />
<glyph unicode="3" horiz-adv-x="1003" d="M51 2l31 176h659l90 76l43 244l-59 69h-553l31 176h555l82 70l35 201l-70 84h-428l-127 -107l-102 125l188 158h573l154 -187l-61 -348l-99 -82l72 -86l-70 -389l-211 -180h-733z" />
<glyph unicode="4" horiz-adv-x="1046" d="M121 459l49 272l725 545h256l-147 -840h79l-30 -176h-80l-45 -260h-176l45 260h-512zM311 532l78 -96h438l117 664h-14l-598 -449z" />
<glyph unicode="5" d="M41 2l31 176h657l92 78l35 199l-68 84h-485l-137 166l100 569h793l96 -115l-147 -125l-54 64h-542l-58 -320l52 -63h487l151 -189l-59 -342l-215 -180z" />
<glyph unicode="6" horiz-adv-x="1005" d="M76 201l162 909l192 166l600 -2l131 -158l-147 -123l-88 105h-455l-72 -62l-30 -174l26 23h514l164 -199l-86 -485l-231 -199h-512zM266 274l76 -96h371l110 96l60 336l-78 97l-371 2l-108 -95z" />
<glyph unicode="7" d="M41 0l80 453l833 553l17 94h-733l30 176h910l-64 -358l-831 -551l-66 -367h-176z" />
<glyph unicode="8" horiz-adv-x="1042" d="M72 176l71 408l82 69l-47 60l68 379l215 184h577l150 -178l-68 -383l-69 -60l53 -67l-72 -412l-209 -178l-606 2zM260 248l62 -72l460 -2l86 74l47 268l-41 49h-503l-64 -55zM369 786l34 -43l500 -2l53 47l41 236l-63 76h-430l-94 -82z" />
<glyph unicode="9" d="M119 133l147 125l66 -80h338l161 137l25 136l-532 -2l-168 202l73 422l242 203h502l168 -205l-146 -827l-284 -244h-482zM344 725l82 -98h461l65 372l-82 101h-358l-119 -105z" />
<glyph unicode=":" horiz-adv-x="212" d="M41 0l31 176h131l-31 -176h-131zM106 377l33 176h129l-30 -176h-132z" />
<glyph unicode=";" horiz-adv-x="212" d="M41 2l31 176h131l-53 -307zM109 377l30 176h131l-30 -176h-131z" />
<glyph unicode="&#x3c;" horiz-adv-x="569" d="M133 522l424 361l102 -125l-278 -236l197 -241l-148 -123z" />
<glyph unicode="=" horiz-adv-x="641" d="M92 287l31 176h557q-8 -51 -31 -176h-557zM135 532l31 177h559q-7 -40 -13 -73t-12 -62t-8 -42h-557z" />
<glyph unicode="&#x3e;" horiz-adv-x="569" d="M90 281l281 241l-193 236l146 125l297 -361l-426 -364z" />
<glyph unicode="?" horiz-adv-x="937" d="M41 -2l33 178h176l-31 -178h-178zM84 229l55 318l228 192h399l100 86l49 273h-682l33 178l856 -2l-92 -522l-223 -189h-399l-105 -90l-43 -244h-176z" />
<glyph unicode="@" horiz-adv-x="1081" d="M29 -74l168 959l460 389h418l158 -191l-162 -911l-201 -172h-387l-135 168l113 639l209 178h368l4 25l-71 88h-285l-324 -275l-157 -897h-176zM537 240l51 -64h237l84 70l99 563h-295l-90 -76z" />
<glyph unicode="A" horiz-adv-x="991" d="M41 -2l225 1278h910l-226 -1276h-176l82 465h-557l-82 -467h-176zM330 641h557l82 459h-557z" />
<glyph unicode="B" d="M41 2l225 1272h719l158 -191l-68 -387l-61 -51l43 -51l-70 -391l-235 -201h-711zM248 178h461l116 98l41 234l-41 47h-510zM346 733h520l45 39l43 240l-71 86h-471z" />
<glyph unicode="C" horiz-adv-x="991" d="M76 203l151 850l258 221h691l-31 -176h-617l-139 -119l-123 -703l80 -98h635l-31 -176h-706z" />
<glyph unicode="D" horiz-adv-x="991" d="M41 2l225 1272h656l208 -252l-135 -762l-301 -258h-653zM248 178h405l181 154l108 616l-125 150h-405z" />
<glyph unicode="E" d="M41 2l225 1272h910l-31 -176h-733l-66 -361h643l-31 -176h-643l-67 -383h735l-31 -176h-911z" />
<glyph unicode="F" d="M41 0l225 1276h912l-31 -176h-735l-66 -365h690l-30 -176h-691l-98 -559h-176z" />
<glyph unicode="G" d="M41 2l225 1272h912l-31 -176h-735l-164 -920h559l59 336l-45 55h-231l31 176h305l131 -157l-105 -586h-911z" />
<glyph unicode="H" d="M41 0l225 1276h176l-96 -543h559l96 543h177l-226 -1276h-176l98 557h-559l-98 -557h-176z" />
<glyph unicode="I" horiz-adv-x="258" d="M41 0l225 1276h176l-225 -1276h-176z" />
<glyph unicode="J" d="M43 2l31 176h233l115 96l145 826l-331 -2l30 176l760 2l123 -152l-145 -125l-82 101h-179l-157 -897l-238 -201h-305z" />
<glyph unicode="K" d="M41 0l225 1274h176l-98 -549h231l392 365l32 186h177l-46 -254l-413 -385l280 -381l-45 -256h-176l33 188l-266 361h-230l-96 -549h-176z" />
<glyph unicode="L" horiz-adv-x="946" d="M72 176l194 1100h176l-180 -1026l60 -74h614l-31 -176h-688z" />
<glyph unicode="M" horiz-adv-x="1323" d="M41 0l192 1085l226 191h319l90 -105l125 105h322l160 -191l-193 -1085h-176l178 1012l-74 88h-176l-106 -90l-178 -1010h-177l179 1010l-76 90h-176l-105 -88l-178 -1012h-176z" />
<glyph unicode="N" d="M41 0l225 1274h248l303 -1034l184 1036h177l-226 -1274h-252l-301 1030l-182 -1032h-176z" />
<glyph unicode="O" d="M41 2l225 1272h912l-226 -1272h-911zM248 178h559l164 920h-559z" />
<glyph unicode="P" d="M41 0l178 1016l307 260h652l-146 -823h-735l-80 -453h-176zM328 629h559l82 471h-402l-184 -156z" />
<glyph unicode="Q" horiz-adv-x="991" d="M41 0l225 1274h910l-226 -1274h-368l-13 -68l66 -75h98l-33 -176h-174l-145 178l25 141h-365zM248 178h557l164 920h-557z" />
<glyph unicode="R" d="M41 0l195 1106l200 170h742l-107 -604l-141 -117l98 -121l-76 -434h-176l64 360l-86 107h-455l-82 -467h-176zM330 643h454l123 102l62 355h-492l-78 -66z" />
<glyph unicode="S" d="M41 2l55 309h176l-24 -133h559l70 391h-734l125 705h910l-56 -309h-176l23 133h-557l-62 -353h733l-131 -743h-911z" />
<glyph unicode="T" horiz-adv-x="866" d="M236 1100l30 176h785l-33 -176h-307l-195 -1100h-176l195 1100h-299z" />
<glyph unicode="U" horiz-adv-x="991" d="M86 252l180 1022h176l-168 -950l121 -148h262l174 148l168 952h177l-181 -1024l-295 -252h-409z" />
<glyph unicode="V" d="M139 553l127 723h176l-118 -672l206 -428h9l344 432l118 668h177l-129 -725l-451 -551h-184z" />
<glyph unicode="W" horiz-adv-x="1568" d="M139 563l127 713h176l-118 -670l155 -428l324 430l117 668h178l-119 -670l156 -428l323 430l117 668h178l-127 -715l-422 -561h-205l-145 406l-305 -406h-205z" />
<glyph unicode="X" d="M41 0l80 453l338 209l-262 219l69 395h176l-53 -301l248 -209l309 209l53 301h177l-70 -395l-350 -219l276 -209l-80 -453h-176l62 356l-238 199l-319 -199l-64 -356h-176z" />
<glyph unicode="Y" horiz-adv-x="989" d="M180 784l86 492h176l-73 -420l98 -123h313l142 123l75 420h177l-89 -492l-262 -227h-151l-99 -557h-176l99 557l-134 -2z" />
<glyph unicode="Z" horiz-adv-x="995" d="M43 2l68 391l847 641l13 64h-559l-25 -133h-176l55 309h912l-58 -322l-848 -643l-22 -131h559l22 133h179l-56 -309h-911z" />
<glyph unicode="[" horiz-adv-x="464" d="M41 2l225 1272h381l-33 -176h-202l-164 -920h209l-31 -176h-385z" />
<glyph unicode="\" horiz-adv-x="495" d="M266 1276h178l11 -1276h-181z" />
<glyph unicode="]" horiz-adv-x="464" d="M41 2l31 176h209l161 920h-204l30 176h381l-223 -1272h-385z" />
<glyph unicode="^" horiz-adv-x="593" d="M227 1055l303 260l209 -258l-145 -123l-107 131l-157 -135z" />
<glyph unicode="_" horiz-adv-x="641" d="M10 -176l31 176h559l-33 -176h-557z" />
<glyph unicode="`" horiz-adv-x="462" d="M246 1155l145 125l211 -254l-147 -125z" />
<glyph unicode="a" d="M43 0l113 639h733l41 235h-559l-23 -135h-176l53 312h912l-185 -1051h-909zM250 176h557l51 287h-557z" />
<glyph unicode="b" d="M41 0l225 1276h176l-41 -225h736l-144 -820l-274 -231h-678zM248 176h430l149 129l103 569h-559z" />
<glyph unicode="c" horiz-adv-x="991" d="M41 0l145 821l269 230h680l-56 -310h-178l25 133h-428l-150 -126l-100 -570h733l-31 -178h-909z" />
<glyph unicode="d" horiz-adv-x="991" d="M41 0l184 1051h733l41 225h177l-185 -1047l-270 -229h-680zM248 176h432l147 127l101 571h-557z" />
<glyph unicode="e" d="M41 0l184 1051h912l-86 -494l-213 -180h-555l-35 -199h659l-30 -178h-836zM315 553h482l90 76l43 245h-559z" />
<glyph unicode="f" horiz-adv-x="897" d="M-14 -317l204 1169l238 199h612l-30 -177h-541l-115 -96l-37 -209h474l-31 -176h-473l-125 -710h-176z" />
<glyph unicode="g" d="M80 221l145 830h912l-203 -1162l-248 -206h-508l33 176h434l117 98l8 43h-506zM268 295l99 -117h440l123 696h-559z" />
<glyph unicode="h" d="M41 0l225 1276h176l-39 -223h539l162 -197l-152 -856h-176l137 782l-75 95h-467l-154 -877h-176z" />
<glyph unicode="i" horiz-adv-x="260" d="M41 0l186 1053h176l-186 -1053h-176zM236 1098l30 176h178l-30 -176h-178z" />
<glyph unicode="j" horiz-adv-x="466" d="M-16 -319l32 176h158l59 51l203 1145h176l-215 -1219l-182 -153h-231zM442 1100l31 176h178l-30 -176h-179z" />
<glyph unicode="k" horiz-adv-x="913" d="M41 0l225 1276h176l-100 -563h152l421 338h121l-22 -127l-367 -293l289 -266l-64 -365h-176l49 279l-280 258h-154l-94 -537h-176z" />
<glyph unicode="l" horiz-adv-x="258" d="M41 0l225 1276h176l-225 -1276h-176z" />
<glyph unicode="m" horiz-adv-x="1323" d="M41 0l152 862l225 189h321l90 -105l125 105h320l160 -191l-152 -860h-176l139 786l-74 88h-176l-106 -90l-139 -784h-177l140 784l-76 90h-176l-105 -86l-139 -788h-176z" />
<glyph unicode="n" horiz-adv-x="991" d="M41 0l184 1051h670l199 -240l-144 -811h-176l131 737l-114 137h-420l-154 -874h-176z" />
<glyph unicode="o" d="M41 0l184 1051h912l-185 -1051h-911zM248 178h559l123 696h-559z" />
<glyph unicode="p" d="M-14 -317l241 1370l699 -2l174 -215l-148 -834h-735l-55 -319h-176zM248 178h559l102 586l-88 110h-450z" />
<glyph unicode="q" d="M41 2l147 834l250 215l699 2l-242 -1370h-176l57 319h-735zM250 178h557l123 696h-449l-129 -110z" />
<glyph unicode="r" horiz-adv-x="817" d="M41 0l154 870l211 181h555l-56 -310h-176l25 133h-305l-91 -77l-141 -797h-176z" />
<glyph unicode="s" d="M41 0l55 311h176l-24 -135h559l45 254h-735l108 621h912l-56 -310h-176l25 133h-559l-47 -268h735l-107 -606h-911z" />
<glyph unicode="t" horiz-adv-x="714" d="M82 236l184 1040h176l-41 -225h365l-31 -177h-364l-99 -565l107 -131h326l-31 -178h-400z" />
<glyph unicode="u" d="M86 252l141 799h176l-129 -727l121 -148h264l175 148l129 729h176l-142 -801l-295 -252h-411z" />
<glyph unicode="v" d="M154 635l73 418h176l-65 -373l199 -504l360 506l64 367h176l-74 -416l-459 -633h-203z" />
<glyph unicode="w" horiz-adv-x="1568" d="M141 563l86 490h176l-79 -445l155 -430l324 430l78 443h176l-76 -443l154 -430l323 430l78 443h176l-86 -490l-422 -561h-205l-145 406l-305 -406h-205z" />
<glyph unicode="x" d="M41 0l65 369l359 209l-283 219l43 254h176l-26 -162l243 -207l314 207l29 162h176l-45 -254l-332 -219l256 -211l-64 -367h-176l47 272l-241 199l-318 -199l-47 -272h-176z" />
<glyph unicode="y" d="M72 176l155 875h176l-122 -697h557l123 697h176l-201 -1139l-270 -229h-523l31 176h451l149 127l33 190h-735z" />
<glyph unicode="z" horiz-adv-x="991" d="M43 0l68 385l809 434l10 55h-559l-23 -133h-176l53 310h912l-60 -332l-809 -434l-18 -109h557l22 135h177l-56 -311h-907z" />
<glyph unicode="{" horiz-adv-x="499" d="M137 551l33 176h68l57 330l248 211h139l-31 -176h-67l-125 -109l-125 -702l88 -105h61l-30 -176h-136l-172 207l62 344h-70z" />
<glyph unicode="|" horiz-adv-x="258" d="M41 0l225 1276h176l-225 -1276h-176z" />
<glyph unicode="}" horiz-adv-x="499" d="M47 0l31 176h61l123 105l125 702l-88 109h-66l31 176h139l172 -211l-57 -330h68l-31 -176h-68l-61 -344l-246 -207h-133z" />
<glyph unicode="~" horiz-adv-x="747" d="M145 592l289 244l123 -150l170 145l102 -124l-317 -271l-123 150l-141 -119z" />
<glyph unicode="&#xa1;" horiz-adv-x="258" d="M41 0l190 1081h177l-191 -1081h-176zM242 1143l24 131h176l-24 -131h-176z" />
<glyph unicode="&#xa2;" d="M41 0l145 821l271 230h178l12 73h176l-12 -73h326l-54 -310h-176l23 133h-150l-123 -698h326l-31 -176h-325l-15 -74h-176l15 74h-410zM248 176h233l123 698h-106l-150 -124z" />
<glyph unicode="&#xa3;" horiz-adv-x="1048" d="M63 125l27 154h176l-14 -82l16 -19h111l51 43l59 340h-163l30 176h164l62 344l229 195h422l-31 -176h-350l-107 -90l-49 -273h314l-31 -176h-313l-68 -383h440l-30 -176l-617 -2l8 43l-53 -43l-184 2z" />
<glyph unicode="&#xa4;" horiz-adv-x="1275" d="M139 440l31 176h244l14 82h-244l31 176h244l33 179l258 221h690l-31 -176h-616l-140 -119l-18 -105h608l-31 -176h-608l-14 -82h608l-31 -176h-608l-29 -164l80 -98h635l-31 -176h-708l-166 201l43 237h-244z" />
<glyph unicode="&#xa5;" horiz-adv-x="913" d="M180 784l86 492h176l-73 -420l98 -123h238l143 123l74 420h176l-86 -492l-264 -227h-105l-22 -129h170l-15 -88h-172l-12 -78h170l-17 -88h-170l-30 -174h-176l30 174h-172l15 88h174l12 78h-172l16 88h172l23 129h-105z" />
<glyph unicode="&#xa7;" horiz-adv-x="862" d="M47 -76l45 250h144l-21 -108h453l49 286h-588l180 1032h735l-43 -251h-143l19 108h-451l-51 -287h592l-183 -1030h-737zM293 496h452l56 317h-453z" />
<glyph unicode="&#xa8;" horiz-adv-x="376" d="M238 1116l30 176h129l-30 -176h-129zM403 1116l31 176h129l-31 -176h-129z" />
<glyph unicode="&#xa9;" horiz-adv-x="909" d="M106 369l158 897h828l-158 -897h-828zM227 471h623l121 692h-623zM268 510l109 612h557l-19 -102h-454l-72 -408h453l-17 -102h-557z" />
<glyph unicode="&#xaa;" horiz-adv-x="860" d="M150 494l92 518h594l32 190h-452l-19 -108h-143l45 252h737l-149 -852h-737zM317 637h453l41 231h-453z" />
<glyph unicode="&#xab;" horiz-adv-x="878" d="M129 500l449 381l102 -123l-301 -258l205 -248l-146 -125zM420 500l448 381l103 -123l-301 -258l204 -248l-145 -125z" />
<glyph unicode="&#xad;" horiz-adv-x="403" d="M115 414l30 176h322l-31 -176h-321z" />
<glyph unicode="&#xae;" horiz-adv-x="909" d="M106 369l158 897h828l-158 -897h-828zM227 471h623l121 692h-623zM274 506l93 532l100 86h448l-55 -311l-57 -49l43 -51l-37 -207h-102l28 164l-35 43h-288l-35 -207h-103zM430 815h289l47 39l29 168h-303l-29 -25z" />
<glyph unicode="&#xaf;" horiz-adv-x="421" d="M238 1114l30 176h340l-30 -176h-340z" />
<glyph unicode="&#xb0;" horiz-adv-x="462" d="M213 977l74 416h381l-74 -416h-381zM381 1085h82l33 189h-82z" />
<glyph unicode="&#xb4;" horiz-adv-x="458" d="M223 1030l295 252l105 -123l-297 -252z" />
<glyph unicode="&#xb6;" horiz-adv-x="1009" d="M117 426l106 604l291 246h438l199 -240l-238 -1355h-176l131 745h-155l-131 -745h-176l131 745h-420zM324 602h243l88 498h-100l-168 -144zM743 602h156l64 361l-115 137h-17z" />
<glyph unicode="&#xb8;" horiz-adv-x="421" d="M-14 -309l204 309h191l-250 -385z" />
<glyph unicode="&#xba;" horiz-adv-x="860" d="M150 494l149 852h737l-149 -852h-737zM317 639h453l98 563h-452z" />
<glyph unicode="&#xbb;" horiz-adv-x="886" d="M92 252l293 248l-211 258l148 123l313 -381l-440 -373zM391 252l293 248l-211 258l148 123l313 -381l-440 -373z" />
<glyph unicode="&#xbf;" horiz-adv-x="937" d="M41 2l92 522l223 189h400l104 90l43 244h176l-55 -318l-227 -192h-400l-100 -86l-49 -273h680l-31 -178zM913 1100l31 178h178l-32 -178h-177z" />
<glyph unicode="&#xc0;" horiz-adv-x="991" d="M41 -2l225 1278h910l-226 -1276h-176l82 465h-557l-82 -467h-176zM330 641h557l82 459h-557zM561 1602l148 124l211 -256l-148 -124z" />
<glyph unicode="&#xc1;" horiz-adv-x="991" d="M41 -2l225 1278h910l-226 -1276h-176l82 465h-557l-82 -467h-176zM330 641h557l82 459h-557zM563 1470l295 252l105 -125l-297 -251z" />
<glyph unicode="&#xc2;" horiz-adv-x="991" d="M41 -2l225 1278h910l-226 -1276h-176l82 465h-557l-82 -467h-176zM330 641h557l82 459h-557zM543 1470l301 256l207 -249l-148 -125l-102 127l-156 -133z" />
<glyph unicode="&#xc3;" horiz-adv-x="991" d="M41 -2l225 1278h910l-226 -1276h-176l82 465h-557l-82 -467h-176zM330 641h557l82 459h-557zM459 1470l289 244l122 -149l170 145l103 -125l-318 -270l-123 149l-141 -118z" />
<glyph unicode="&#xc4;" horiz-adv-x="991" d="M41 -2l225 1278h910l-226 -1276h-176l82 465h-557l-82 -467h-176zM330 641h557l82 459h-557zM582 1346l30 176h129l-30 -176h-129zM748 1346l30 176h129l-30 -176h-129z" />
<glyph unicode="&#xc5;" horiz-adv-x="991" d="M41 -2l225 1278h910l-226 -1276h-176l82 465h-557l-82 -467h-176zM330 641h557l82 459h-557zM467 1346l100 569h508l-100 -569h-508zM674 1522h155l39 217h-155z" />
<glyph unicode="&#xc6;" horiz-adv-x="1611" d="M41 0l186 1057l260 217h455l37 -43l8 45h807l-31 -176h-630l-66 -369h539l-31 -176h-539l-65 -377h631l-31 -176h-809l98 553h-545l-98 -555h-176zM346 731h545l43 250l-96 117h-310l-137 -115z" />
<glyph unicode="&#xc7;" horiz-adv-x="991" d="M76 203l151 850l258 221h691l-31 -176h-617l-139 -119l-123 -703l80 -98h635l-31 -176h-338l-223 -346l-145 76l178 270h-178z" />
<glyph unicode="&#xc8;" d="M41 2l225 1272h910l-31 -176h-733l-64 -361h641l-31 -176h-643l-67 -383h735l-31 -176h-911zM561 1597l148 125l209 -256l-146 -125z" />
<glyph unicode="&#xc9;" d="M41 2l225 1272h910l-31 -176h-733l-64 -361h641l-31 -176h-643l-67 -383h735l-31 -176h-911zM561 1458l295 252l102 -125l-294 -252z" />
<glyph unicode="&#xca;" d="M41 2l225 1272h910l-31 -176h-733l-64 -361h641l-31 -176h-643l-67 -383h735l-31 -176h-911zM502 1470l301 256l207 -249l-148 -125l-102 127l-156 -133z" />
<glyph unicode="&#xcb;" d="M41 2l225 1272h910l-31 -176h-733l-64 -361h641l-31 -176h-643l-67 -383h735l-31 -176h-911zM590 1343l31 177h129l-31 -177h-129zM756 1343l30 177h129l-30 -177h-129z" />
<glyph unicode="&#xcc;" horiz-adv-x="462" d="M109 0l225 1276h176l-225 -1276h-176zM324 1602l145 124l211 -256l-145 -124z" />
<glyph unicode="&#xcd;" horiz-adv-x="458" d="M180 0l226 1276h176l-226 -1276h-176zM301 1470l295 252l102 -125l-295 -251z" />
<glyph unicode="&#xce;" horiz-adv-x="587" d="M207 0l223 1276h176l-223 -1276h-176zM301 1470l301 256l207 -249l-147 -125l-105 127l-154 -133z" />
<glyph unicode="&#xcf;" horiz-adv-x="376" d="M94 0l225 1276h177l-226 -1276h-176zM279 1343l30 177h129l-32 -177h-127zM444 1343l31 177h127l-31 -177h-127z" />
<glyph unicode="&#xd1;" d="M41 0l225 1274h248l303 -1034l184 1036h177l-226 -1274h-252l-301 1030l-182 -1032h-176zM459 1470l289 244l122 -149l170 145l103 -125l-318 -270l-123 149l-141 -118z" />
<glyph unicode="&#xd2;" d="M41 2l225 1272h912l-226 -1272h-911zM248 178h559l164 920h-559zM561 1602l148 124l211 -256l-148 -124z" />
<glyph unicode="&#xd3;" d="M41 2l225 1272h912l-226 -1272h-911zM248 178h559l164 920h-559zM563 1470l295 252l105 -125l-297 -251z" />
<glyph unicode="&#xd4;" d="M41 2l225 1272h912l-226 -1272h-911zM248 178h559l164 920h-559zM487 1470l301 256l207 -249l-147 -125l-103 127l-155 -133z" />
<glyph unicode="&#xd5;" d="M41 2l225 1272h912l-226 -1272h-911zM248 178h559l164 920h-559zM459 1470l289 244l122 -149l170 145l103 -125l-318 -270l-123 149l-141 -118z" />
<glyph unicode="&#xd6;" d="M41 2l225 1272h912l-226 -1272h-911zM248 178h559l164 920h-559zM582 1346l30 176h129l-30 -176h-129zM748 1346l30 176h129l-30 -176h-129z" />
<glyph unicode="&#xd7;" horiz-adv-x="610" d="M106 367l166 141l-108 131l147 125l107 -131l151 129l103 -125l-152 -129l115 -137l-148 -125l-112 137l-166 -141z" />
<glyph unicode="&#xd8;" d="M41 2l225 1272h912l-226 -1272h-911zM248 178h112l334 920h-282zM532 178h275l164 920h-103z" />
<glyph unicode="&#xd9;" horiz-adv-x="991" d="M86 252l180 1022h176l-168 -950l121 -148h262l174 148l168 952h177l-181 -1024l-295 -252h-409zM561 1602l148 124l211 -256l-148 -124z" />
<glyph unicode="&#xda;" horiz-adv-x="991" d="M86 252l180 1022h176l-168 -950l121 -148h262l174 148l168 952h177l-181 -1024l-295 -252h-409zM563 1470l295 252l105 -125l-297 -251z" />
<glyph unicode="&#xdb;" horiz-adv-x="991" d="M86 252l180 1022h176l-168 -950l121 -148h262l174 148l168 952h177l-181 -1024l-295 -252h-409zM494 1470l301 256l206 -249l-147 -125l-102 127l-156 -133z" />
<glyph unicode="&#xdc;" horiz-adv-x="991" d="M86 252l180 1022h176l-168 -950l121 -148h262l174 148l168 952h177l-181 -1024l-295 -252h-409zM573 1346l31 176h129l-31 -176h-129zM739 1346l31 176h129l-31 -176h-129z" />
<glyph unicode="&#xdd;" horiz-adv-x="989" d="M180 784l86 492h176l-73 -420l98 -123h313l142 123l75 420h177l-89 -492l-262 -227h-151l-99 -557h-176l99 557l-134 -2zM604 1466l297 252l103 -125l-295 -252z" />
<glyph unicode="&#xdf;" horiz-adv-x="909" d="M20 -115l246 1389h652l143 -174l-53 -307l-103 -88l66 -80l-74 -414l-246 -211h-350l31 176h276l127 107l47 268l-53 65h-311l31 177h309l86 73l28 160l-59 72h-401l-215 -1213h-177z" />
<glyph unicode="&#xe0;" d="M43 0l113 639h733l41 235h-559l-23 -135h-176l53 312h912l-185 -1051h-909zM250 176h557l51 287h-557zM520 1370l148 125l211 -256l-148 -125z" />
<glyph unicode="&#xe1;" d="M43 0l113 639h733l41 235h-559l-23 -135h-176l53 312h912l-185 -1051h-909zM250 176h557l51 287h-557zM524 1253l297 252l103 -125l-297 -252z" />
<glyph unicode="&#xe2;" d="M43 0l113 639h733l41 235h-559l-23 -135h-176l53 312h912l-185 -1051h-909zM250 176h557l51 287h-557zM467 1227l301 256l207 -250l-146 -125l-104 127l-156 -131z" />
<glyph unicode="&#xe3;" d="M43 0l113 639h733l41 235h-559l-23 -135h-176l53 312h912l-185 -1051h-909zM250 176h557l51 287h-557zM422 1268l289 243l123 -149l172 145l102 -125l-317 -270l-123 150l-144 -119z" />
<glyph unicode="&#xe4;" d="M43 0l113 639h733l41 235h-559l-23 -135h-176l53 312h912l-185 -1051h-909zM250 176h557l51 287h-557zM541 1116l32 176h127l-30 -176h-129zM707 1116l30 176h129l-30 -176h-129z" />
<glyph unicode="&#xe5;" d="M43 0l113 639h733l41 235h-559l-23 -135h-176l53 312h912l-185 -1051h-909zM250 176h557l51 287h-557zM434 1102l101 569h505l-100 -569h-506zM641 1278h156l37 217h-154z" />
<glyph unicode="&#xe6;" horiz-adv-x="1595" d="M41 0l117 657h641l37 217h-465l-23 -133h-176l53 310h1514l-92 -529l-211 -180h-516l-31 -166h600l-33 -176h-1415zM250 178l463 -2l53 305h-463zM950 518h445l88 76l49 280h-520z" />
<glyph unicode="&#xe7;" horiz-adv-x="991" d="M41 0l145 821l269 230h680l-56 -310h-178l25 133h-428l-150 -126l-100 -570h733l-31 -178h-346l-221 -344l-145 76l176 268h-373z" />
<glyph unicode="&#xe8;" d="M41 0l184 1051h912l-86 -494l-213 -180h-555l-35 -199h659l-30 -178h-836zM315 553h482l90 76l43 245h-559zM520 1370l148 125l211 -256l-148 -125z" />
<glyph unicode="&#xe9;" d="M41 0l184 1051h912l-86 -494l-213 -180h-555l-35 -199h659l-30 -178h-836zM315 553h482l90 76l43 245h-559zM524 1253l297 252l103 -125l-297 -252z" />
<glyph unicode="&#xea;" d="M41 0l184 1051h912l-86 -494l-213 -180h-555l-35 -199h659l-30 -178h-836zM315 553h482l90 76l43 245h-559zM467 1227l301 256l207 -250l-146 -125l-104 127l-156 -131z" />
<glyph unicode="&#xeb;" d="M41 0l184 1051h912l-86 -494l-213 -180h-555l-35 -199h659l-30 -178h-836zM315 553h482l90 76l43 245h-559zM532 1116l33 176h127l-30 -176h-130zM698 1116l31 176h129l-31 -176h-129z" />
<glyph unicode="&#xec;" horiz-adv-x="462" d="M135 0l184 1053h177l-185 -1053h-176zM283 1370l145 125l211 -256l-145 -125z" />
<glyph unicode="&#xed;" horiz-adv-x="458" d="M207 0l184 1053h176l-184 -1053h-176zM262 1253l297 252l103 -125l-297 -252z" />
<glyph unicode="&#xee;" horiz-adv-x="587" d="M205 0l184 1053h176l-184 -1053h-176zM258 1227l301 256l207 -250l-148 -125l-104 127l-154 -131z" />
<glyph unicode="&#xef;" horiz-adv-x="376" d="M117 0l184 1053h176l-184 -1053h-176zM238 1116l30 176h129l-30 -176h-129zM403 1116l31 176h129l-31 -176h-129z" />
<glyph unicode="&#xf1;" horiz-adv-x="991" d="M41 0l184 1051h670l199 -240l-144 -811h-176l131 737l-114 137h-420l-154 -874h-176zM381 1262l289 243l123 -149l170 145l102 -125l-317 -270l-123 149l-142 -118z" />
<glyph unicode="&#xf2;" d="M41 0l184 1051h912l-185 -1051h-911zM248 178h559l123 696h-559zM520 1370l148 125l211 -256l-148 -125z" />
<glyph unicode="&#xf3;" d="M41 0l184 1051h912l-185 -1051h-911zM248 178h559l123 696h-559zM524 1253l297 252l103 -125l-297 -252z" />
<glyph unicode="&#xf4;" d="M41 0l184 1051h912l-185 -1051h-911zM248 178h559l123 696h-559zM467 1227l301 256l207 -250l-146 -125l-104 127l-156 -131z" />
<glyph unicode="&#xf5;" d="M41 0l184 1051h912l-185 -1051h-911zM248 178h559l123 696h-559zM420 1247l287 244l124 -150l170 146l103 -125l-318 -270l-122 149l-144 -119z" />
<glyph unicode="&#xf6;" d="M41 0l184 1051h912l-185 -1051h-911zM248 178h559l123 696h-559zM526 1116l33 176h127l-31 -176h-129zM692 1116l31 176h129l-31 -176h-129z" />
<glyph unicode="&#xf7;" horiz-adv-x="638" d="M115 414l30 176h557l-32 -176h-555zM242 113l41 231h190l-41 -231h-190zM338 659l41 232h190l-41 -232h-190z" />
<glyph unicode="&#xf8;" d="M41 0l184 1051h912l-185 -1051h-911zM248 178h55l393 696h-325zM475 178h332l123 696h-60z" />
<glyph unicode="&#xf9;" d="M86 252l141 799h176l-129 -727l121 -148h264l175 148l129 729h176l-142 -801l-295 -252h-411zM520 1370l148 125l211 -256l-148 -125z" />
<glyph unicode="&#xfa;" d="M86 252l141 799h176l-129 -727l121 -148h264l175 148l129 729h176l-142 -801l-295 -252h-411zM524 1253l297 252l103 -125l-297 -252z" />
<glyph unicode="&#xfb;" d="M86 252l141 799h176l-129 -727l121 -148h264l175 148l129 729h176l-142 -801l-295 -252h-411zM467 1227l301 256l207 -250l-146 -125l-104 127l-156 -131z" />
<glyph unicode="&#xfc;" d="M86 252l141 799h176l-129 -727l121 -148h264l175 148l129 729h176l-142 -801l-295 -252h-411zM526 1116l33 176h127l-31 -176h-129zM692 1116l31 176h129l-31 -176h-129z" />
<glyph unicode="&#xfd;" d="M72 176l155 875h176l-122 -697h557l123 697h176l-201 -1139l-270 -229h-523l31 176h451l149 127l33 190h-735zM555 1237l295 252l102 -125l-295 -252z" />
<glyph unicode="&#xff;" d="M72 176l155 875h176l-122 -697h557l123 697h176l-201 -1139l-270 -229h-523l31 176h451l149 127l33 190h-735zM526 1100l31 176h129l-31 -176h-129zM692 1100l31 176h129l-31 -176h-129z" />
<glyph unicode="&#x152;" horiz-adv-x="1540" d="M41 2l225 1272h826h630l-32 -176h-629l-64 -355h539l-31 -176h-538l-68 -391h631l-31 -176h-809v2h-649zM248 178h473l164 920h-473z" />
<glyph unicode="&#x153;" horiz-adv-x="1558" d="M41 0l184 1051h1479l-88 -496l-209 -178h-506l-35 -199h586l-31 -178h-1380zM248 178h442l123 696h-442zM932 553h432l88 74l45 247h-508z" />
<glyph unicode="&#x178;" horiz-adv-x="989" d="M180 784l86 492h176l-73 -420l98 -123h313l142 123l75 420h177l-89 -492l-262 -227h-151l-99 -557h-176l99 557l-134 -2zM571 1343l31 177h129l-31 -177h-129zM737 1343l31 177h129l-31 -177h-129z" />
<glyph unicode="&#x2c6;" horiz-adv-x="587" d="M225 1049l301 256l207 -252l-145 -125l-105 127l-155 -131z" />
<glyph unicode="&#x2dc;" horiz-adv-x="788" d="M248 1059l289 244l122 -150l172 145l103 -124l-318 -271l-124 150l-142 -119z" />
<glyph unicode="&#x2000;" horiz-adv-x="957" />
<glyph unicode="&#x2001;" horiz-adv-x="1915" />
<glyph unicode="&#x2002;" horiz-adv-x="957" />
<glyph unicode="&#x2003;" horiz-adv-x="1915" />
<glyph unicode="&#x2004;" horiz-adv-x="638" />
<glyph unicode="&#x2005;" horiz-adv-x="478" />
<glyph unicode="&#x2006;" horiz-adv-x="319" />
<glyph unicode="&#x2007;" horiz-adv-x="319" />
<glyph unicode="&#x2008;" horiz-adv-x="239" />
<glyph unicode="&#x2009;" horiz-adv-x="383" />
<glyph unicode="&#x200a;" horiz-adv-x="106" />
<glyph unicode="&#x2010;" horiz-adv-x="403" d="M115 414l30 176h322l-31 -176h-321z" />
<glyph unicode="&#x2011;" horiz-adv-x="403" d="M115 414l30 176h322l-31 -176h-321z" />
<glyph unicode="&#x2012;" horiz-adv-x="403" d="M115 414l30 176h322l-31 -176h-321z" />
<glyph unicode="&#x2013;" horiz-adv-x="440" d="M113 412l32 176h357l-31 -176h-358z" />
<glyph unicode="&#x2014;" horiz-adv-x="1110" d="M115 416l30 176h1029l-31 -176h-1028z" />
<glyph unicode="&#x2018;" horiz-adv-x="212" d="M211 958l53 308l107 -131l-31 -177h-129z" />
<glyph unicode="&#x2019;" horiz-adv-x="212" d="M236 1098l30 176h129l-53 -307z" />
<glyph unicode="&#x201a;" horiz-adv-x="253" d="M63 12l31 176h131l-55 -307z" />
<glyph unicode="&#x201c;" horiz-adv-x="385" d="M211 958l53 308l107 -131l-31 -177h-129zM383 958l53 308l107 -131l-31 -177h-129z" />
<glyph unicode="&#x201d;" horiz-adv-x="385" d="M236 1098l30 176h129l-53 -307zM408 1098l30 176h129l-53 -307z" />
<glyph unicode="&#x201e;" horiz-adv-x="425" d="M63 12l31 176h131l-55 -307zM236 12l30 176h131l-53 -307z" />
<glyph unicode="&#x2022;" horiz-adv-x="473" d="M102 346l68 391h391l-67 -391h-392z" />
<glyph unicode="&#x2026;" horiz-adv-x="544" d="M41 0l31 176h133l-33 -176h-131zM207 0l31 176h133l-33 -176h-131zM373 0l30 176h132l-31 -176h-131z" />
<glyph unicode="&#x202f;" horiz-adv-x="383" />
<glyph unicode="&#x2039;" horiz-adv-x="628" d="M150 500l448 381l102 -123l-301 -258l205 -248l-145 -125z" />
<glyph unicode="&#x203a;" horiz-adv-x="628" d="M113 252l293 248l-211 258l147 123l313 -381l-440 -373z" />
<glyph unicode="&#x205f;" horiz-adv-x="478" />
<glyph unicode="&#x2122;" horiz-adv-x="1087" d="M258 1227l16 102h365l-16 -102h-134l-77 -439h-103l78 439h-129zM598 788l94 541h252l39 -45l53 45h150l80 -96l-80 -445h-103l72 404l-29 35h-65l-43 -37l-70 -402h-102l69 402l-30 37h-109l-76 -439h-102z" />
<glyph unicode="&#x25fc;" horiz-adv-x="1054" d="M0 0v1055h1055v-1055h-1055z" />
<glyph unicode="&#xfb01;" horiz-adv-x="1208" d="M6 -317l205 1169l238 199h612l-31 -177h-541l-114 -96l-37 -209h473l-31 -176h-473l-125 -710h-176zM969 0l186 1053h176l-186 -1053h-176zM1163 1098l31 176h178l-31 -176h-178z" />
<glyph unicode="&#xfb02;" horiz-adv-x="1218" d="M6 -317l205 1169l238 199h612l-31 -177h-541l-114 -96l-37 -209h473l-31 -176h-473l-125 -710h-176zM981 0l225 1276h176l-225 -1276h-176z" />
</font>
</defs>
</svg>
