<?xml version="1.0" standalone="no"?>
<!DOCTYPE svg PUBLIC "-//W3C//DTD SVG 1.1//EN" "http://www.w3.org/Graphics/SVG/1.1/DTD/svg11.dtd" >
<svg xmlns="http://www.w3.org/2000/svg" xmlns:xlink="http://www.w3.org/1999/xlink" version="1.1">
<metadata></metadata>
<defs>
<font id="trembleitalic" horiz-adv-x="993" >
<font-face units-per-em="2048" ascent="1663" descent="-385" />
<missing-glyph horiz-adv-x="512" />
<glyph horiz-adv-x="0" />
<glyph horiz-adv-x="682" />
<glyph unicode=" "  horiz-adv-x="512" />
<glyph unicode="&#x09;" horiz-adv-x="512" />
<glyph unicode="&#xa0;" horiz-adv-x="512" />
<glyph unicode="!" horiz-adv-x="258" d="M-72 0l23 131h176l-23 -131h-176zM-37 195l191 1081h176l-191 -1081h-176z" />
<glyph unicode="&#x22;" horiz-adv-x="385" d="M37 1098l31 176h131l-56 -307zM209 1098l31 176h131l-54 -307z" />
<glyph unicode="#" horiz-adv-x="1095" d="M4 432l31 176h203l57 160h-229l30 176h260l121 332h178l-118 -332h180l117 332h180l-119 -332h215l-33 -176h-243l-56 -160h273l-31 -176h-303l-154 -432h-178l152 432h-183l-153 -432h-178l153 432h-172zM418 608h182l55 160h-182z" />
<glyph unicode="$" horiz-adv-x="995" d="M-72 0l56 311h176l-23 -135h199l67 389h-374l125 709h374l13 69h176l-12 -69h360l-55 -309h-176l24 133h-184l-62 -357h361l-131 -741h-361l-14 -74h-176l14 74h-377zM236 741h200l62 357h-199zM512 176h184l70 389h-186z" />
<glyph unicode="%" horiz-adv-x="1241" d="M66 778l88 496h452l-88 -496h-452zM174 0l680 1276h186l-678 -1276h-188zM272 954h101l26 144h-100zM649 82l88 493h453l-88 -493h-453zM856 258h100l27 141h-100z" />
<glyph unicode="&#x26;" horiz-adv-x="1118" d="M-29 244l56 309l110 94l-74 88l60 334l237 207h433l153 -189l-61 -352h192l-30 -176h-193l-70 -383h211l-30 -176h-797zM160 315l112 -139h338l68 383h-395l-95 -78zM252 809l61 -74h396l49 279l-70 86h-285l-116 -103z" />
<glyph unicode="'" horiz-adv-x="212" d="M37 1098l31 176h131l-56 -307z" />
<glyph unicode="(" horiz-adv-x="430" d="M-35 207l152 858l245 211h140l-31 -176h-65l-127 -109l-125 -710l88 -105h61l-31 -176h-135z" />
<glyph unicode=")" horiz-adv-x="430" d="M-66 0l31 176h62l125 105l124 710l-88 109h-65l31 176h139l172 -211l-152 -858l-243 -207h-136z" />
<glyph unicode="*" horiz-adv-x="622" d="M31 948l18 103h146l-86 102l86 74l84 -105l26 152h103l-25 -150l115 99l59 -74l-117 -98h150l-19 -103h-147l92 -112l-84 -74l-94 115l-25 -148h-102l25 148l-134 -115l-59 74l133 112h-145z" />
<glyph unicode="+" horiz-adv-x="638" d="M25 414l30 176h191l35 201h176l-35 -201h190l-32 -176h-191l-31 -183h-176l31 183h-188z" />
<glyph unicode="," horiz-adv-x="212" d="M37 2l31 176h131l-56 -307z" />
<glyph unicode="-" horiz-adv-x="403" d="M25 414l32 176h322l-31 -176h-323z" />
<glyph unicode="." horiz-adv-x="208" d="M25 0l32 176h127l-32 -176h-127z" />
<glyph unicode="/" horiz-adv-x="489" d="M-72 0l459 1276h174l-461 -1276h-172z" />
<glyph unicode="0" horiz-adv-x="1038" d="M-39 188l160 899l219 187h584l153 -187l-157 -899l-222 -186h-581zM152 262l67 -84h436l101 84l133 752l-70 84h-436l-100 -84z" />
<glyph unicode="1" horiz-adv-x="317" d="M-14 0l194 1100h-57l31 176h233l-223 -1276h-178z" />
<glyph unicode="2" d="M-72 2l88 498l805 389l29 172l-29 35l-485 2l-45 -37l-17 -96h-176l31 168l166 141l631 -2l114 -139l-63 -353l-803 -389l-39 -213h735l-30 -176h-912z" />
<glyph unicode="3" horiz-adv-x="1003" d="M-61 2l30 176h660l90 76l43 244l-57 69h-555l30 176h557l80 70l35 201l-70 84h-428l-127 -107l-102 125l188 158h574l153 -187l-61 -348l-98 -82l71 -86l-69 -389l-211 -180h-733z" />
<glyph unicode="4" horiz-adv-x="1046" d="M10 459l47 272l725 545h256l-147 -840h80l-31 -176h-80l-45 -260h-176l45 260h-512zM199 532l77 -96h439l116 664h-14l-598 -449z" />
<glyph unicode="5" d="M-72 2l31 176h657l93 78l34 199l-67 84h-486l-137 166l101 569h792l96 -115l-147 -125l-53 64h-543l-57 -320l51 -63h487l152 -189l-60 -342l-215 -180z" />
<glyph unicode="6" horiz-adv-x="1005" d="M-37 201l162 909l192 166l601 -2l131 -158l-148 -123l-88 105h-455l-71 -62l-31 -174l27 23h514l164 -199l-87 -485l-231 -199h-512zM154 274l75 -96h371l111 96l61 336l-80 97l-370 2l-109 -95z" />
<glyph unicode="7" d="M-72 0l80 453l834 553l16 94h-733l31 176h909l-64 -358l-831 -551l-66 -367h-176z" />
<glyph unicode="8" horiz-adv-x="1042" d="M-41 176l72 408l82 69l-47 60l67 379l217 184h576l149 -178l-67 -383l-70 -60l55 -67l-73 -412l-207 -178l-609 2zM150 248l59 -72l461 -2l86 74l47 268l-39 49h-506l-63 -55zM256 786l35 -43l500 -2l53 47l43 236l-64 76h-432l-94 -82z" />
<glyph unicode="9" d="M6 133l148 125l65 -80h338l162 137l24 136l-532 -2l-168 202l74 422l241 203h502l168 -205l-145 -827l-285 -244h-481zM233 725l80 -98h461l66 372l-82 101h-357l-120 -105z" />
<glyph unicode=":" horiz-adv-x="212" d="M-8 0l31 176h131l-31 -176h-131zM59 377l31 176h129l-31 -176h-129z" />
<glyph unicode=";" horiz-adv-x="212" d="M4 2l31 176h131l-55 -307zM72 377l30 176h131l-30 -176h-131z" />
<glyph unicode="&#x3c;" horiz-adv-x="569" d="M41 522l424 361l102 -125l-276 -236l194 -241l-145 -123z" />
<glyph unicode="=" horiz-adv-x="641" d="M4 287l31 176h559q-7 -41 -13.5 -74t-11.5 -60.5t-8 -41.5h-557zM47 532l31 177h559q-29 -165 -31 -177h-559z" />
<glyph unicode="&#x3e;" horiz-adv-x="569" d="M-2 281l283 241l-195 236l147 125l295 -361l-426 -364z" />
<glyph unicode="?" horiz-adv-x="937" d="M-72 -2l33 178h176l-31 -178h-178zM-29 229l56 318l227 192h399l101 86l49 273h-680l31 178l856 -2l-92 -522l-224 -189h-399l-105 -90l-43 -244h-176z" />
<glyph unicode="@" horiz-adv-x="1081" d="M-78 -74l170 959l459 389h418l157 -191l-159 -911l-203 -172h-385l-137 168l112 639l211 178h369l4 25l-72 88h-286l-324 -275l-158 -897h-176zM430 240l53 -64h238l82 70l98 563h-295l-88 -76z" />
<glyph unicode="A" horiz-adv-x="991" d="M-72 -2l226 1278h909l-225 -1276h-176l81 465h-557l-82 -467h-176zM217 641h557l82 459h-557z" />
<glyph unicode="B" d="M-72 2l226 1272h720l156 -191l-67 -387l-62 -51l43 -51l-67 -391l-238 -201h-711zM135 178h461l117 98l41 234l-41 47h-510zM233 733h521l45 39l43 240l-72 86h-471z" />
<glyph unicode="C" horiz-adv-x="991" d="M-35 203l150 850l260 221h688l-31 -176h-616l-140 -119l-122 -703l79 -98h635l-30 -176h-707z" />
<glyph unicode="D" horiz-adv-x="991" d="M-72 2l226 1272h655l209 -252l-135 -762l-301 -258h-654zM135 178h406l180 154l108 616l-124 150h-406z" />
<glyph unicode="E" d="M-72 2l226 1272h909l-31 -176h-733l-63 -361h641l-31 -176h-643l-68 -383h735l-30 -176h-912z" />
<glyph unicode="F" d="M-72 0l226 1276h911l-31 -176h-735l-66 -365h691l-31 -176h-690l-99 -559h-176z" />
<glyph unicode="G" d="M-72 2l226 1272h911l-31 -176h-735l-164 -920h559l60 336l-45 55h-232l31 176h305l131 -157l-104 -586h-912z" />
<glyph unicode="H" d="M-72 0l226 1276h176l-97 -543h560l96 543h176l-225 -1276h-176l98 557h-559l-99 -557h-176z" />
<glyph unicode="I" horiz-adv-x="258" d="M-72 0l226 1276h176l-226 -1276h-176z" />
<glyph unicode="J" d="M-70 2l31 176h234l114 96l146 826l-332 -2l31 176l759 2l123 -152l-145 -125l-82 101h-178l-158 -897l-237 -201h-306z" />
<glyph unicode="K" d="M-72 0l226 1274h176l-97 -549h230l391 365l33 186h176l-43 -254l-416 -385l281 -381l-45 -256h-176l32 188l-264 361h-231l-97 -549h-176z" />
<glyph unicode="L" horiz-adv-x="946" d="M-41 176l195 1100h176l-180 -1026l59 -74h616l-32 -176h-689z" />
<glyph unicode="M" horiz-adv-x="1323" d="M-72 0l193 1085l225 191h320l90 -105l125 105h321l160 -191l-193 -1085h-176l178 1012l-73 88h-176l-107 -90l-178 -1010h-176l178 1010l-76 90h-176l-104 -88l-179 -1012h-176z" />
<glyph unicode="N" d="M-72 0l226 1274h247l306 -1034l182 1036h176l-225 -1274h-252l-301 1030l-183 -1032h-176z" />
<glyph unicode="O" d="M-72 2l226 1272h911l-225 -1272h-912zM135 178h559l164 920h-559z" />
<glyph unicode="P" d="M-72 0l181 1016l305 260h651l-145 -823h-736l-80 -453h-176zM215 629h559l82 471h-401l-185 -156z" />
<glyph unicode="Q" horiz-adv-x="991" d="M-43 0l225 1274h910l-226 -1274h-368l-13 -68l66 -75h96l-31 -176h-176l-143 178l25 141h-365zM164 178h557l162 920h-557z" />
<glyph unicode="R" d="M-72 0l195 1106l201 170h741l-107 -604l-141 -117l98 -121l-75 -434h-176l63 360l-86 107h-455l-82 -467h-176zM217 643h455l123 102l63 355h-493l-78 -66z" />
<glyph unicode="S" d="M-72 2l56 309h176l-25 -133h559l70 391h-733l125 705h909l-55 -309h-176l22 133h-555l-63 -353h733l-131 -743h-912z" />
<glyph unicode="T" horiz-adv-x="866" d="M123 1100l31 176h784l-33 -176h-307l-195 -1100h-176l195 1100h-299z" />
<glyph unicode="U" horiz-adv-x="991" d="M-27 252l181 1022h176l-168 -950l121 -148h262l174 148l168 952h176l-180 -1024l-295 -252h-410z" />
<glyph unicode="V" d="M27 553l127 723h176l-119 -672l207 -428h8l344 432l119 668h176l-129 -725l-451 -551h-184z" />
<glyph unicode="W" horiz-adv-x="1568" d="M29 563l125 713h176l-119 -670l156 -428l323 430l119 668h176l-117 -670l154 -428l324 430l116 668h178l-127 -715l-421 -561h-205l-146 406l-305 -406h-205z" />
<glyph unicode="X" d="M-72 0l80 453l338 209l-262 219l70 395h176l-54 -301l248 -209l310 209l53 301h176l-70 -395l-350 -219l277 -209l-80 -453h-176l63 356l-240 199l-319 -199l-64 -356h-176z" />
<glyph unicode="Y" horiz-adv-x="989" d="M68 784l86 492h176l-74 -420l98 -123h314l143 123l74 420h176l-88 -492l-262 -227h-152l-98 -557h-176l98 557l-133 -2z" />
<glyph unicode="Z" horiz-adv-x="995" d="M-70 2l68 391l848 641l12 64h-559l-25 -133h-176l56 309h911l-57 -322l-848 -643l-23 -131h559l23 133h178l-55 -309h-912z" />
<glyph unicode="[" horiz-adv-x="464" d="M-72 2l226 1272h381l-33 -176h-203l-164 -920h209l-31 -176h-385z" />
<glyph unicode="\" horiz-adv-x="495" d="M154 1276h178l10 -1276h-178z" />
<glyph unicode="]" horiz-adv-x="464" d="M-72 2l31 176h209l162 920h-205l33 176h379l-224 -1272h-385z" />
<glyph unicode="^" horiz-adv-x="593" d="M29 1055l305 260l209 -258l-148 -123l-106 131l-156 -135z" />
<glyph unicode="_" horiz-adv-x="641" d="M25 -176l32 176h557l-30 -176h-559z" />
<glyph unicode="`" horiz-adv-x="462" d="M53 1155l146 125l211 -254l-148 -125z" />
<glyph unicode="a" d="M-49 0l112 639h734l41 235h-559l-23 -135h-176l53 312h911l-184 -1051h-909zM158 176h557l51 287h-557z" />
<glyph unicode="b" d="M-72 0l226 1276h176l-39 -225h733l-143 -820l-275 -231h-678zM135 176h430l150 129l102 569h-559z" />
<glyph unicode="c" horiz-adv-x="991" d="M-51 0l143 821l268 230h682l-55 -310h-178l25 133h-428l-150 -126l-100 -570h733l-31 -178h-909z" />
<glyph unicode="d" horiz-adv-x="991" d="M-72 0l187 1051h733l39 225h176l-184 -1047l-271 -229h-680zM135 176h432l148 127l100 571h-557z" />
<glyph unicode="e" d="M-51 0l184 1051h911l-88 -494l-211 -180h-555l-34 -199h659l-31 -178h-835zM221 553h481l93 76l43 245h-559z" />
<glyph unicode="f" horiz-adv-x="897" d="M-80 -317l207 1169l235 199h613l-31 -177h-538l-117 -96l-37 -209h475l-31 -176h-475l-125 -710h-176z" />
<glyph unicode="g" d="M14 221l148 830h909l-203 -1162l-247 -206h-506l30 176h435l116 98l9 43h-506zM205 295l98 -117h440l123 696h-559z" />
<glyph unicode="h" d="M-72 0l226 1276h176l-39 -223h538l162 -197l-151 -856h-176l137 782l-76 95h-467l-154 -877h-176z" />
<glyph unicode="i" horiz-adv-x="260" d="M-72 0l187 1051h176l-187 -1051h-176zM123 1098l31 176h178l-31 -176h-178z" />
<glyph unicode="j" horiz-adv-x="466" d="M-100 -319l30 176h160l60 51l200 1145h176l-213 -1219l-182 -153h-231zM358 1100l31 176h178l-30 -176h-179z" />
<glyph unicode="k" horiz-adv-x="913" d="M-72 0l226 1276h176l-101 -563h152l422 338h123l-25 -127l-366 -293l288 -266l-63 -365h-176l49 279l-279 258h-155l-95 -537h-176z" />
<glyph unicode="l" horiz-adv-x="258" d="M-72 0l226 1276h176l-226 -1276h-176z" />
<glyph unicode="m" horiz-adv-x="1323" d="M-51 0l151 862l226 189h321l88 -105l127 105h320l159 -191l-151 -860h-176l139 786l-74 88h-176l-106 -90l-140 -784h-176l140 784l-78 90h-176l-103 -86l-139 -788h-176z" />
<glyph unicode="n" horiz-adv-x="991" d="M-51 0l184 1051h670l198 -240l-143 -811h-176l129 737l-113 137h-419l-154 -874h-176z" />
<glyph unicode="o" d="M-51 0l184 1051h911l-184 -1051h-911zM156 178h559l123 696h-559z" />
<glyph unicode="p" d="M-80 -317l242 1370l698 -2l174 -215l-147 -834h-733l-58 -319h-176zM184 178h557l105 586l-90 110h-449z" />
<glyph unicode="q" d="M-23 2l146 834l250 215l700 2l-242 -1370h-176l56 319h-734zM184 178h557l123 696h-448l-129 -110z" />
<glyph unicode="r" horiz-adv-x="817" d="M-51 0l153 870l211 181h555l-55 -310h-176l25 133h-306l-92 -77l-139 -797h-176z" />
<glyph unicode="s" d="M-51 0l55 311h176l-24 -135h557l45 254h-733l108 621h911l-55 -310h-176l25 133h-559l-48 -268h736l-109 -606h-909z" />
<glyph unicode="t" horiz-adv-x="714" d="M-31 236l185 1040h176l-39 -225h364l-32 -177h-365l-98 -565l106 -131h326l-31 -178h-399z" />
<glyph unicode="u" d="M-8 252l141 799h176l-127 -727l121 -148h264l174 148l127 729h176l-141 -801l-295 -252h-409z" />
<glyph unicode="v" d="M59 635l74 418h176l-65 -373l200 -504l359 506l65 367h176l-73 -416l-461 -633h-201z" />
<glyph unicode="w" horiz-adv-x="1568" d="M47 563l86 490h176l-78 -445l156 -430l324 430l77 443h177l-78 -443l155 -430l324 430l78 443h176l-86 -490l-422 -561h-205l-147 406l-303 -406h-207z" />
<glyph unicode="x" d="M-51 0l63 369l361 209l-285 219l45 254h176l-28 -162l245 -207l314 207l28 162h176l-45 -254l-333 -219l258 -211l-66 -367h-176l49 272l-242 199l-317 -199l-47 -272h-176z" />
<glyph unicode="y" d="M8 176l154 875h176l-123 -697h559l123 697h176l-201 -1139l-270 -229h-522l31 176h448l150 127l32 190h-733z" />
<glyph unicode="z" horiz-adv-x="991" d="M-51 0l69 385l809 434l11 55h-559l-23 -133h-176l53 310h911l-59 -332l-809 -434l-18 -109h555l24 135h176l-55 -311h-909z" />
<glyph unicode="{" horiz-adv-x="499" d="M27 551l30 176h68l59 330l246 211h139l-30 -176h-66l-127 -109l-123 -702l86 -105h64l-33 -176h-133l-172 207l59 344h-67z" />
<glyph unicode="|" horiz-adv-x="258" d="M-72 0l226 1276h176l-226 -1276h-176z" />
<glyph unicode="}" horiz-adv-x="499" d="M-66 0l31 176h64l123 105l122 702l-88 109h-65l33 176h137l174 -211l-59 -330h69l-33 -176h-67l-60 -344l-245 -207h-136z" />
<glyph unicode="~" horiz-adv-x="747" d="M33 1059l289 244l122 -150l172 145l103 -124l-318 -271l-125 150l-141 -119z" />
<glyph unicode="&#xa1;" horiz-adv-x="258" d="M-72 0l191 1081h176l-191 -1081h-176zM131 1143l23 131h176l-23 -131h-176z" />
<glyph unicode="&#xa2;" d="M-51 0l145 821l268 230h181l12 73h176l-12 -73h325l-53 -310h-176l23 133h-150l-125 -698h328l-31 -176h-328l-12 -74h-176l12 74h-407zM156 176h231l125 698h-106l-150 -124z" />
<glyph unicode="&#xa3;" horiz-adv-x="1048" d="M-49 125l26 154h177l-15 -82l17 -19h110l51 43l60 340h-164l31 176h164l61 344l229 195h422l-30 -176h-351l-106 -90l-49 -273h313l-31 -176h-313l-68 -383h441l-31 -176l-616 -2l8 43l-54 -43l-184 2z" />
<glyph unicode="&#xa5;" horiz-adv-x="913" d="M68 784l86 492h176l-74 -420l100 -123h236l143 123l74 420h176l-86 -492l-264 -227h-105l-22 -129h170l-14 -88h-172l-13 -78h170l-14 -88h-172l-31 -174h-176l31 174h-172l14 88h174l12 78h-172l17 88h172l22 129h-102z" />
<glyph unicode="&#xa8;" horiz-adv-x="376" d="M25 1116l32 176h127l-30 -176h-129zM190 1116l31 176h129l-31 -176h-129z" />
<glyph unicode="&#xa9;" horiz-adv-x="909" d="M-39 369l160 897h827l-160 -897h-827zM82 471h623l122 692h-622zM125 510l106 612h557l-18 -102h-453l-73 -408h454l-16 -102h-557z" />
<glyph unicode="&#xab;" horiz-adv-x="878" d="M41 500l448 381l103 -123l-303 -258l207 -248l-148 -125zM332 500l446 381l105 -123l-303 -258l206 -248l-147 -125z" />
<glyph unicode="&#xad;" horiz-adv-x="403" d="M25 414l32 176h322l-31 -176h-323z" />
<glyph unicode="&#xae;" horiz-adv-x="909" d="M-39 369l160 897h827l-160 -897h-827zM82 471h623l122 692h-622zM129 506l94 532l101 86h446l-53 -311l-58 -49l43 -51l-36 -207h-103l29 164l-35 43h-289l-37 -207h-102zM287 815h286l48 39l30 168h-303l-31 -25z" />
<glyph unicode="&#xaf;" horiz-adv-x="421" d="M25 1114l32 176h340l-32 -176h-340z" />
<glyph unicode="&#xb0;" horiz-adv-x="462" d="M4 977l74 416h381l-74 -416h-381zM172 1085h80l35 189h-82z" />
<glyph unicode="&#xb4;" horiz-adv-x="458" d="M31 1030l295 252l102 -123l-295 -252z" />
<glyph unicode="&#xb6;" horiz-adv-x="1009" d="M33 426l106 604l289 246h440l199 -240l-238 -1355h-176l131 745h-155l-131 -745h-176l131 745h-420zM240 602h243l88 498h-100l-170 -144zM659 602h156l64 361l-115 137h-16z" />
<glyph unicode="&#xb8;" horiz-adv-x="421" d="M20 -309l205 309h191l-250 -385z" />
<glyph unicode="&#xbb;" horiz-adv-x="886" d="M4 252l293 248l-211 258l145 123l316 -381l-441 -373zM303 252l293 248l-211 258l145 123l316 -381l-440 -373z" />
<glyph unicode="&#xbf;" horiz-adv-x="937" d="M-72 2l92 522l224 189h399l105 90l43 244h176l-56 -318l-227 -192h-399l-101 -86l-49 -273h680l-31 -178zM801 1100l30 178h179l-33 -178h-176z" />
<glyph unicode="&#xc0;" horiz-adv-x="991" d="M-72 -2l226 1278h909l-225 -1276h-176l81 465h-557l-82 -467h-176zM217 641h557l82 459h-557zM410 1602l147 124l209 -256l-145 -124z" />
<glyph unicode="&#xc1;" horiz-adv-x="991" d="M-72 -2l226 1278h909l-225 -1276h-176l81 465h-557l-82 -467h-176zM217 641h557l82 459h-557zM412 1470l295 252l102 -125l-295 -251z" />
<glyph unicode="&#xc2;" horiz-adv-x="991" d="M-72 -2l226 1278h909l-225 -1276h-176l81 465h-557l-82 -467h-176zM217 641h557l82 459h-557zM391 1470l301 256l207 -249l-147 -125l-105 127l-153 -133z" />
<glyph unicode="&#xc3;" horiz-adv-x="991" d="M-72 -2l226 1278h909l-225 -1276h-176l81 465h-557l-82 -467h-176zM217 641h557l82 459h-557zM307 1470l289 244l123 -149l172 145l102 -125l-317 -270l-125 149l-141 -118z" />
<glyph unicode="&#xc4;" horiz-adv-x="991" d="M-72 -2l226 1278h909l-225 -1276h-176l81 465h-557l-82 -467h-176zM217 641h557l82 459h-557zM449 1346l30 176h129l-30 -176h-129zM614 1346l31 176h129l-33 -176h-127z" />
<glyph unicode="&#xc5;" horiz-adv-x="991" d="M-72 -2l226 1278h909l-225 -1276h-176l81 465h-557l-82 -467h-176zM217 641h557l82 459h-557zM299 1346l100 569h506l-100 -569h-506zM506 1522h156l36 217h-153z" />
<glyph unicode="&#xc6;" horiz-adv-x="1611" d="M-72 0l187 1057l260 217h454l37 -43l8 45h807l-30 -176h-631l-66 -369h539l-31 -176h-538l-66 -377h631l-31 -176h-809l99 553h-545l-99 -555h-176zM233 731h545l43 250l-96 117h-309l-137 -115z" />
<glyph unicode="&#xc7;" horiz-adv-x="991" d="M-35 203l150 850l260 221h688l-31 -176h-616l-140 -119l-122 -703l79 -98h635l-30 -176h-707zM158 -309l204 309h191l-250 -385z" />
<glyph unicode="&#xc8;" d="M-72 2l226 1272h909l-31 -176h-733l-63 -361h641l-31 -176h-643l-68 -383h735l-30 -176h-912zM410 1597l145 125l211 -256l-145 -125z" />
<glyph unicode="&#xc9;" d="M-72 2l226 1272h909l-31 -176h-733l-63 -361h641l-31 -176h-643l-68 -383h735l-30 -176h-912zM410 1458l297 252l102 -125l-297 -252z" />
<glyph unicode="&#xca;" d="M-72 2l226 1272h909l-31 -176h-733l-63 -361h641l-31 -176h-643l-68 -383h735l-30 -176h-912zM350 1470l301 256l207 -249l-147 -125l-105 127l-153 -133z" />
<glyph unicode="&#xcb;" d="M-72 2l226 1272h909l-31 -176h-733l-63 -361h641l-31 -176h-643l-68 -383h735l-30 -176h-912zM457 1343l30 177h129l-32 -177h-127zM621 1343l32 177h127l-30 -177h-129z" />
<glyph unicode="&#xcc;" horiz-adv-x="462" d="M-4 0l225 1276h176l-225 -1276h-176zM172 1602l145 124l211 -256l-147 -124z" />
<glyph unicode="&#xcd;" horiz-adv-x="458" d="M68 0l225 1276h176l-225 -1276h-176zM147 1470l297 252l103 -125l-295 -251z" />
<glyph unicode="&#xce;" horiz-adv-x="587" d="M94 0l225 1276h177l-226 -1276h-176zM147 1470l302 256l206 -249l-145 -125l-104 127l-156 -133z" />
<glyph unicode="&#xcf;" horiz-adv-x="376" d="M-18 0l225 1276h176l-225 -1276h-176zM143 1343l31 177h129l-31 -177h-129zM309 1343l31 177h129l-31 -177h-129z" />
<glyph unicode="&#xd1;" d="M-72 0l226 1274h247l306 -1034l182 1036h176l-225 -1274h-252l-301 1030l-183 -1032h-176zM307 1470l289 244l123 -149l172 145l102 -125l-317 -270l-125 149l-141 -118z" />
<glyph unicode="&#xd2;" d="M-72 2l226 1272h911l-225 -1272h-912zM135 178h559l164 920h-559zM410 1602l147 124l209 -256l-145 -124z" />
<glyph unicode="&#xd3;" d="M-72 2l226 1272h911l-225 -1272h-912zM135 178h559l164 920h-559zM412 1470l295 252l102 -125l-295 -251z" />
<glyph unicode="&#xd4;" d="M-72 2l226 1272h911l-225 -1272h-912zM135 178h559l164 920h-559zM336 1470l301 256l207 -249l-148 -125l-104 127l-154 -133z" />
<glyph unicode="&#xd5;" d="M-72 2l226 1272h911l-225 -1272h-912zM135 178h559l164 920h-559zM307 1470l289 244l123 -149l172 145l102 -125l-317 -270l-125 149l-141 -118z" />
<glyph unicode="&#xd6;" d="M-72 2l226 1272h911l-225 -1272h-912zM135 178h559l164 920h-559zM449 1346l30 176h129l-33 -176h-126zM614 1346l31 176h127l-31 -176h-127z" />
<glyph unicode="&#xd7;" horiz-adv-x="610" d="M16 367l166 141l-106 131l145 125l109 -131l151 129l103 -125l-152 -129l113 -137l-146 -125l-114 137l-166 -141z" />
<glyph unicode="&#xd8;" d="M-72 2l226 1272h911l-225 -1272h-912zM135 178h113l334 920h-283zM420 178h274l164 920h-102z" />
<glyph unicode="&#xd9;" horiz-adv-x="991" d="M-27 252l181 1022h176l-168 -950l121 -148h262l174 148l168 952h176l-180 -1024l-295 -252h-410zM410 1602l147 124l209 -256l-145 -124z" />
<glyph unicode="&#xda;" horiz-adv-x="991" d="M-27 252l181 1022h176l-168 -950l121 -148h262l174 148l168 952h176l-180 -1024l-295 -252h-410zM412 1470l295 252l102 -125l-295 -251z" />
<glyph unicode="&#xdb;" horiz-adv-x="991" d="M-27 252l181 1022h176l-168 -950l121 -148h262l174 148l168 952h176l-180 -1024l-295 -252h-410zM342 1470l301 256l207 -249l-148 -125l-104 127l-154 -133z" />
<glyph unicode="&#xdc;" horiz-adv-x="991" d="M-27 252l181 1022h176l-168 -950l121 -148h262l174 148l168 952h176l-180 -1024l-295 -252h-410zM440 1346l31 176h129l-33 -176h-127zM606 1346l31 176h127l-31 -176h-127z" />
<glyph unicode="&#xdd;" horiz-adv-x="989" d="M68 784l86 492h176l-74 -420l98 -123h314l143 123l74 420h176l-88 -492l-262 -227h-152l-98 -557h-176l98 557l-133 -2zM453 1466l297 252l102 -125l-295 -252z" />
<glyph unicode="&#xdf;" horiz-adv-x="909" d="M-82 -115l246 1389h651l143 -174l-53 -307l-102 -88l65 -80l-73 -414l-246 -211h-350l32 176h277l125 107l47 268l-53 65h-312l31 177h309l86 73l29 160l-59 72h-402l-215 -1213h-176z" />
<glyph unicode="&#xe0;" d="M-49 0l112 639h734l41 235h-559l-23 -135h-176l53 312h911l-184 -1051h-909zM158 176h557l51 287h-557zM389 1370l148 125l208 -256l-145 -125z" />
<glyph unicode="&#xe1;" d="M-49 0l112 639h734l41 235h-559l-23 -135h-176l53 312h911l-184 -1051h-909zM158 176h557l51 287h-557zM391 1253l297 252l103 -125l-297 -252z" />
<glyph unicode="&#xe2;" d="M-49 0l112 639h734l41 235h-559l-23 -135h-176l53 312h911l-184 -1051h-909zM158 176h557l51 287h-557zM336 1227l301 256l207 -250l-146 -125l-104 127l-156 -131z" />
<glyph unicode="&#xe3;" d="M-49 0l112 639h734l41 235h-559l-23 -135h-176l53 312h911l-184 -1051h-909zM158 176h557l51 287h-557zM289 1268l289 243l122 -149l172 145l103 -125l-318 -270l-122 150l-144 -119z" />
<glyph unicode="&#xe4;" d="M-49 0l112 639h734l41 235h-559l-23 -135h-176l53 312h911l-184 -1051h-909zM158 176h557l51 287h-557zM428 1116l31 176h129l-31 -176h-129zM594 1116l31 176h129l-33 -176h-127z" />
<glyph unicode="&#xe5;" d="M-49 0l112 639h734l41 235h-559l-23 -135h-176l53 312h911l-184 -1051h-909zM158 176h557l51 287h-557zM287 1102l100 569h506l-98 -569h-508zM494 1278h155l37 217h-154z" />
<glyph unicode="&#xe6;" horiz-adv-x="1595" d="M-51 0l114 657h642l38 217h-464l-23 -133h-176l53 310h1514l-95 -529l-209 -180h-518l-28 -166h598l-31 -176h-1415zM158 178l463 -2l53 305h-463zM858 518h442l91 76l49 280h-520z" />
<glyph unicode="&#xe7;" horiz-adv-x="991" d="M-51 0l145 821l266 230h682l-55 -310h-178l25 133h-428l-150 -126l-100 -570h733l-31 -178h-909zM172 -309l203 309h190l-248 -385z" />
<glyph unicode="&#xe8;" d="M-51 0l184 1051h911l-88 -494l-211 -180h-555l-34 -199h659l-31 -178h-835zM221 553h481l93 76l43 245h-559zM389 1370l148 125l208 -256l-145 -125z" />
<glyph unicode="&#xe9;" d="M-51 0l184 1051h911l-88 -494l-211 -180h-555l-34 -199h659l-31 -178h-835zM221 553h481l93 76l43 245h-559zM391 1253l297 252l103 -125l-297 -252z" />
<glyph unicode="&#xea;" d="M-51 0l184 1051h911l-88 -494l-211 -180h-555l-34 -199h659l-31 -178h-835zM221 553h481l93 76l43 245h-559zM336 1227l301 256l207 -250l-146 -125l-104 127l-156 -131z" />
<glyph unicode="&#xeb;" d="M-51 0l184 1051h911l-88 -494l-211 -180h-555l-34 -199h659l-31 -178h-835zM221 553h481l93 76l43 245h-559zM420 1116l31 176h129l-31 -176h-129zM586 1116l30 176h129l-32 -176h-127z" />
<glyph unicode="&#xec;" horiz-adv-x="462" d="M41 0l186 1051h176l-186 -1051h-176zM152 1370l145 125l211 -256l-148 -125z" />
<glyph unicode="&#xed;" horiz-adv-x="458" d="M115 0l184 1051h176l-184 -1051h-176zM129 1253l297 252l102 -125l-297 -252z" />
<glyph unicode="&#xee;" horiz-adv-x="587" d="M111 0l186 1051h176l-186 -1051h-176zM127 1227l301 256l207 -250l-148 -125l-104 127l-154 -131z" />
<glyph unicode="&#xef;" horiz-adv-x="376" d="M23 0l186 1051h176l-186 -1051h-176zM123 1116l33 176h127l-31 -176h-129zM289 1116l30 176h130l-31 -176h-129z" />
<glyph unicode="&#xf1;" horiz-adv-x="991" d="M-51 0l184 1051h670l198 -240l-143 -811h-176l129 737l-113 137h-419l-154 -874h-176zM248 1262l289 243l122 -149l172 145l103 -125l-320 -270l-122 149l-142 -118z" />
<glyph unicode="&#xf2;" d="M-51 0l184 1051h911l-184 -1051h-911zM156 178h559l123 696h-559zM389 1370l148 125l208 -256l-145 -125z" />
<glyph unicode="&#xf3;" d="M-51 0l184 1051h911l-184 -1051h-911zM156 178h559l123 696h-559zM391 1253l297 252l103 -125l-297 -252z" />
<glyph unicode="&#xf4;" d="M-51 0l184 1051h911l-184 -1051h-911zM156 178h559l123 696h-559zM336 1227l301 256l207 -250l-146 -125l-104 127l-156 -131z" />
<glyph unicode="&#xf5;" d="M-51 0l184 1051h911l-184 -1051h-911zM156 178h559l123 696h-559zM289 1247l286 244l123 -150l172 146l103 -125l-318 -270l-123 149l-143 -119z" />
<glyph unicode="&#xf6;" d="M-51 0l184 1051h911l-184 -1051h-911zM156 178h559l123 696h-559zM414 1116l30 176h129l-30 -176h-129zM580 1116l30 176h129l-32 -176h-127z" />
<glyph unicode="&#xf7;" horiz-adv-x="638" d="M25 414l32 176h555l-30 -176h-557zM152 113l41 231h190l-41 -231h-190zM250 659l41 232h190l-41 -232h-190z" />
<glyph unicode="&#xf8;" d="M-51 0l184 1051h911l-184 -1051h-911zM156 178h55l393 696h-325zM383 178h332l123 696h-60z" />
<glyph unicode="&#xf9;" d="M-8 252l141 799h176l-127 -727l121 -148h264l174 148l127 729h176l-141 -801l-295 -252h-409zM389 1370l148 125l208 -256l-145 -125z" />
<glyph unicode="&#xfa;" d="M-8 252l141 799h176l-127 -727l121 -148h264l174 148l127 729h176l-141 -801l-295 -252h-409zM391 1253l297 252l103 -125l-297 -252z" />
<glyph unicode="&#xfb;" d="M-8 252l141 799h176l-127 -727l121 -148h264l174 148l127 729h176l-141 -801l-295 -252h-409zM336 1227l301 256l207 -250l-146 -125l-104 127l-156 -131z" />
<glyph unicode="&#xfc;" d="M-8 252l141 799h176l-127 -727l121 -148h264l174 148l127 729h176l-141 -801l-295 -252h-409zM414 1116l30 176h129l-30 -176h-129zM580 1116l30 176h129l-32 -176h-127z" />
<glyph unicode="&#xfd;" d="M8 176l154 875h176l-123 -697h559l123 697h176l-201 -1139l-270 -229h-522l31 176h448l150 127l32 190h-733zM451 1237l297 252l102 -125l-297 -252z" />
<glyph unicode="&#xff;" d="M8 176l154 875h176l-123 -697h559l123 697h176l-201 -1139l-270 -229h-522l31 176h448l150 127l32 190h-733zM442 1100l31 176h129l-31 -176h-129zM608 1100l31 176h129l-33 -176h-127z" />
<glyph unicode="&#x152;" horiz-adv-x="1540" d="M-72 2l226 1272h825h631l-33 -176h-629l-63 -355h538l-30 -176h-539l-68 -391h631l-31 -176h-808v2h-650zM135 178h473l164 920h-473z" />
<glyph unicode="&#x153;" horiz-adv-x="1558" d="M-51 0l184 1051h1479l-88 -496l-211 -178h-504l-35 -199h586l-31 -178h-1380zM156 178h442l123 696h-442zM840 553h432l88 74l43 247h-506z" />
<glyph unicode="&#x178;" horiz-adv-x="989" d="M68 784l86 492h176l-74 -420l98 -123h314l143 123l74 420h176l-88 -492l-262 -227h-152l-98 -557h-176l98 557l-133 -2zM438 1343l31 177h129l-33 -177h-127zM602 1343l33 177h127l-31 -177h-129z" />
<glyph unicode="&#x2c6;" horiz-adv-x="587" d="M29 1049l301 256l207 -252l-146 -125l-104 127l-156 -131z" />
<glyph unicode="&#x2dc;" horiz-adv-x="753" d="M31 1024l295 252l102 -123l-295 -252zM330 1028l293 248l102 -123l-293 -250z" />
<glyph unicode="&#x2000;" horiz-adv-x="957" />
<glyph unicode="&#x2001;" horiz-adv-x="1915" />
<glyph unicode="&#x2002;" horiz-adv-x="957" />
<glyph unicode="&#x2003;" horiz-adv-x="1915" />
<glyph unicode="&#x2004;" horiz-adv-x="638" />
<glyph unicode="&#x2005;" horiz-adv-x="478" />
<glyph unicode="&#x2006;" horiz-adv-x="319" />
<glyph unicode="&#x2007;" horiz-adv-x="319" />
<glyph unicode="&#x2008;" horiz-adv-x="239" />
<glyph unicode="&#x2009;" horiz-adv-x="383" />
<glyph unicode="&#x200a;" horiz-adv-x="106" />
<glyph unicode="&#x2010;" horiz-adv-x="403" d="M25 414l32 176h322l-31 -176h-323z" />
<glyph unicode="&#x2011;" horiz-adv-x="403" d="M25 414l32 176h322l-31 -176h-323z" />
<glyph unicode="&#x2012;" horiz-adv-x="403" d="M25 414l32 176h322l-31 -176h-323z" />
<glyph unicode="&#x2013;" horiz-adv-x="440" d="M25 412l32 176h357l-31 -176h-358z" />
<glyph unicode="&#x2014;" horiz-adv-x="1110" d="M25 416l32 176h1028l-30 -176h-1030z" />
<glyph unicode="&#x2018;" horiz-adv-x="212" d="M14 958l54 308l108 -131l-33 -177h-129z" />
<glyph unicode="&#x2019;" horiz-adv-x="212" d="M37 1098l31 176h131l-56 -307z" />
<glyph unicode="&#x201c;" horiz-adv-x="385" d="M14 958l54 308l108 -131l-33 -177h-129zM186 958l54 308l108 -131l-31 -177h-131z" />
<glyph unicode="&#x201d;" horiz-adv-x="385" d="M37 1098l31 176h131l-56 -307zM209 1098l31 176h131l-54 -307z" />
<glyph unicode="&#x2022;" horiz-adv-x="473" d="M6 346l70 391h391l-70 -391h-391z" />
<glyph unicode="&#x2026;" horiz-adv-x="544" d="M25 0l32 176h131l-30 -176h-133zM190 0l31 176h133l-30 -176h-134zM356 0l31 176h133l-31 -176h-133z" />
<glyph unicode="&#x202f;" horiz-adv-x="383" />
<glyph unicode="&#x205f;" horiz-adv-x="478" />
<glyph unicode="&#x20ac;" horiz-adv-x="1038" d="M27 492l43 73h96q2 18 12 74q9 40 19 76h-121l43 73h100q36 107 86 193t119 153t161.5 103.5t202.5 36.5q100 0 174 -24t111 -60l-20 -94q-86 96 -273 96q-88 0 -164 -31.5t-132.5 -88t-97.5 -127.5t-67 -157h574l-43 -73h-555q-3 -11 -10 -40t-9 -36q-8 -39 -12 -74h498 l-43 -73h-461q-22 -198 52.5 -304t234.5 -106q173 0 313 96l-20 -94q-50 -35 -135 -59.5t-187 -24.5q-406 0 -358 492h-131z" />
<glyph unicode="&#x2122;" horiz-adv-x="1087" d="M70 1227l18 102h365l-19 -102h-133l-76 -439h-102l76 439h-129zM412 788l94 541h252l39 -45l53 45h149l80 -96l-80 -445h-102l72 404l-29 35h-66l-43 -37l-71 -402h-103l72 402l-31 37h-108l-76 -439h-102z" />
<glyph unicode="&#x25fc;" horiz-adv-x="1054" d="M0 0v1055h1055v-1055h-1055z" />
</font>
</defs>
</svg>
