<?xml version="1.0" standalone="no"?>
<!DOCTYPE svg PUBLIC "-//W3C//DTD SVG 1.1//EN" "http://www.w3.org/Graphics/SVG/1.1/DTD/svg11.dtd" >
<svg xmlns="http://www.w3.org/2000/svg" xmlns:xlink="http://www.w3.org/1999/xlink" version="1.1">
<metadata></metadata>
<defs>
<font id="tremble_bolditalic" horiz-adv-x="1024" >
<font-face units-per-em="2048" ascent="1579" descent="-469" />
<missing-glyph horiz-adv-x="512" />
<glyph horiz-adv-x="0" />
<glyph horiz-adv-x="682" />
<glyph unicode=" "  horiz-adv-x="512" />
<glyph unicode="&#x09;" horiz-adv-x="512" />
<glyph unicode="&#xa0;" horiz-adv-x="512" />
<glyph unicode="!" horiz-adv-x="339" d="M-72 0l37 213h260l-37 -213h-260zM-27 258l181 1016h258l-179 -1016h-260z" />
<glyph unicode="&#x22;" horiz-adv-x="561" d="M39 1114l41 232h217l-80 -449zM303 1114l41 232h215l-78 -449z" />
<glyph unicode="#" horiz-adv-x="1216" d="M0 399l45 260h195l20 52h-205l45 260h252l109 305l262 -2l-109 -303h168l107 303l264 2l-109 -305h191l-45 -260h-236l-18 -52h244l-45 -260h-291l-139 -399h-263l140 399h-170l-142 -399h-262l142 399h-150zM504 659h168l18 52h-168z" />
<glyph unicode="$" horiz-adv-x="1026" d="M-72 0l62 340h258l-15 -84h91l47 266h-351l134 754h350l12 70h258l-12 -70h334l-60 -342h-260l17 84h-76l-41 -236h336l-140 -782h-335l-13 -74h-260l15 74h-351zM326 782h90l41 236h-90zM582 256h77l48 266h-78z" />
<glyph unicode="%" horiz-adv-x="1499" d="M59 743l95 531h530l-94 -531h-531zM252 907h203l37 203h-203zM270 0l682 1274h275l-680 -1274h-277zM815 0l94 530h531l-94 -530h-531zM1008 164h202l37 203h-203z" />
<glyph unicode="&#x26;" horiz-adv-x="1140" d="M-27 254l58 326l80 67l-52 62l60 348l256 219h440l166 -203l-51 -297h180l-47 -258h-178l-47 -260h194l-45 -258h-807zM252 360l80 -102h246l47 260h-301l-54 -45zM336 817l35 -41h299l32 189l-40 53h-226l-76 -68z" />
<glyph unicode="'" horiz-adv-x="299" d="M39 1114l41 232h217l-80 -449z" />
<glyph unicode="(" horiz-adv-x="501" d="M-33 219l148 834l262 223h196l-45 -258h-90l-84 -72l-108 -618l57 -70h86l-45 -258h-194z" />
<glyph unicode=")" horiz-adv-x="501" d="M-68 0l48 258h86l81 70l109 618l-59 72h-88l45 258h196l185 -223l-148 -834l-262 -219h-193z" />
<glyph unicode="*" horiz-adv-x="679" d="M23 889l67 59h-65l32 191h68l-41 47l160 135l39 -49l12 74h190l-12 -74l53 45l111 -135l-53 -43h71l-32 -191h-72l47 -59l-158 -133l-47 57l-12 -70h-191l13 70l-70 -57z" />
<glyph unicode="+" horiz-adv-x="694" d="M16 373l45 258h179l32 188h258l-32 -188h178l-47 -258h-176l-31 -170h-258l29 170h-177z" />
<glyph unicode="," horiz-adv-x="299" d="M39 49l41 232h217l-80 -449z" />
<glyph unicode="-" horiz-adv-x="477" d="M18 373l45 258h396l-45 -258h-396z" />
<glyph unicode="." horiz-adv-x="294" d="M18 2l45 258h213l-45 -258h-213z" />
<glyph unicode="/" horiz-adv-x="575" d="M-72 -2l461 1280h258l-463 -1280h-256z" />
<glyph unicode="0" horiz-adv-x="1067" d="M-37 203l156 870l237 203h580l168 -203l-156 -870l-237 -203h-580zM242 309l41 -49h366l60 49l116 658l-41 49h-366l-60 -49z" />
<glyph unicode="1" horiz-adv-x="436" d="M23 0l180 1016h-94l45 258h354l-225 -1274h-260z" />
<glyph unicode="2" d="M-72 0l95 539l747 360l14 80l-30 39h-344l-52 -43l-12 -80h-260l33 184l231 197h553l160 -195l-62 -340l-747 -362l-21 -119h685l-48 -260h-942z" />
<glyph unicode="3" horiz-adv-x="1054" d="M-43 0l47 260h641l51 43l33 184l-33 39h-542l45 258h544l43 35l25 148l-41 49h-358l-142 -119l-151 182l231 197h574l166 -203l-64 -360l-70 -58l50 -59l-70 -401l-229 -195h-750z" />
<glyph unicode="4" horiz-adv-x="1075" d="M8 451l51 294l709 529h305l-137 -774h74l-47 -260h-72l-43 -238h-258l41 238h-449zM287 559l49 -59h340l84 471l-461 -342z" />
<glyph unicode="5" horiz-adv-x="1042" d="M-72 0l45 258l639 2l54 45l26 144l-41 49h-452l-150 182l105 596h804l129 -156l-217 -182l-65 78h-438l-41 -228l26 -30h453l164 -203l-64 -358l-231 -197h-746z" />
<glyph unicode="6" horiz-adv-x="1058" d="M-35 213l156 883l213 180h641l127 -154l-217 -182l-64 76h-426l-35 -29l-12 -74h471l176 -213l-86 -485l-250 -215h-516zM244 322l49 -62h305l70 62l49 272l-51 61l-306 -2l-67 -59z" />
<glyph unicode="7" horiz-adv-x="1021" d="M-35 0l80 451l729 479l17 86h-682l45 258h940l-82 -473l-731 -477l-56 -324h-260z" />
<glyph unicode="8" horiz-adv-x="1079" d="M-37 193l72 413l53 47l-27 35l68 389l236 199h573l162 -193l-68 -395l-43 -35l43 -51l-71 -409l-226 -193h-614zM240 299l34 -39h400l47 39l35 207l-15 16h-438l-27 -22zM340 795l8 -13l426 2l19 15l30 176l-37 41h-360l-55 -45z" />
<glyph unicode="9" d="M-10 170l215 184l78 -94h274l119 100l10 58h-467l-178 215l74 422l258 221h506l178 -221l-142 -803l-297 -252h-487zM317 739l54 -63h360l49 276l-53 66h-293l-78 -66z" />
<glyph unicode=":" horiz-adv-x="299" d="M-14 0l45 260h217l-45 -260h-217zM51 371l45 260h217l-45 -260h-217z" />
<glyph unicode=";" horiz-adv-x="299" d="M8 49l41 232h217l-80 -449zM68 371l45 258h217l-47 -258h-215z" />
<glyph unicode="&#x3c;" horiz-adv-x="669" d="M41 522l473 402l152 -183l-258 -219l182 -225l-217 -182z" />
<glyph unicode="=" horiz-adv-x="696" d="M-10 279l45 260h614q-44 -256 -45 -260h-614zM47 602l45 258h615q-42 -240 -45 -258h-615z" />
<glyph unicode="&#x3e;" horiz-adv-x="669" d="M2 297l262 225l-182 219l217 183l330 -402l-475 -407z" />
<glyph unicode="?" horiz-adv-x="972" d="M-72 0l47 256h261l-46 -256h-262zM-12 319l43 254l243 207h373l62 51l30 181l-633 2l48 260l890 2l-96 -551l-239 -205h-371l-66 -55l-26 -146h-258z" />
<glyph unicode="@" horiz-adv-x="1189" d="M-78 -74l170 961l459 389h512l168 -205l-156 -883l-219 -188h-399l-150 184l101 566l227 194h315l13 74h-363l-266 -230l-154 -862h-258zM586 291l24 -31h183l43 37l69 387h-209l-49 -41z" />
<glyph unicode="A" horiz-adv-x="1021" d="M-72 0l226 1276h940l-224 -1274h-260l76 428h-424l-74 -430h-260zM309 688h422l60 330h-424z" />
<glyph unicode="B" d="M-72 0l226 1276h737l168 -205l-49 -289l-162 -137l113 -139l-52 -291l-254 -215h-727zM233 260h361l76 64l22 135l-49 57h-364zM324 774h358l78 66l22 125l-45 51h-370z" />
<glyph unicode="C" horiz-adv-x="1021" d="M-33 215l146 825l274 236h707l-45 -260h-600l-97 -82l-108 -610l53 -64h618l-45 -260h-727z" />
<glyph unicode="D" horiz-adv-x="1021" d="M-72 0l226 1276h675l220 -262l-131 -746l-314 -268h-676zM233 260h308l135 115l94 530l-92 111h-311z" />
<glyph unicode="E" d="M-72 0l226 1276h942l-45 -260h-684l-41 -238h596l-45 -260h-598l-46 -258h682l-45 -260h-942z" />
<glyph unicode="F" d="M-72 0l226 1276h942l-47 -258h-682l-43 -242h641l-45 -260h-641l-93 -516h-258z" />
<glyph unicode="G" horiz-adv-x="1026" d="M-72 0l226 1276h942l-45 -260h-684l-134 -756h424l43 244l-18 22h-244l45 260h351l145 -176l-107 -610h-944z" />
<glyph unicode="H" d="M-72 0l226 1276h258l-88 -502h426l88 502h258l-226 -1276h-258l90 514h-423l-93 -514h-258z" />
<glyph unicode="I" horiz-adv-x="339" d="M-72 0l226 1276h258l-226 -1276h-258z" />
<glyph unicode="J" horiz-adv-x="1044" d="M-70 0l45 260h246l74 62l123 696l-309 -2l45 260h774l153 -189l-215 -182l-92 113h-98l-141 -803l-252 -215h-353z" />
<glyph unicode="K" d="M-72 0l226 1276h258l-88 -510h143l334 311l35 199h260l-54 -299l-366 -340l248 -336l-54 -301h-258l35 201l-225 307h-146l-90 -508h-258z" />
<glyph unicode="L" horiz-adv-x="980" d="M-37 190l191 1086h258l-172 -977l34 -41h600l-47 -258h-706z" />
<glyph unicode="M" horiz-adv-x="1331" d="M-72 0l189 1073l243 203h336l68 -78l94 80l338 -2l170 -203l-188 -1073h-258l170 965l-46 53h-124l-68 -55l-168 -963h-260l170 963l-47 55h-125l-64 -53l-170 -965h-260z" />
<glyph unicode="N" d="M-72 0l226 1276h309l233 -795l142 795h258l-226 -1276h-311l-231 791l-142 -791h-258z" />
<glyph unicode="O" d="M-72 0l226 1276h942l-226 -1276h-942zM233 260h424l134 756h-424z" />
<glyph unicode="P" d="M-72 0l178 1008l316 268h674l-152 -858h-682l-76 -418h-258zM307 676h424l60 342h-306l-139 -117z" />
<glyph unicode="Q" horiz-adv-x="1021" d="M-41 0l225 1276h940l-225 -1276h-344l-6 -37l33 -41h125l-48 -260h-229l-158 195l25 143h-338zM262 258h424l133 760h-422z" />
<glyph unicode="R" d="M-72 -2l193 1092l219 186h756l-111 -625l-106 -92l75 -90l-84 -471h-258l64 360l-58 72h-354l-76 -432h-260zM309 690l355 -2l81 68l46 262h-390l-41 -35z" />
<glyph unicode="S" d="M-72 0l62 342h258l-15 -82h424l48 266h-682l133 750h940l-60 -342h-260l15 82h-422l-41 -232h682l-140 -784h-942z" />
<glyph unicode="T" horiz-adv-x="905" d="M109 1018l45 258h823l-45 -258h-287l-180 -1018h-258l180 1018h-278z" />
<glyph unicode="U" d="M-27 260l181 1016h258l-160 -907l90 -111h205l129 111l160 907h258l-179 -1016l-307 -260h-420z" />
<glyph unicode="V" d="M25 545l129 731h258l-115 -655l160 -328l264 330l117 653h258l-129 -733l-447 -543h-223z" />
<glyph unicode="W" horiz-adv-x="1560" d="M27 559l127 717h258l-115 -653l115 -314l235 316l115 651l260 2l-115 -655l113 -314l237 316l115 651h260l-129 -719l-418 -557h-245l-119 326l-244 -326h-248z" />
<glyph unicode="X" d="M-72 0l86 489l277 173l-215 178l78 436h258l-52 -301l187 -158l235 158l54 301h258l-76 -436l-285 -178l223 -170l-86 -492h-258l62 352l-182 150l-242 -150l-64 -352h-258z" />
<glyph unicode="Y" horiz-adv-x="1019" d="M61 754l93 522h258l-72 -416l70 -86h249l101 86l74 416h258l-93 -522l-276 -238h-113l-92 -518h-260l92 516h-94z" />
<glyph unicode="Z" horiz-adv-x="1026" d="M-70 0l76 432l774 584h-413l-15 -82h-260l62 342h942l-66 -371l-786 -592l-11 -53h426l15 82h260l-62 -342h-942z" />
<glyph unicode="[" horiz-adv-x="534" d="M-72 0l226 1276h448l-45 -260h-190l-134 -756h193l-45 -260h-453z" />
<glyph unicode="\" horiz-adv-x="581" d="M154 1276h262l12 -1278l-264 2z" />
<glyph unicode="]" horiz-adv-x="534" d="M-72 0l45 260h195l133 756h-190l47 260h448l-225 -1276h-453z" />
<glyph unicode="^" horiz-adv-x="694" d="M29 1059l362 309l250 -307l-215 -182l-98 122l-146 -124z" />
<glyph unicode="_" horiz-adv-x="696" d="M18 -258l45 258h615l-45 -258h-615z" />
<glyph unicode="`" horiz-adv-x="569" d="M51 1151l215 184l252 -305l-215 -184z" />
<glyph unicode="a" horiz-adv-x="1013" d="M-51 0l114 657h674l25 136h-426l-12 -74h-248l57 332h934l-186 -1051h-932zM244 258h424l24 141h-422z" />
<glyph unicode="b" d="M-72 0l226 1274h258l-39 -223h684l-146 -809l-284 -242h-699zM233 256h332l107 92l78 443h-422z" />
<glyph unicode="c" horiz-adv-x="1021" d="M-51 0l143 811l281 240h702l-61 -344h-260l14 84h-332l-104 -91l-78 -440h682l-47 -260h-940z" />
<glyph unicode="d" horiz-adv-x="1021" d="M-72 0l187 1051h680l41 225h258l-183 -1036l-282 -240h-701zM233 258h334l105 90l78 443h-422z" />
<glyph unicode="e" d="M-51 0l184 1051h942l-88 -506l-229 -195h-490l-14 -90h612l-45 -260h-872zM313 598h381l51 43l27 152h-426z" />
<glyph unicode="f" horiz-adv-x="933" d="M-80 -319l205 1157l248 213h641l-45 -258h-529l-75 -64l-23 -125h440l-45 -260h-440l-119 -663h-258z" />
<glyph unicode="g" d="M20 233l144 818h942l-207 -1170l-262 -223h-539l45 258h461l49 43l9 41h-449zM299 344l68 -82h342l94 529l-426 2z" />
<glyph unicode="h" d="M-72 0l226 1276h258l-39 -225h473l174 -211l-150 -840h-258l129 733l-47 60h-366l-140 -793h-260z" />
<glyph unicode="i" horiz-adv-x="342" d="M-72 0l172 979h260l-172 -979h-260zM109 1018l45 258h260l-45 -258h-260z" />
<glyph unicode="j" horiz-adv-x="534" d="M-98 -311l45 258h174l22 20l181 1012h258l-197 -1120l-201 -170h-282zM328 1018l45 258h262l-47 -258h-260z" />
<glyph unicode="k" horiz-adv-x="950" d="M-72 0l226 1276h258l-90 -520h71l373 295h178l-33 -187l-288 -231l245 -227l-71 -406h-258l49 281l-234 215h-80l-88 -496h-258z" />
<glyph unicode="l" horiz-adv-x="339" d="M-72 0l226 1276h258l-226 -1276h-258z" />
<glyph unicode="m" horiz-adv-x="1331" d="M-51 0l149 848l242 203h338l67 -78l93 78h338l172 -203l-150 -848h-260l131 739l-45 54h-125l-65 -56l-132 -737h-258l129 737l-47 56h-125l-63 -54l-131 -739h-258z" />
<glyph unicode="n" horiz-adv-x="1021" d="M-51 0l184 1051h690l207 -250l-141 -801h-258l121 692l-82 101h-324l-139 -793h-258z" />
<glyph unicode="o" d="M-51 0l184 1051h944l-186 -1051h-942zM254 260h424l94 533h-426z" />
<glyph unicode="p" d="M-80 -317l242 1368h719l182 -228l-145 -823h-682l-56 -317h-260zM281 260h424l81 457l-61 74l-350 -3z" />
<glyph unicode="q" d="M-25 0l146 823l266 228h717l-242 -1368h-258l55 317h-684zM279 260h426l94 528l-350 3l-89 -74z" />
<glyph unicode="r" horiz-adv-x="860" d="M-51 0l149 856l232 195h581l-59 -342h-260l14 84h-215l-51 -45l-133 -748h-258z" />
<glyph unicode="s" d="M-51 0l57 334h260l-14 -86h424l24 141h-684l117 662h942l-57 -332h-260l14 84h-424l-26 -154h684l-115 -649h-942z" />
<glyph unicode="t" horiz-adv-x="765" d="M-29 246l183 1030h258l-39 -225h340l-47 -258h-338l-78 -439l76 -94h331l-45 -260h-440z" />
<glyph unicode="u" d="M-6 262l139 789h260l-121 -682l90 -109h207l127 109l121 682h260l-139 -789l-307 -262h-422z" />
<glyph unicode="v" d="M57 625l76 426h260l-63 -359l151 -383l273 385l63 357h260l-76 -428l-454 -623h-244z" />
<glyph unicode="w" horiz-adv-x="1560" d="M47 559l86 492h260l-76 -426l113 -314l238 316l73 424h260l-73 -426l112 -314l238 316l74 424h260l-88 -494l-418 -557h-248l-117 326l-245 -326h-248z" />
<glyph unicode="x" d="M-51 0l71 406l291 167l-229 179l51 299h260l-28 -162l186 -158l237 156l29 164h258l-51 -297l-272 -181l211 -170l-72 -403h-260l47 266l-182 150l-242 -152l-47 -264h-258z" />
<glyph unicode="y" d="M2 141l160 910h258l-113 -648h424l115 648h258l-199 -1129l-284 -241h-553l45 258h446l107 90l18 112h-682z" />
<glyph unicode="z" d="M-51 0l78 432l704 361h-385l-14 -84h-258l59 342h942l-67 -383l-750 -383l-4 -27h422l16 88h258l-59 -346h-942z" />
<glyph unicode="{" horiz-adv-x="565" d="M18 508l45 260h64l51 285l262 223h197l-47 -258h-88l-84 -72l-109 -618l58 -70h86l-47 -258h-193l-182 219l51 289h-64z" />
<glyph unicode="|" horiz-adv-x="339" d="M-72 0l226 1276h258l-224 -1276h-260z" />
<glyph unicode="}" horiz-adv-x="565" d="M-68 0l48 258h86l81 70l109 618l-59 72h-88l45 258h196l185 -223l-52 -285h64l-45 -260h-64l-51 -289l-262 -219h-193z" />
<glyph unicode="~" horiz-adv-x="835" d="M35 1063l346 293l115 -139l159 135l150 -183l-375 -319l-115 139l-131 -110z" />
<glyph unicode="&#xa1;" horiz-adv-x="339" d="M-72 -2l181 1018h258l-179 -1018h-260zM117 1061l37 213h258l-37 -213h-258z" />
<glyph unicode="&#xa2;" horiz-adv-x="1064" d="M-51 0l141 809l285 242h160l12 73h260l-14 -73h323l-61 -346l-256 2l14 84h-65l-95 -533h324l-45 -258h-324l-14 -74h-258l12 74h-399zM254 258h141l92 533h-51l-104 -91z" />
<glyph unicode="&#xa3;" horiz-adv-x="1163" d="M-47 143l37 207h260l-17 -92h152l47 262h-153l47 258h151l51 289l246 209h459l-45 -260h-352l-68 -55l-31 -183h291l-45 -258h-293l-45 -262h410l-45 -258h-940z" />
<glyph unicode="&#xa5;" horiz-adv-x="950" d="M61 754l93 522h258l-72 -416l70 -86h180l100 86l74 414h258l-92 -520l-277 -238h-69l-15 -74h146l-27 -155h-145l-8 -54h143l-27 -155h-145l-14 -78h-259l15 78h-148l27 155h147l11 54h-148l27 155h147l13 74h-68z" />
<glyph unicode="&#xa8;" horiz-adv-x="569" d="M18 1018l45 258h216l-46 -258h-215zM291 1018l45 258h215l-45 -258h-215z" />
<glyph unicode="&#xa9;" horiz-adv-x="950" d="M-41 336l164 940h868l-164 -940h-868zM102 459h623l123 694h-623zM135 492l111 632h571l-20 -123h-449l-67 -387h446l-20 -122h-572z" />
<glyph unicode="&#xab;" horiz-adv-x="1161" d="M41 500l496 422l151 -183l-280 -239l190 -232l-215 -182zM516 500l496 422l151 -183l-280 -239l190 -232l-215 -182z" />
<glyph unicode="&#xad;" horiz-adv-x="477" d="M18 373l45 258h396l-45 -258h-396z" />
<glyph unicode="&#xae;" horiz-adv-x="950" d="M-41 338l164 938h868l-164 -938h-868zM102 461h623l123 692h-623zM141 489l97 547l106 92h463l-57 -325l-54 -45l39 -47l-39 -222h-123l31 170l-31 37h-272l-37 -207h-123zM322 819h274l39 33l27 154h-289l-23 -21z" />
<glyph unicode="&#xaf;" horiz-adv-x="493" d="M18 1087l45 259h412l-45 -259h-412z" />
<glyph unicode="&#xb0;" horiz-adv-x="612" d="M-6 815l94 531h530l-94 -531h-530zM186 979h203l37 203h-203z" />
<glyph unicode="&#xb4;" horiz-adv-x="567" d="M31 1036l354 301l152 -184l-355 -301z" />
<glyph unicode="&#xb6;" horiz-adv-x="1191" d="M23 371l114 649l301 256h600l209 -254l-237 -1341h-260l122 690h-149l-121 -690h-258l121 690h-442zM328 629h182l70 387h-78l-125 -105zM770 629h148l51 293l-80 96h-51z" />
<glyph unicode="&#xb8;" horiz-adv-x="536" d="M20 -356l236 356h281l-304 -469z" />
<glyph unicode="&#xbb;" horiz-adv-x="1161" d="M6 268l273 232l-197 239l215 183l348 -422l-489 -414zM481 268l273 232l-197 239l215 183l348 -422l-489 -414z" />
<glyph unicode="&#xbf;" horiz-adv-x="972" d="M-72 0l99 551l239 205h369l67 55l25 145h260l-45 -254l-244 -206h-370l-62 -52l-33 -180l633 -2l-47 -260zM739 1020l45 256h260l-45 -256h-260z" />
<glyph unicode="&#xc0;" horiz-adv-x="1021" d="M-72 0l226 1276h940l-224 -1274h-260l76 428h-424l-74 -430h-260zM309 688h422l60 330h-424zM362 1645l218 182l249 -305l-215 -183z" />
<glyph unicode="&#xc1;" horiz-adv-x="1021" d="M-72 0l226 1276h940l-224 -1274h-260l76 428h-424l-74 -430h-260zM309 688h422l60 330h-424zM365 1511l354 304l149 -185l-354 -301z" />
<glyph unicode="&#xc2;" horiz-adv-x="1021" d="M-72 0l226 1276h940l-224 -1274h-260l76 428h-424l-74 -430h-260zM309 688h422l60 330h-424zM324 1528l360 305l248 -301l-215 -182l-99 116l-143 -120z" />
<glyph unicode="&#xc3;" horiz-adv-x="1021" d="M-72 0l226 1276h940l-224 -1274h-260l76 428h-424l-74 -430h-260zM270 1546l348 293l113 -139l160 135l151 -182l-374 -320l-115 140l-133 -111zM309 688h422l60 330h-424z" />
<glyph unicode="&#xc4;" horiz-adv-x="1021" d="M-72 0l226 1276h940l-224 -1274h-260l76 428h-424l-74 -430h-260zM309 688h422l60 330h-424zM365 1348l45 258h215l-45 -258h-215zM637 1348l47 258h213l-45 -258h-215z" />
<glyph unicode="&#xc5;" horiz-adv-x="1021" d="M-72 0l226 1276h940l-224 -1274h-260l76 428h-424l-74 -430h-260zM309 688h422l60 330h-424zM330 1346l100 569h506l-100 -569h-506zM537 1522h155l37 217h-154z" />
<glyph unicode="&#xc6;" horiz-adv-x="1599" d="M-72 0l185 1044l274 232h1282l-45 -258h-586l-45 -246h502l-45 -260h-500l-45 -252h586l-45 -260h-848l92 512h-411l-91 -512h-260zM324 772h411l29 166l-68 78h-247l-97 -78z" />
<glyph unicode="&#xc7;" horiz-adv-x="1021" d="M-33 215l146 825l274 236h707l-45 -260h-600l-97 -82l-108 -610l53 -64h618l-45 -260h-727zM115 -356l235 356h283l-305 -469z" />
<glyph unicode="&#xc8;" d="M-72 0l226 1276h942l-45 -260h-684l-41 -238h596l-45 -260h-598l-46 -258h682l-45 -260h-942zM362 1642l218 183l249 -305l-215 -183z" />
<glyph unicode="&#xc9;" d="M-72 0l226 1276h942l-45 -260h-684l-41 -238h596l-45 -260h-598l-46 -258h682l-45 -260h-942zM401 1524l355 303l149 -185l-354 -301z" />
<glyph unicode="&#xca;" d="M-72 0l226 1276h942l-45 -260h-684l-41 -238h596l-45 -260h-598l-46 -258h682l-45 -260h-942zM328 1524l360 305l248 -301l-217 -182l-96 116l-144 -121z" />
<glyph unicode="&#xcb;" d="M-72 0l226 1276h942l-45 -260h-684l-41 -238h596l-45 -260h-598l-46 -258h682l-45 -260h-942zM362 1348l46 258h215l-45 -258h-216zM635 1348l47 258h213l-45 -258h-215z" />
<glyph unicode="&#xcc;" horiz-adv-x="569" d="M25 0l225 1276h260l-225 -1276h-260zM170 1645l215 182l252 -305l-215 -183z" />
<glyph unicode="&#xcd;" horiz-adv-x="567" d="M78 0l225 1276h260l-225 -1276h-260zM147 1513l355 304l151 -185l-354 -301z" />
<glyph unicode="&#xce;" horiz-adv-x="688" d="M104 0l226 1276h260l-225 -1276h-261zM147 1520l361 305l248 -301l-217 -183l-97 117l-143 -121z" />
<glyph unicode="&#xcf;" horiz-adv-x="569" d="M43 0l225 1276h260l-225 -1276h-260zM137 1348l45 258h215l-45 -258h-215zM410 1348l45 258h215l-45 -258h-215z" />
<glyph unicode="&#xd1;" d="M-72 0l226 1276h309l233 -795l142 795h258l-226 -1276h-311l-231 791l-142 -791h-258zM270 1550l348 293l115 -139l158 135l151 -182l-374 -320l-115 140l-133 -111z" />
<glyph unicode="&#xd2;" d="M-72 0l226 1276h942l-226 -1276h-942zM233 260h424l134 756h-424zM362 1645l218 182l249 -305l-215 -183z" />
<glyph unicode="&#xd3;" d="M-72 0l226 1276h942l-226 -1276h-942zM233 260h424l134 756h-424zM365 1524l354 303l151 -185l-354 -301z" />
<glyph unicode="&#xd4;" d="M-72 0l226 1276h942l-226 -1276h-942zM233 260h424l134 756h-424zM295 1526l358 305l248 -301l-215 -182l-96 116l-146 -121z" />
<glyph unicode="&#xd5;" d="M-72 0l226 1276h942l-226 -1276h-942zM233 260h424l134 756h-424zM270 1552l348 293l115 -139l158 135l151 -182l-374 -320l-115 140l-133 -111z" />
<glyph unicode="&#xd6;" d="M-72 0l226 1276h942l-226 -1276h-942zM233 260h424l134 756h-424zM375 1348l45 258h215l-45 -258h-215zM647 1348l47 258h213l-45 -258h-215z" />
<glyph unicode="&#xd7;" horiz-adv-x="704" d="M25 403l141 119l-105 125l218 184l102 -124l156 131l149 -183l-154 -133l103 -125l-215 -182l-105 125l-139 -119z" />
<glyph unicode="&#xd8;" d="M-72 0l226 1276h942l-226 -1276h-942zM233 260h17l274 756h-157zM508 260h149l134 756h-7z" />
<glyph unicode="&#xd9;" d="M-27 260l181 1016h258l-160 -907l90 -111h205l129 111l160 907h258l-179 -1016l-307 -260h-420zM362 1642l218 183l249 -305l-215 -183z" />
<glyph unicode="&#xda;" d="M-27 260l181 1016h258l-160 -907l90 -111h205l129 111l160 907h258l-179 -1016l-307 -260h-420zM365 1524l354 303l151 -185l-354 -301z" />
<glyph unicode="&#xdb;" d="M-27 260l181 1016h258l-160 -907l90 -111h205l129 111l160 907h258l-179 -1016l-307 -260h-420zM299 1518l360 305l246 -301l-215 -183l-96 117l-143 -121z" />
<glyph unicode="&#xdc;" d="M-27 260l181 1016h258l-160 -907l90 -111h205l129 111l160 907h258l-179 -1016l-307 -260h-420zM365 1348l45 258h215l-45 -258h-215zM637 1348l47 258h213l-45 -258h-215z" />
<glyph unicode="&#xdd;" horiz-adv-x="1019" d="M61 754l93 522h258l-72 -416l70 -86h249l101 86l74 416h258l-93 -522l-276 -238h-113l-92 -518h-260l92 516h-94zM403 1520l357 303l149 -185l-354 -301z" />
<glyph unicode="&#xdf;" horiz-adv-x="946" d="M-86 -170l254 1446h674l157 -191l-57 -327l-74 -62l45 -55l-73 -418l-260 -223h-310l47 258h199l84 74l37 203l-27 32h-239l45 258h237l47 39l21 113l-33 39h-307l-209 -1186h-258z" />
<glyph unicode="&#xe0;" horiz-adv-x="1013" d="M-51 0l114 657h674l25 136h-426l-12 -74h-248l57 332h934l-186 -1051h-932zM244 258h424l24 141h-422zM362 1427l216 183l251 -305l-215 -183z" />
<glyph unicode="&#xe1;" horiz-adv-x="1013" d="M-51 0l114 657h674l25 136h-426l-12 -74h-248l57 332h934l-186 -1051h-932zM244 258h424l24 141h-422zM344 1298l356 304l150 -185l-354 -301z" />
<glyph unicode="&#xe2;" horiz-adv-x="1013" d="M-51 0l114 657h674l25 136h-426l-12 -74h-248l57 332h934l-186 -1051h-932zM244 258h424l24 141h-422zM295 1292l360 305l246 -301l-215 -182l-96 117l-144 -121z" />
<glyph unicode="&#xe3;" horiz-adv-x="1013" d="M-51 0l114 657h674l25 136h-426l-12 -74h-248l57 332h934l-186 -1051h-932zM244 258h424l24 141h-422zM252 1335l348 293l113 -139l159 135l152 -182l-375 -320l-114 140l-134 -111z" />
<glyph unicode="&#xe4;" horiz-adv-x="1013" d="M-51 0l114 657h674l25 136h-426l-12 -74h-248l57 332h934l-186 -1051h-932zM244 258h424l24 141h-422zM334 1124l45 258h215l-47 -258h-213zM606 1124l45 258h215l-45 -258h-215z" />
<glyph unicode="&#xe5;" horiz-adv-x="1013" d="M-51 0l114 657h674l25 136h-426l-12 -74h-248l57 332h934l-186 -1051h-932zM244 258h424l24 141h-422zM289 1124l100 570h508l-100 -570h-508zM496 1300h155l37 218h-153z" />
<glyph unicode="&#xe6;" horiz-adv-x="1585" d="M-51 0l121 684h596l18 109h-338l-10 -64h-258l55 322h1503l-98 -559l-229 -195h-453l-6 -39h557l-47 -258h-1411zM256 260l334 2l28 162l-333 2zM901 557h346l49 41l35 195h-387z" />
<glyph unicode="&#xe7;" horiz-adv-x="1021" d="M-51 0l143 811l281 240h702l-61 -344h-260l14 84h-332l-104 -91l-78 -440h682l-47 -260h-940zM129 -356l236 356h282l-305 -469z" />
<glyph unicode="&#xe8;" d="M-51 0l184 1051h942l-88 -506l-231 -195h-488l-14 -90h612l-45 -260h-872zM313 598h381l51 43l27 152h-426zM365 1421l215 183l251 -306l-217 -182z" />
<glyph unicode="&#xe9;" d="M-51 0l184 1051h942l-88 -506l-231 -195h-488l-14 -90h612l-45 -260h-872zM313 598h381l51 43l27 152h-426zM344 1298l356 304l150 -185l-354 -301z" />
<glyph unicode="&#xea;" d="M-51 0l184 1051h942l-88 -506l-231 -195h-488l-14 -90h612l-45 -260h-872zM295 1296l360 306l248 -302l-217 -182l-96 117l-144 -121zM313 598h381l51 43l27 152h-426z" />
<glyph unicode="&#xeb;" d="M-51 0l184 1051h942l-88 -506l-231 -195h-488l-14 -90h612l-45 -260h-872zM313 598h381l51 43l27 152h-426zM346 1124l45 258h215l-47 -258h-213zM618 1124l46 258h215l-45 -258h-216z" />
<glyph unicode="&#xec;" horiz-adv-x="569" d="M55 0l185 1051h260l-187 -1051h-258zM150 1417l215 182l251 -305l-215 -182z" />
<glyph unicode="&#xed;" horiz-adv-x="567" d="M76 0l186 1051h258l-184 -1051h-260zM129 1296l354 303l152 -184l-354 -301z" />
<glyph unicode="&#xee;" horiz-adv-x="688" d="M125 0l184 1051h260l-186 -1051h-258zM129 1303l358 305l248 -299l-215 -185l-96 119l-143 -123z" />
<glyph unicode="&#xef;" horiz-adv-x="569" d="M68 0l186 1051h258l-184 -1051h-260zM117 1124l47 258h213l-45 -258h-215zM389 1124l47 258h215l-47 -258h-215z" />
<glyph unicode="&#xf1;" horiz-adv-x="1021" d="M-51 0l184 1051h690l207 -250l-141 -801h-258l121 692l-82 101h-324l-139 -793h-258zM213 1329l348 293l113 -139l160 135l151 -182l-375 -320l-114 139l-134 -110z" />
<glyph unicode="&#xf2;" d="M-51 0l184 1051h944l-186 -1051h-942zM254 260h424l94 533h-426zM430 1427l215 183l252 -305l-215 -183z" />
<glyph unicode="&#xf3;" d="M-51 0l184 1051h944l-186 -1051h-942zM254 260h424l94 533h-426zM391 1298l354 304l152 -185l-354 -301z" />
<glyph unicode="&#xf4;" d="M-51 0l184 1051h944l-186 -1051h-942zM254 260h424l94 533h-426zM295 1300l360 306l248 -301l-215 -183l-98 117l-144 -121z" />
<glyph unicode="&#xf5;" d="M-51 0l184 1051h944l-186 -1051h-942zM252 1331l346 293l115 -139l159 135l152 -182l-375 -320l-114 139l-134 -110zM254 260h424l94 533h-426z" />
<glyph unicode="&#xf6;" d="M-51 0l184 1051h944l-186 -1051h-942zM254 260h424l94 533h-426zM354 1124l45 258h215l-47 -258h-213zM627 1124l45 258h215l-45 -258h-215z" />
<glyph unicode="&#xf7;" horiz-adv-x="694" d="M18 373l45 258h613l-45 -258h-613zM178 96l37 215h193l-37 -215h-193zM285 696l37 215h192l-37 -215h-192z" />
<glyph unicode="&#xf8;" d="M-51 0l184 1051h944l-186 -1051h-942zM258 293l274 500h-186zM487 260h191l82 469z" />
<glyph unicode="&#xf9;" d="M-6 262l139 789h260l-121 -682l90 -109h207l127 109l121 682h260l-139 -789l-307 -262h-422zM367 1417l215 182l249 -305l-215 -182z" />
<glyph unicode="&#xfa;" d="M-6 262l139 789h260l-121 -682l90 -109h207l127 109l121 682h260l-139 -789l-307 -262h-422zM377 1284l354 303l152 -184l-355 -301z" />
<glyph unicode="&#xfb;" d="M-6 262l139 789h260l-121 -682l90 -109h207l127 109l121 682h260l-139 -789l-307 -262h-422zM295 1296l360 306l248 -302l-217 -182l-96 117l-144 -121z" />
<glyph unicode="&#xfc;" d="M-6 262l139 789h260l-121 -682l90 -109h207l127 109l121 682h260l-139 -789l-307 -262h-422zM338 1124l45 258h215l-47 -258h-213zM610 1124l45 258h215l-45 -258h-215z" />
<glyph unicode="&#xfd;" d="M2 141l160 910h258l-113 -648h424l115 648h258l-199 -1129l-284 -241h-553l45 258h446l107 90l18 112h-682zM403 1294l355 303l151 -184l-356 -301z" />
<glyph unicode="&#xff;" d="M2 141l160 910h258l-113 -648h424l115 648h258l-199 -1129l-284 -241h-553l45 258h446l107 90l18 112h-682zM373 1124l47 258h215l-47 -258h-215zM645 1124l47 258h215l-47 -258h-215z" />
<glyph unicode="&#x152;" horiz-adv-x="1531" d="M-72 0l226 1276h1448l-46 -260h-585l-41 -234h500l-46 -258h-499l-47 -266h587l-47 -258h-1450zM233 260h345l133 756h-344z" />
<glyph unicode="&#x153;" horiz-adv-x="1550" d="M-51 0l184 1051h1471l-91 -508l-227 -193h-442l-17 -90h547l-47 -260h-1378zM254 260h315l95 533h-318zM889 608h336l49 43l24 142h-376z" />
<glyph unicode="&#x178;" horiz-adv-x="1019" d="M61 754l93 522h258l-72 -416l70 -86h249l101 86l74 416h258l-93 -522l-276 -238h-113l-92 -518h-260l92 516h-94zM365 1348l47 258h213l-45 -258h-215zM637 1348l47 258h215l-47 -258h-215z" />
<glyph unicode="&#x2c6;" horiz-adv-x="688" d="M31 1053l358 305l248 -301l-215 -183l-96 117l-146 -123z" />
<glyph unicode="&#x2dc;" horiz-adv-x="1007" d="M31 1051l354 301l152 -185l-355 -301zM477 1053l350 299l152 -185l-352 -297z" />
<glyph unicode="&#x2000;" horiz-adv-x="957" />
<glyph unicode="&#x2001;" horiz-adv-x="1915" />
<glyph unicode="&#x2002;" horiz-adv-x="957" />
<glyph unicode="&#x2003;" horiz-adv-x="1915" />
<glyph unicode="&#x2004;" horiz-adv-x="638" />
<glyph unicode="&#x2005;" horiz-adv-x="478" />
<glyph unicode="&#x2006;" horiz-adv-x="319" />
<glyph unicode="&#x2007;" horiz-adv-x="319" />
<glyph unicode="&#x2008;" horiz-adv-x="239" />
<glyph unicode="&#x2009;" horiz-adv-x="383" />
<glyph unicode="&#x200a;" horiz-adv-x="106" />
<glyph unicode="&#x2010;" horiz-adv-x="477" d="M18 373l45 258h396l-45 -258h-396z" />
<glyph unicode="&#x2011;" horiz-adv-x="477" d="M18 373l45 258h396l-45 -258h-396z" />
<glyph unicode="&#x2012;" horiz-adv-x="477" d="M18 373l45 258h396l-45 -258h-396z" />
<glyph unicode="&#x2013;" horiz-adv-x="509" d="M18 371l45 258h429l-46 -258h-428z" />
<glyph unicode="&#x2014;" horiz-adv-x="1134" d="M18 375l45 258h1053l-47 -258h-1051z" />
<glyph unicode="&#x2018;" horiz-adv-x="299" d="M2 895l78 448l178 -217l-41 -231h-215z" />
<glyph unicode="&#x2019;" horiz-adv-x="299" d="M39 1114l41 232h217l-80 -449z" />
<glyph unicode="&#x201c;" horiz-adv-x="561" d="M2 889l78 448l178 -217l-41 -231h-215zM264 889l80 448l176 -217l-39 -231h-217z" />
<glyph unicode="&#x201d;" horiz-adv-x="561" d="M39 1114l41 232h217l-80 -449zM303 1114l41 232h215l-78 -449z" />
<glyph unicode="&#x2022;" horiz-adv-x="540" d="M0 311l82 461h459l-82 -461h-459z" />
<glyph unicode="&#x2026;" horiz-adv-x="890" d="M18 0l45 258h220l-47 -258h-218zM311 0l45 258h219l-45 -258h-219zM608 0l45 258h219l-47 -258h-217z" />
<glyph unicode="&#x202f;" horiz-adv-x="383" />
<glyph unicode="&#x205f;" horiz-adv-x="478" />
<glyph unicode="&#x20ac;" horiz-adv-x="1067" d="M35 506l33 55h102q3 25 12 78q2 10 21 82h-123l33 53h106q35 110 85.5 198t121 158t166 108t209.5 38q105 0 180.5 -26.5t114.5 -65.5l-15 -72q-98 105 -288 105q-96 0 -179 -35.5t-144.5 -98t-106 -140t-72.5 -169.5h614l-33 -53h-600q-3 -12 -10 -41.5t-10 -40.5 q-3 -16 -7.5 -42.5t-6.5 -35.5h540l-33 -55h-512q-22 -215 59 -331t255 -116q185 0 334 107l-17 -74q-56 -38 -144 -65t-192 -27q-415 0 -364 506h-129z" />
<glyph unicode="&#x2122;" horiz-adv-x="1150" d="M70 1153l20 123h385l-20 -123h-133l-78 -436h-123l78 436h-129zM453 717l98 559h266l35 -41l49 41h158l84 -100l-82 -459h-123l72 407l-23 29h-57l-35 -31l-72 -405h-123l72 405l-27 31h-94l-76 -436h-122z" />
<glyph unicode="&#x25fc;" horiz-adv-x="1054" d="M0 0v1055h1055v-1055h-1055z" />
</font>
</defs>
</svg>
