<?xml version="1.0" standalone="no"?>
<!DOCTYPE svg PUBLIC "-//W3C//DTD SVG 1.1//EN" "http://www.w3.org/Graphics/SVG/1.1/DTD/svg11.dtd" >
<svg xmlns="http://www.w3.org/2000/svg" xmlns:xlink="http://www.w3.org/1999/xlink" version="1.1">
<metadata></metadata>
<defs>
<font id="trembleregular" horiz-adv-x="993" >
<font-face units-per-em="2048" ascent="1638" descent="-410" />
<missing-glyph horiz-adv-x="512" />
<glyph horiz-adv-x="0" />
<glyph horiz-adv-x="682" />
<glyph unicode=" "  horiz-adv-x="512" />
<glyph unicode="&#x09;" horiz-adv-x="512" />
<glyph unicode="&#xa0;" horiz-adv-x="512" />
<glyph unicode="!" horiz-adv-x="258" d="M41 0v131h176v-131h-176zM41 195v1081h176v-1081h-176z" />
<glyph unicode="&#x22;" horiz-adv-x="385" d="M41 1098v176h131v-307zM213 1098v176h131v-307z" />
<glyph unicode="#" horiz-adv-x="1095" d="M41 432v176h203l28 160h-229v176h260l62 332h178l-62 -332h183l57 332h180l-59 -332h213v-176h-244l-29 -160h273v-176h-303l-76 -432h-178l75 432h-182l-78 -432h-178l76 432h-170zM422 608h182l29 160h-182z" />
<glyph unicode="$" horiz-adv-x="995" d="M41 0v311h176v-135h199v389h-375v709h375v69h176v-69h360v-309h-176v133h-184v-357h362v-741h-362v-74h-176v74h-375zM217 741h199v357h-199v-357zM592 176h186v389h-186v-389z" />
<glyph unicode="%" horiz-adv-x="1241" d="M41 778v496h453v-496h-453zM217 954h100v144h-100v-144zM287 0l454 1276h187l-453 -1276h-188zM748 82v493h452v-493h-452zM924 258h100v141h-100v-141z" />
<glyph unicode="&#x26;" horiz-adv-x="1118" d="M41 244v309l94 94l-88 88v334l203 207h430l186 -189l2 -352h193v-176h-193l-2 -383h211v-176h-796zM217 315l137 -139h338v383h-397l-78 -78v-166zM223 809l72 -74h397v279l-86 86h-284l-99 -103v-188z" />
<glyph unicode="'" horiz-adv-x="212" d="M41 1098v176h131v-307z" />
<glyph unicode="(" horiz-adv-x="430" d="M41 207v858l211 211h137v-176h-65l-107 -109v-710l105 -105h63v-176h-135z" />
<glyph unicode=")" horiz-adv-x="430" d="M41 1100v176h139l209 -211v-858l-209 -207h-133v176h62l104 105v710l-107 109h-65z" />
<glyph unicode="*" horiz-adv-x="622" d="M41 948v103h145l-104 102l74 74l102 -105v152h102v-150l99 99l73 -74l-100 -98h150v-103h-150l115 -112l-74 -74l-113 115v-148h-102v148l-113 -115l-73 74l114 112h-145z" />
<glyph unicode="+" horiz-adv-x="638" d="M41 414v176h190v201h177v-201h190v-176h-190v-183h-177v183h-190z" />
<glyph unicode="," horiz-adv-x="212" d="M41 2v176h131v-307z" />
<glyph unicode="-" horiz-adv-x="403" d="M41 414v176h321v-176h-321z" />
<glyph unicode="." horiz-adv-x="208" d="M41 0v176h127v-176h-127z" />
<glyph unicode="/" horiz-adv-x="489" d="M41 0l233 1276h175l-236 -1276h-172z" />
<glyph unicode="0" horiz-adv-x="1038" d="M41 188v899l186 187h584l186 -187v-899l-186 -186h-584zM217 262l84 -84h436l84 84v752l-84 84h-436l-84 -84v-752z" />
<glyph unicode="1" horiz-adv-x="317" d="M41 1100v176h233l2 -1276h-178v1100h-57z" />
<glyph unicode="2" d="M41 2v498l735 389v172l-37 35l-485 2l-37 -37v-96h-176v168l141 141l631 -2l139 -139v-353l-735 -389v-213h735v-176h-911z" />
<glyph unicode="3" horiz-adv-x="1003" d="M41 1116l160 158h573l189 -187v-348l-86 -82l86 -86v-389l-181 -180h-731v176h660l75 76v244l-69 69h-555v176h555l69 70v201l-84 84h-428l-108 -107z" />
<glyph unicode="4" horiz-adv-x="1046" d="M41 459v272l629 545h258v-840h78v-176h-78v-260h-176v260h-512zM217 532l94 -96h441v664h-17l-518 -449v-119z" />
<glyph unicode="5" d="M41 2v176h655l80 78v199l-82 84h-487l-166 166v569h793l116 -115l-125 -125l-63 64h-545v-320l64 -63h487l184 -189v-342l-182 -180z" />
<glyph unicode="6" horiz-adv-x="1005" d="M41 201v909l164 166l600 -2l160 -158l-127 -123l-105 105h-454l-62 -62v-174l23 23h512l200 -199v-485l-198 -199h-512zM217 274l94 -96h369l96 96v336l-96 97l-371 2l-92 -95v-340z" />
<glyph unicode="7" d="M41 0v453l735 553v94h-733v176h909v-358l-735 -551v-367h-176z" />
<glyph unicode="8" horiz-adv-x="1042" d="M41 176v408l70 69l-58 60v379l185 184h575l180 -178v-383l-59 -60l67 -67v-412l-178 -178l-606 2zM217 248l74 -72l461 -2l73 74v268l-49 49h-506l-53 -55v-262zM229 786l43 -43l500 -2l45 47v236l-76 76h-432l-80 -82v-232z" />
<glyph unicode="9" d="M41 651v422l205 203h504l202 -205v-827l-241 -244h-482l-133 133l123 125l82 -80h338l137 137v136l-532 -2zM217 725l98 -98h461v372l-100 101h-357l-102 -105v-270z" />
<glyph unicode=":" horiz-adv-x="212" d="M41 0v176h131v-176h-131zM41 377v176h131v-176h-131z" />
<glyph unicode=";" horiz-adv-x="212" d="M41 2v176h131v-307zM43 377v176h129v-176h-129z" />
<glyph unicode="&#x3c;" horiz-adv-x="569" d="M41 522l360 361l123 -125l-235 -236l239 -241l-125 -123z" />
<glyph unicode="=" horiz-adv-x="641" d="M41 287v176h559v-176h-559zM41 532v177h559v-177h-559z" />
<glyph unicode="&#x3e;" horiz-adv-x="569" d="M41 281l240 241l-236 236l123 125l360 -361l-362 -364z" />
<glyph unicode="?" horiz-adv-x="937" d="M41 -2v178h178v-178h-178zM41 1098v178l856 -2v-522l-188 -189h-400l-90 -90v-244h-176v318l193 192h399l86 86v273h-680z" />
<glyph unicode="@" horiz-adv-x="1081" d="M41 -74v959l391 389h418l190 -191v-911l-170 -172h-387l-166 168v639l179 178h368v25l-86 88h-286l-275 -275v-897h-176zM494 240l63 -64h238l69 70v563h-295l-75 -76v-493z" />
<glyph unicode="A" horiz-adv-x="991" d="M41 -2v1278h909v-1276h-176v465h-557v-467h-176zM217 641h557v459h-557v-459z" />
<glyph unicode="B" d="M41 2v1272h721l190 -191v-387l-53 -51l53 -51v-391l-200 -201h-711zM217 178h461l98 98v234l-49 47h-510v-379zM217 733h520l39 39v240l-88 86h-471v-365z" />
<glyph unicode="C" horiz-adv-x="991" d="M41 203v850l221 221h688v-176h-614l-119 -119v-703l98 -98h635v-176h-708z" />
<glyph unicode="D" horiz-adv-x="991" d="M41 2v1272h655l254 -252v-762l-256 -258h-653zM217 178h404l153 154v616l-151 150h-406v-920z" />
<glyph unicode="E" d="M41 2v1272h911v-176h-735v-361h643v-176h-643v-383h733v-176h-909z" />
<glyph unicode="F" d="M41 0v1276h911v-176h-735v-365h688v-176h-688v-559h-176z" />
<glyph unicode="G" d="M41 2v1272h911v-176h-735v-920h559v336l-55 55h-232v176h304l159 -157v-586h-911z" />
<glyph unicode="H" d="M41 0v1276h176v-543h559v543h176v-1276h-176v557h-559v-557h-176z" />
<glyph unicode="I" horiz-adv-x="258" d="M41 0v1276h176v-1276h-176z" />
<glyph unicode="J" d="M41 1098v176l760 2l151 -152l-125 -125l-100 101h-176v-897l-203 -201h-305v176h233l99 96v826z" />
<glyph unicode="K" d="M41 0v1274h176v-549h229l328 365v186h176v-254l-346 -385l348 -381v-256h-176v188l-330 361h-229v-549h-176z" />
<glyph unicode="L" horiz-adv-x="946" d="M41 176v1100h176v-1026l74 -74h614v-176h-688z" />
<glyph unicode="M" horiz-adv-x="1323" d="M41 0v1085l192 191h320l109 -105l106 105h322l192 -191v-1085h-176v1012l-88 88h-176l-92 -90v-1010h-177v1010l-92 90h-176l-88 -88v-1012h-176z" />
<glyph unicode="N" d="M41 0v1274h250l485 -1034v1036h176v-1274h-252l-483 1030v-1032h-176z" />
<glyph unicode="O" d="M41 2v1272h911v-1272h-911zM217 178h559v920h-559v-920z" />
<glyph unicode="P" d="M41 0v1016l260 260h651v-823h-735v-453h-176zM217 629h559v471h-403l-156 -156v-315z" />
<glyph unicode="Q" horiz-adv-x="991" d="M41 0v1274h909v-1274h-368v-68l77 -75h99v-176h-176l-176 178v141h-365zM217 178h557v920h-557v-920z" />
<glyph unicode="R" d="M41 0v1106l170 170h741v-604l-121 -117l121 -121v-434h-176v360l-106 107h-453v-467h-176zM217 643h455l104 102v355h-493l-66 -66v-391z" />
<glyph unicode="S" d="M41 2v309h176v-133h559v391h-733v705h909v-309h-176v133h-557v-353h733v-743h-911z" />
<glyph unicode="T" horiz-adv-x="866" d="M41 1100v176h784v-176h-309v-1100h-176v1100h-299z" />
<glyph unicode="U" horiz-adv-x="991" d="M41 252v1022h176v-950l148 -148h262l147 148v952h176v-1024l-250 -252h-409z" />
<glyph unicode="V" d="M41 553v723h176v-672l281 -428h10l268 432v668h176v-725l-354 -551h-184z" />
<glyph unicode="W" horiz-adv-x="1568" d="M41 563v713h176v-670l232 -428l247 430v668h176v-670l232 -428l248 430l-2 668h178v-715l-324 -561h-205l-217 406l-233 -406h-205z" />
<glyph unicode="X" d="M41 0v453l301 209l-301 219v395h176v-301l285 -209l272 209v301h176v-395l-311 -219l313 -209v-453h-176v356l-274 199l-285 -199v-356h-176z" />
<glyph unicode="Y" horiz-adv-x="989" d="M41 784v492h176v-420l121 -123h313l121 123v420h176v-492l-225 -227h-150v-557h-176v557l-133 -2z" />
<glyph unicode="Z" horiz-adv-x="995" d="M41 965v309h911v-322l-733 -643v-131h559l-2 133h178v-309h-911v391l733 641v64h-559v-133h-176z" />
<glyph unicode="[" horiz-adv-x="464" d="M41 2v1272h381v-176h-205v-920h207v-176h-383z" />
<glyph unicode="\" horiz-adv-x="495" d="M41 1276h178l236 -1276h-181z" />
<glyph unicode="]" horiz-adv-x="464" d="M41 2v176h207v920h-203v176h379v-1272h-383z" />
<glyph unicode="^" horiz-adv-x="593" d="M41 1055l258 260l254 -258l-125 -123l-129 131l-133 -135z" />
<glyph unicode="_" horiz-adv-x="641" d="M41 0h559v-176h-559v176z" />
<glyph unicode="`" horiz-adv-x="462" d="M41 1155l125 125l256 -254l-125 -125z" />
<glyph unicode="a" d="M41 739v312h911v-1051h-909v639h733v235h-559v-135h-176zM219 176h557v287h-557v-287z" />
<glyph unicode="b" d="M41 0v1276h176v-225h735v-820l-233 -231h-678zM217 176h428l129 129v569h-557v-698z" />
<glyph unicode="c" horiz-adv-x="991" d="M41 0v821l227 230h682v-310h-178v133h-428l-127 -126v-570h733v-178h-909z" />
<glyph unicode="d" horiz-adv-x="991" d="M41 0v1051h733v225h176v-1047l-229 -229h-680zM217 176h430l127 127v571h-557v-698z" />
<glyph unicode="e" d="M41 0v1051h911v-494l-180 -180h-555v-199h660v-178h-836zM217 553h481l78 76v245h-559v-321z" />
<glyph unicode="f" horiz-adv-x="897" d="M41 -317v1169l201 199h614v-177h-541l-98 -96v-209h473v-176h-473v-710h-176z" />
<glyph unicode="g" d="M41 221v830h909l2 -1162l-211 -206h-505v176h434l100 98v43h-506zM217 295l119 -117h440v696h-559v-579z" />
<glyph unicode="h" d="M41 0v1276h176v-223h539l196 -197v-856h-176v782l-92 95h-467v-877h-176z" />
<glyph unicode="i" horiz-adv-x="260" d="M41 0v1053h176v-1053h-176zM41 1098v176h178v-176h-178z" />
<glyph unicode="j" horiz-adv-x="466" d="M41 -143h158l51 51v1145h176v-1219l-154 -153h-231v176zM248 1100v176h178v-176h-178z" />
<glyph unicode="k" horiz-adv-x="913" d="M41 0v1276h176v-563h150l364 338h121v-127l-315 -293l335 -266v-365h-176v279l-325 258h-154v-537h-176z" />
<glyph unicode="l" horiz-adv-x="258" d="M41 0v1276h176v-1276h-176z" />
<glyph unicode="m" horiz-adv-x="1323" d="M41 0v862l192 189h320l109 -105l106 105h322l192 -191v-860h-176v786l-88 88h-176l-92 -90v-784h-177v784l-92 90h-176l-88 -86v-788h-176z" />
<glyph unicode="n" horiz-adv-x="991" d="M41 0v1051h670l239 -240v-811h-176v737l-137 137h-420v-874h-176z" />
<glyph unicode="o" d="M41 0v1051h911v-1051h-911zM217 178h559v696h-559v-696z" />
<glyph unicode="p" d="M41 -317v1370l698 -2l213 -215v-834h-735v-319h-176zM217 178h557l2 586l-110 110h-449v-696z" />
<glyph unicode="q" d="M41 2v834l211 215l700 2v-1370h-176v319h-735zM217 178h559v696h-450l-109 -110v-586z" />
<glyph unicode="r" horiz-adv-x="817" d="M41 0v870l180 181h555v-310h-176v133h-305l-78 -77v-797h-176z" />
<glyph unicode="s" d="M41 0v311h176v-135h559v254h-735v621h911v-310h-176v133h-559v-268h735v-606h-911z" />
<glyph unicode="t" horiz-adv-x="714" d="M41 236v1040h176v-225h365v-177h-365v-565l131 -131h326v-178h-400z" />
<glyph unicode="u" d="M41 252v799h176v-727l148 -148h264l147 148v729h176v-801l-250 -252h-411z" />
<glyph unicode="v" d="M41 635v418h176v-373l289 -504l270 506v367h176v-416l-348 -633h-203z" />
<glyph unicode="w" horiz-adv-x="1568" d="M41 563v490h176v-445l232 -430l247 430v443h176v-443l232 -430l248 430v443h176v-490l-324 -561h-205l-217 406l-233 -406h-205z" />
<glyph unicode="x" d="M41 0v369l321 209l-321 219v254h176v-162l283 -207l276 207v162h176v-254l-295 -219l295 -211v-367h-176v272l-276 199l-283 -199v-272h-176z" />
<glyph unicode="y" d="M41 176v875h176v-697h559v697h176v-1139l-229 -229h-522v176h448l127 127v190h-735z" />
<glyph unicode="z" horiz-adv-x="991" d="M41 741v310h909v-332l-731 -434v-109h555v135h176v-311h-907v385l731 434v55h-557v-133h-176z" />
<glyph unicode="{" horiz-adv-x="499" d="M41 551v176h68v330l210 211h140v-176h-66l-108 -109v-702l106 -105h62v-176h-136l-208 207v344h-68z" />
<glyph unicode="|" horiz-adv-x="258" d="M41 0v1276h176v-1276h-176z" />
<glyph unicode="}" horiz-adv-x="499" d="M41 1092v176h139l209 -211v-330h70v-176h-70v-344l-209 -207h-133v176h62l104 105v702l-107 109h-65z" />
<glyph unicode="~" horiz-adv-x="747" d="M41 592l246 244l149 -150l146 145l125 -124l-271 -271l-149 150l-121 -119z" />
<glyph unicode="&#xa1;" horiz-adv-x="258" d="M41 0v1081h176v-1081h-176zM41 1143v131h176v-131h-176z" />
<glyph unicode="&#xa2;" d="M41 0v821l229 230h181v73h176v-73h325v-310h-176v133h-149v-698h325v-176h-325v-74h-176v74h-410zM217 176h234v698h-107l-127 -124v-574z" />
<glyph unicode="&#xa3;" horiz-adv-x="1048" d="M41 125v154h176v-82l21 -19h110l43 43v340h-164v176h164v344l195 195h422v-176h-351l-90 -90v-273h314v-176h-314v-383h441v-176l-617 -2v43l-45 -43l-184 2z" />
<glyph unicode="&#xa4;" horiz-adv-x="1275" d="M61 440v176h244v82h-244v176h244v179l221 221h688v-176h-614l-119 -119v-105h609v-176h-609v-82h609v-176h-609v-164l99 -98h634v-176h-708l-201 201v237h-244z" />
<glyph unicode="&#xa5;" horiz-adv-x="913" d="M41 784v492h176v-420l121 -123h237l121 123v420h176v-492l-223 -227h-104v-129h170v-88h-170v-78h170v-88h-170v-174h-176v174h-172v88h172v78h-172v88h172v129h-105z" />
<glyph unicode="&#xa7;" horiz-adv-x="862" d="M61 -76v250h144v-108h450v286h-589l-3 1032h738v-251h-144v108h-450v-287h592v-1030h-738zM205 496h452v317h-452v-317z" />
<glyph unicode="&#xa8;" horiz-adv-x="376" d="M41 1116v176h129v-176h-129zM207 1116v176h129v-176h-129z" />
<glyph unicode="&#xa9;" horiz-adv-x="909" d="M41 369v897h827v-897h-827zM143 471h623v692h-623v-692zM178 510v612h557v-102h-454v-408h454v-102h-557z" />
<glyph unicode="&#xaa;" horiz-adv-x="860" d="M61 1094v252h738v-852h-736v518h594v190h-452v-108h-144zM205 637h452v231h-452v-231z" />
<glyph unicode="&#xab;" horiz-adv-x="878" d="M41 500l381 381l125 -123l-256 -258l250 -248l-125 -125zM332 500l381 381l125 -123l-256 -258l247 -248l-122 -125z" />
<glyph unicode="&#xad;" horiz-adv-x="403" d="M41 414v176h321v-176h-321z" />
<glyph unicode="&#xae;" horiz-adv-x="909" d="M41 369v897h827v-897h-827zM143 471h623v692h-623v-692zM184 506v532l86 86h447v-311l-49 -49l53 -51v-207h-103v164l-43 43h-288v-207h-103zM287 815h288l39 39v168h-303l-24 -25v-182z" />
<glyph unicode="&#xaf;" horiz-adv-x="421" d="M41 1114v176h340v-176h-340z" />
<glyph unicode="&#xb0;" horiz-adv-x="462" d="M41 977v416h381v-416h-381zM188 1085h82v189h-82v-189z" />
<glyph unicode="&#xb4;" horiz-adv-x="458" d="M41 1030l252 252l125 -123l-252 -252z" />
<glyph unicode="&#xb6;" horiz-adv-x="1009" d="M41 426v604l248 246h438l242 -240v-1355h-176v745h-154v-745h-176v745h-422zM217 602h246v498h-103l-143 -144v-354zM639 602h154v361l-138 137h-16v-498z" />
<glyph unicode="&#xb8;" horiz-adv-x="421" d="M41 -309l149 309h191l-182 -385z" />
<glyph unicode="&#xba;" horiz-adv-x="860" d="M61 494v852h738v-852h-738zM205 639h452v563h-452v-563z" />
<glyph unicode="&#xbb;" horiz-adv-x="886" d="M41 758l125 123l381 -381l-375 -373l-125 125l250 248zM340 758l125 123l381 -381l-375 -373l-125 125l250 248z" />
<glyph unicode="&#xbf;" horiz-adv-x="937" d="M41 2v522l188 189h400l90 90v244h176v-318l-193 -192h-399l-86 -86v-273h680v-178zM719 1100v178h178v-178h-178z" />
<glyph unicode="&#xc0;" horiz-adv-x="991" d="M41 -2v1278h909v-1276h-176v465h-557v-467h-176zM217 641h557v459h-557v-459zM279 1602l124 124l256 -256l-124 -124z" />
<glyph unicode="&#xc1;" horiz-adv-x="991" d="M41 -2v1278h909v-1276h-176v465h-557v-467h-176zM217 641h557v459h-557v-459zM303 1470l252 252l125 -125l-252 -251z" />
<glyph unicode="&#xc2;" horiz-adv-x="991" d="M41 -2v1278h909v-1276h-176v465h-557v-467h-176zM217 641h557v459h-557v-459zM283 1470l256 256l252 -249l-125 -125l-127 127l-131 -133z" />
<glyph unicode="&#xc3;" horiz-adv-x="991" d="M41 -2v1278h909v-1276h-176v465h-557v-467h-176zM199 1470l245 244l150 -149l145 145l125 -125l-270 -270l-150 149l-120 -118zM217 641h557v459h-557v-459z" />
<glyph unicode="&#xc4;" horiz-adv-x="991" d="M41 -2v1278h909v-1276h-176v465h-557v-467h-176zM217 641h557v459h-557v-459zM344 1346v176h129v-176h-129zM510 1346v176h129v-176h-129z" />
<glyph unicode="&#xc5;" horiz-adv-x="991" d="M41 -2v1278h909v-1276h-176v465h-557v-467h-176zM217 641h557v459h-557v-459zM229 1346v569h508v-569h-508zM406 1522h155v217h-155v-217z" />
<glyph unicode="&#xc6;" horiz-adv-x="1611" d="M41 0v1057l221 217h455l45 -43v45h807v-176h-631v-369h539v-176h-537v-377h631v-176h-809v553h-545v-555h-176zM217 731h545v250l-119 117h-309l-117 -115v-252z" />
<glyph unicode="&#xc7;" horiz-adv-x="991" d="M41 203v850l221 221h688v-176h-614l-119 -119v-703l98 -98h635v-176h-338l-163 -346l-158 76l131 270h-180z" />
<glyph unicode="&#xc8;" d="M41 2v1272h911v-176h-735v-361h643v-176h-643v-383h733v-176h-909zM279 1597l124 125l256 -256l-124 -125z" />
<glyph unicode="&#xc9;" d="M41 2v1272h911v-176h-735v-361h643v-176h-643v-383h733v-176h-909zM303 1458l252 252l125 -125l-252 -252z" />
<glyph unicode="&#xca;" d="M41 2v1272h911v-176h-735v-361h643v-176h-643v-383h733v-176h-909zM242 1470l256 256l252 -249l-125 -125l-127 127l-131 -133z" />
<glyph unicode="&#xcb;" d="M41 2v1272h911v-176h-735v-361h643v-176h-643v-383h733v-176h-909zM352 1343v177h129v-177h-129zM518 1343v177h129v-177h-129z" />
<glyph unicode="&#xcc;" horiz-adv-x="462" d="M41 1602l125 124l256 -256l-125 -124zM109 0v1276h176v-1276h-176z" />
<glyph unicode="&#xcd;" horiz-adv-x="458" d="M41 1470l252 252l125 -125l-252 -251zM180 0v1276h176v-1276h-176z" />
<glyph unicode="&#xce;" horiz-adv-x="587" d="M41 1470l256 256l250 -249l-123 -125l-127 127l-131 -133zM207 0v1276h176v-1276h-176z" />
<glyph unicode="&#xcf;" horiz-adv-x="376" d="M41 1343v177h129v-177h-129zM94 0v1276h176v-1276h-176zM207 1343v177h129v-177h-129z" />
<glyph unicode="&#xd1;" d="M41 0v1274h250l485 -1034v1036h176v-1274h-252l-483 1030v-1032h-176zM199 1470l245 244l150 -149l145 145l125 -125l-270 -270l-150 149l-120 -118z" />
<glyph unicode="&#xd2;" d="M41 2v1272h911v-1272h-911zM217 178h559v920h-559v-920zM279 1602l124 124l256 -256l-124 -124z" />
<glyph unicode="&#xd3;" d="M41 2v1272h911v-1272h-911zM217 178h559v920h-559v-920zM303 1470l252 252l125 -125l-252 -251z" />
<glyph unicode="&#xd4;" d="M41 2v1272h911v-1272h-911zM217 178h559v920h-559v-920zM227 1470l256 256l252 -249l-125 -125l-127 127l-131 -133z" />
<glyph unicode="&#xd5;" d="M41 2v1272h911v-1272h-911zM199 1470l245 244l150 -149l145 145l125 -125l-270 -270l-150 149l-120 -118zM217 178h559v920h-559v-920z" />
<glyph unicode="&#xd6;" d="M41 2v1272h911v-1272h-911zM217 178h559v920h-559v-920zM344 1346v176h129v-176h-129zM510 1346v176h129v-176h-129z" />
<glyph unicode="&#xd7;" horiz-adv-x="610" d="M41 367l141 141l-131 131l125 125l131 -131l129 129l123 -125l-127 -129l137 -137l-125 -125l-137 137l-141 -141z" />
<glyph unicode="&#xd8;" d="M41 2v1272h911v-1272h-911zM217 178h113l170 920h-283v-920zM502 178h274v920h-102z" />
<glyph unicode="&#xd9;" horiz-adv-x="991" d="M41 252v1022h176v-950l148 -148h262l147 148v952h176v-1024l-250 -252h-409zM279 1602l124 124l256 -256l-124 -124z" />
<glyph unicode="&#xda;" horiz-adv-x="991" d="M41 252v1022h176v-950l148 -148h262l147 148v952h176v-1024l-250 -252h-409zM303 1470l252 252l125 -125l-252 -251z" />
<glyph unicode="&#xdb;" horiz-adv-x="991" d="M41 252v1022h176v-950l148 -148h262l147 148v952h176v-1024l-250 -252h-409zM233 1470l256 256l252 -249l-125 -125l-127 127l-131 -133z" />
<glyph unicode="&#xdc;" horiz-adv-x="991" d="M41 252v1022h176v-950l148 -148h262l147 148v952h176v-1024l-250 -252h-409zM336 1346v176h129v-176h-129zM502 1346v176h129v-176h-129z" />
<glyph unicode="&#xdd;" horiz-adv-x="989" d="M41 784v492h176v-420l121 -123h313l121 123v420h176v-492l-225 -227h-150v-557h-176v557l-133 -2zM346 1466l252 252l125 -125l-252 -252z" />
<glyph unicode="&#xdf;" horiz-adv-x="909" d="M41 -115v1389h651l176 -174v-307l-88 -88l80 -80v-414l-209 -211h-350v176h277l106 107v268l-63 65h-312v177h309l74 73v160l-71 72h-404v-1213h-176z" />
<glyph unicode="&#xe0;" d="M41 739v312h911v-1051h-909v639h733v235h-559v-135h-176zM219 176h557v287h-557v-287zM279 1370l124 125l256 -256l-124 -125z" />
<glyph unicode="&#xe1;" d="M41 739v312h911v-1051h-909v639h733v235h-559v-135h-176zM219 176h557v287h-557v-287zM303 1253l252 252l125 -125l-252 -252z" />
<glyph unicode="&#xe2;" d="M41 739v312h911v-1051h-909v639h733v235h-559v-135h-176zM219 176h557v287h-557v-287zM252 1227l256 256l250 -250l-125 -125l-125 127l-133 -131z" />
<glyph unicode="&#xe3;" d="M41 739v312h911v-1051h-909v639h733v235h-559v-135h-176zM199 1268l245 243l150 -149l145 145l125 -125l-270 -270l-150 150l-120 -119zM219 176h557v287h-557v-287z" />
<glyph unicode="&#xe4;" d="M41 739v312h911v-1051h-909v639h733v235h-559v-135h-176zM219 176h557v287h-557v-287zM344 1116v176h129v-176h-129zM510 1116v176h129v-176h-129z" />
<glyph unicode="&#xe5;" d="M41 739v312h911v-1051h-909v639h733v235h-559v-135h-176zM219 176h557v287h-557v-287zM240 1102v569h508v-569h-508zM416 1278h155v217h-155v-217z" />
<glyph unicode="&#xe6;" horiz-adv-x="1595" d="M41 0v657h641v217h-465v-133h-176v310h1513v-529l-178 -180h-518v-166h598v-176h-1415zM219 178l463 -2v305h-463v-303zM858 518h445l75 76v280h-520v-356z" />
<glyph unicode="&#xe7;" horiz-adv-x="991" d="M41 0v821l227 230h682v-310h-178v133h-428l-127 -126v-570h733v-178h-344l-164 -344l-157 76l129 268h-373z" />
<glyph unicode="&#xe8;" d="M41 0v1051h911v-494l-180 -180h-555v-199h660v-178h-836zM217 553h481l78 76v245h-559v-321zM279 1370l124 125l256 -256l-124 -125z" />
<glyph unicode="&#xe9;" d="M41 0v1051h911v-494l-180 -180h-555v-199h660v-178h-836zM217 553h481l78 76v245h-559v-321zM303 1253l252 252l125 -125l-252 -252z" />
<glyph unicode="&#xea;" d="M41 0v1051h911v-494l-180 -180h-555v-199h660v-178h-836zM217 553h481l78 76v245h-559v-321zM252 1227l256 256l250 -250l-125 -125l-125 127l-133 -131z" />
<glyph unicode="&#xeb;" d="M41 0v1051h911v-494l-180 -180h-555v-199h660v-178h-836zM217 553h481l78 76v245h-559v-321zM336 1116v176h129v-176h-129zM502 1116v176h129v-176h-129z" />
<glyph unicode="&#xec;" horiz-adv-x="462" d="M41 1370l125 125l256 -256l-125 -125zM135 0v1053h176v-1053h-176z" />
<glyph unicode="&#xed;" horiz-adv-x="458" d="M41 1253l252 252l125 -125l-252 -252zM207 0v1053h176v-1053h-176z" />
<glyph unicode="&#xee;" horiz-adv-x="587" d="M41 1227l256 256l250 -250l-123 -125l-127 127l-131 -131zM205 0v1053h176v-1053h-176z" />
<glyph unicode="&#xef;" horiz-adv-x="376" d="M41 1116v176h129v-176h-129zM117 0v1053h176v-1053h-176zM207 1116v176h129v-176h-129z" />
<glyph unicode="&#xf1;" horiz-adv-x="991" d="M41 0v1051h670l239 -240v-811h-176v737l-137 137h-420v-874h-176zM158 1262l245 243l150 -149l145 145l125 -125l-270 -270l-150 149l-120 -118z" />
<glyph unicode="&#xf2;" d="M41 0v1051h911v-1051h-911zM217 178h559v696h-559v-696zM279 1370l124 125l256 -256l-124 -125z" />
<glyph unicode="&#xf3;" d="M41 0v1051h911v-1051h-911zM217 178h559v696h-559v-696zM303 1253l252 252l125 -125l-252 -252z" />
<glyph unicode="&#xf4;" d="M41 0v1051h911v-1051h-911zM217 178h559v696h-559v-696zM252 1227l256 256l250 -250l-125 -125l-125 127l-133 -131z" />
<glyph unicode="&#xf5;" d="M41 0v1051h911v-1051h-911zM199 1247l245 244l150 -150l145 146l125 -125l-270 -270l-150 149l-120 -119zM217 178h559v696h-559v-696z" />
<glyph unicode="&#xf6;" d="M41 0v1051h911v-1051h-911zM217 178h559v696h-559v-696zM330 1116v176h129v-176h-129zM496 1116v176h129v-176h-129z" />
<glyph unicode="&#xf7;" horiz-adv-x="638" d="M41 414v176h557v-176h-557zM221 113v231h191v-231h-191zM221 659v232h191v-232h-191z" />
<glyph unicode="&#xf8;" d="M41 0v1051h911v-1051h-911zM217 178h55l271 696h-326v-696zM444 178h332v696h-59z" />
<glyph unicode="&#xf9;" d="M41 252v799h176v-727l148 -148h264l147 148v729h176v-801l-250 -252h-411zM279 1370l124 125l256 -256l-124 -125z" />
<glyph unicode="&#xfa;" d="M41 252v799h176v-727l148 -148h264l147 148v729h176v-801l-250 -252h-411zM303 1253l252 252l125 -125l-252 -252z" />
<glyph unicode="&#xfb;" d="M41 252v799h176v-727l148 -148h264l147 148v729h176v-801l-250 -252h-411zM252 1227l256 256l250 -250l-125 -125l-125 127l-133 -131z" />
<glyph unicode="&#xfc;" d="M41 252v799h176v-727l148 -148h264l147 148v729h176v-801l-250 -252h-411zM330 1116v176h129v-176h-129zM496 1116v176h129v-176h-129z" />
<glyph unicode="&#xfd;" d="M41 176v875h176v-697h559v697h176v-1139l-229 -229h-522v176h448l127 127v190h-735zM336 1237l252 252l125 -125l-252 -252z" />
<glyph unicode="&#xff;" d="M41 176v875h176v-697h559v697h176v-1139l-229 -229h-522v176h448l127 127v190h-735zM332 1100v176h129v-176h-129zM498 1100v176h129v-176h-129z" />
<glyph unicode="&#x152;" horiz-adv-x="1540" d="M41 2v1272h825h631v-176h-631v-355h539v-176h-539v-391h633v-176h-809v2h-649zM217 178h473v920h-473v-920z" />
<glyph unicode="&#x153;" horiz-adv-x="1558" d="M41 0v1051h1477v-496l-179 -178h-503v-199h585v-178h-1380zM217 178h442v696h-442v-696zM836 553h432l73 74v247h-505v-321z" />
<glyph unicode="&#x178;" horiz-adv-x="989" d="M41 784v492h176v-420l121 -123h313l121 123v420h176v-492l-225 -227h-150v-557h-176v557l-133 -2zM334 1343v177h129v-177h-129zM500 1343v177h129v-177h-129z" />
<glyph unicode="&#x2c6;" horiz-adv-x="587" d="M41 1049l256 256l250 -252l-123 -125l-127 127l-131 -131z" />
<glyph unicode="&#x2dc;" horiz-adv-x="788" d="M61 1059l246 244l150 -150l145 145l125 -124l-270 -271l-150 150l-121 -119z" />
<glyph unicode="&#x2000;" horiz-adv-x="957" />
<glyph unicode="&#x2001;" horiz-adv-x="1915" />
<glyph unicode="&#x2002;" horiz-adv-x="957" />
<glyph unicode="&#x2003;" horiz-adv-x="1915" />
<glyph unicode="&#x2004;" horiz-adv-x="638" />
<glyph unicode="&#x2005;" horiz-adv-x="478" />
<glyph unicode="&#x2006;" horiz-adv-x="319" />
<glyph unicode="&#x2007;" horiz-adv-x="319" />
<glyph unicode="&#x2008;" horiz-adv-x="239" />
<glyph unicode="&#x2009;" horiz-adv-x="383" />
<glyph unicode="&#x200a;" horiz-adv-x="106" />
<glyph unicode="&#x2010;" horiz-adv-x="403" d="M41 414v176h321v-176h-321z" />
<glyph unicode="&#x2011;" horiz-adv-x="403" d="M41 414v176h321v-176h-321z" />
<glyph unicode="&#x2012;" horiz-adv-x="403" d="M41 414v176h321v-176h-321z" />
<glyph unicode="&#x2013;" horiz-adv-x="440" d="M41 412v176h358v-176h-358z" />
<glyph unicode="&#x2014;" horiz-adv-x="1110" d="M41 416v176h1028v-176h-1028z" />
<glyph unicode="&#x2018;" horiz-adv-x="212" d="M41 958v308l131 -131v-177h-131z" />
<glyph unicode="&#x2019;" horiz-adv-x="212" d="M41 1098v176h131v-307z" />
<glyph unicode="&#x201a;" horiz-adv-x="253" d="M61 12v176h132v-307z" />
<glyph unicode="&#x201c;" horiz-adv-x="385" d="M41 958v308l131 -131v-177h-131zM213 958v308l131 -131v-177h-131z" />
<glyph unicode="&#x201d;" horiz-adv-x="385" d="M41 1098v176h131v-307zM213 1098v176h131v-307z" />
<glyph unicode="&#x201e;" horiz-adv-x="425" d="M61 12v176h132v-307zM233 12v176h132v-307z" />
<glyph unicode="&#x2022;" horiz-adv-x="473" d="M41 346v391h391v-391h-391z" />
<glyph unicode="&#x2026;" horiz-adv-x="544" d="M41 0v176h131v-176h-131zM207 0v176h131v-176h-131zM373 0v176h131v-176h-131z" />
<glyph unicode="&#x202f;" horiz-adv-x="383" />
<glyph unicode="&#x2039;" horiz-adv-x="628" d="M61 500l381 381l125 -123l-256 -258l250 -248l-125 -125z" />
<glyph unicode="&#x203a;" horiz-adv-x="628" d="M61 758l125 123l381 -381l-374 -373l-125 125l249 248z" />
<glyph unicode="&#x205f;" horiz-adv-x="478" />
<glyph unicode="&#x2122;" horiz-adv-x="1087" d="M41 1227v102h365v-102h-134v-439h-102v439h-129zM459 788v541h252l47 -45l45 45h149l95 -96v-445h-103v404l-35 35h-65l-35 -37v-402h-102v402l-37 37h-109v-439h-102z" />
<glyph unicode="&#x25fc;" horiz-adv-x="1054" d="M0 0v1055h1055v-1055h-1055z" />
<glyph unicode="&#xfb01;" horiz-adv-x="1208" d="M61 -317v1169l201 199h615v-177h-541l-98 -96v-209h473v-176h-473v-710h-177zM969 0v1053h176v-1053h-176zM969 1098v176h178v-176h-178z" />
<glyph unicode="&#xfb02;" horiz-adv-x="1218" d="M61 -317v1169l201 199h615v-177h-541l-98 -96v-209h473v-176h-473v-710h-177zM981 0v1276h176v-1276h-176z" />
</font>
</defs>
</svg>
