<?xml version="1.0" standalone="no"?>
<!DOCTYPE svg PUBLIC "-//W3C//DTD SVG 1.1//EN" "http://www.w3.org/Graphics/SVG/1.1/DTD/svg11.dtd" >
<svg xmlns="http://www.w3.org/2000/svg" xmlns:xlink="http://www.w3.org/1999/xlink" version="1.1">
<metadata></metadata>
<defs>
<font id="tremble_ultraitalic" horiz-adv-x="1048" >
<font-face units-per-em="2048" ascent="1503" descent="-545" />
<missing-glyph horiz-adv-x="614" />
<glyph horiz-adv-x="0" />
<glyph horiz-adv-x="682" />
<glyph unicode=" "  horiz-adv-x="614" />
<glyph unicode="&#x09;" horiz-adv-x="614" />
<glyph unicode="&#xa0;" horiz-adv-x="614" />
<glyph unicode="!" horiz-adv-x="415" d="M-72 0l52 291h333l-51 -291h-334zM-12 336l166 940h333l-165 -940h-334z" />
<glyph unicode="&#x22;" horiz-adv-x="722" d="M43 1067l49 281h295l-102 -578zM389 1067l49 281h295l-102 -578z" />
<glyph unicode="#" horiz-adv-x="1325" d="M-25 272l62 338h215l20 58h-225l59 338h285l98 272l338 -2l-96 -270h57l97 270h340l-97 -270h222l-60 -338h-280l-21 -58h291l-59 -338h-351l-94 -272h-340l96 272h-61l-96 -272h-340l98 272h-158zM590 610h59l21 58h-60z" />
<glyph unicode="$" horiz-adv-x="1069" d="M-72 -2l70 393h334l-10 -55h47l26 151h-379l140 791h379l12 68h225l-12 -68h381l-70 -393h-334l11 55h-48l-20 -119h381l-146 -823h-380l-13 -70h-225l12 70h-381zM410 821h45l20 119h-45zM594 336h47l27 151h-47z" />
<glyph unicode="%" horiz-adv-x="1677" d="M49 688l105 586h585l-104 -586h-586zM324 0l684 1276h354l-682 -1276h-356zM340 934h92l17 94h-93zM940 0l102 586h586l-102 -586h-586zM1229 246h92l16 94h-92z" />
<glyph unicode="&#x26;" horiz-adv-x="1155" d="M-27 260l62 344l51 43l-33 37l64 363l268 231h449l176 -215l-45 -248h168l-60 -336h-166l-24 -147h178l-60 -334h-813zM334 397l53 -65h162l24 147h-211l-18 -14zM414 825l6 -10h213l18 109l-16 20h-168l-39 -35z" />
<glyph unicode="'" horiz-adv-x="376" d="M43 1065l49 281h295l-102 -578z" />
<glyph unicode="(" horiz-adv-x="565" d="M-31 231l144 809l274 236h250l-59 -334h-111l-45 -39l-94 -532l30 -37h107l-57 -334h-246z" />
<glyph unicode=")" horiz-adv-x="565" d="M-68 0l60 334h108l41 37l95 532l-31 39h-111l60 334h247l193 -236l-141 -809l-275 -231h-246z" />
<glyph unicode="*" horiz-adv-x="679" d="M23 889l67 59h-65l32 191h68l-41 47l160 135l39 -49l12 74h190l-12 -74l53 45l111 -135l-53 -43h71l-32 -191h-72l47 -59l-158 -133l-47 57l-12 -70h-191l13 70l-70 -57z" />
<glyph unicode="+" horiz-adv-x="743" d="M10 336l60 334h163l29 172h336l-31 -172h164l-59 -334h-164l-27 -156h-336l29 156h-164z" />
<glyph unicode="," horiz-adv-x="376" d="M43 29l49 280h295l-102 -577z" />
<glyph unicode="-" horiz-adv-x="542" d="M12 334l58 336h460l-59 -336h-459z" />
<glyph unicode="." horiz-adv-x="374" d="M12 0l58 334h292l-59 -334h-291z" />
<glyph unicode="/" horiz-adv-x="651" d="M-72 0l459 1276h336l-461 -1276h-334z" />
<glyph unicode="0" horiz-adv-x="1087" d="M-35 213l152 850l252 215h575l178 -215l-149 -850l-254 -215h-576zM326 352l14 -18h299l23 18l102 572l-16 18h-299l-23 -18z" />
<glyph unicode="1" horiz-adv-x="503" d="M14 0l168 942h-88l60 334h421l-225 -1276h-336z" />
<glyph unicode="2" d="M-72 0l101 573l692 336l4 25l-6 8h-279l-14 -12l-16 -103h-336l43 238l245 211l549 2l172 -211l-63 -362l-692 -334l-6 -35h632l-59 -336h-967z" />
<glyph unicode="3" horiz-adv-x="1085" d="M-37 -2l60 336h589l52 41l12 71l-35 41h-496l60 334h518l41 35l8 49l-29 37h-370l-47 -39l-197 236l164 139h647l176 -215l-57 -330l-94 -80l67 -80l-55 -315l-305 -260h-709z" />
<glyph unicode="4" horiz-adv-x="1095" d="M6 446l57 314l689 516h346l-127 -719h69l-59 -336h-68l-41 -221h-333l39 221h-388zM367 584l22 -27h248l51 287l-317 -238z" />
<glyph unicode="5" horiz-adv-x="1107" d="M-72 0l60 334l618 2l17 14l16 92l-14 19h-418l-162 196l109 619l886 2l115 -139l-278 -236l-33 39h-414l-27 -145l420 -2l174 -215l-65 -369l-248 -213z" />
<glyph unicode="6" horiz-adv-x="1116" d="M-33 223l152 858l229 195l682 2l131 -156l-278 -237l-29 35h-428l-16 -80h407l187 -224l-70 -391l-264 -227h-518zM326 362l24 -26h242l33 26l20 115l-22 29h-242l-33 -27z" />
<glyph unicode="7" horiz-adv-x="1046" d="M-37 0l86 489l666 390l10 63h-631l60 334h964l-98 -563l-666 -391l-57 -322h-334z" />
<glyph unicode="8" horiz-adv-x="1110" d="M-33 215l72 406l37 30l-10 13l71 399l250 215h569l174 -209l-71 -403l-17 -13l25 -30l-74 -418l-241 -207h-609zM336 362l24 -26h293l33 26l21 115l-21 29h-295l-33 -27zM438 848l25 -27h260l33 27l12 67l-23 23l-264 2l-30 -27z" />
<glyph unicode="9" horiz-adv-x="1116" d="M-45 156l278 235l29 -35h428l17 80h-408l-186 226l69 391l264 225h519l184 -225l-152 -856l-229 -197h-682zM471 801l23 -29l241 -2l33 27l23 118l-25 27h-242l-32 -27z" />
<glyph unicode=":" horiz-adv-x="376" d="M-29 0l60 334h295l-60 -334h-295zM51 457l60 334h295l-60 -334h-295z" />
<glyph unicode=";" horiz-adv-x="378" d="M2 53l49 281h295l-102 -578zM74 457l59 334h295l-59 -334h-295z" />
<glyph unicode="&#x3c;" horiz-adv-x="759" d="M41 522l516 439l195 -238l-238 -203l168 -207l-279 -235z" />
<glyph unicode="=" horiz-adv-x="745" d="M-29 154l60 333h663q-17 -93 -33 -185.5t-26 -147.5h-664zM51 600l60 336h661q-45 -264 -59 -336h-662z" />
<glyph unicode="&#x3e;" horiz-adv-x="759" d="M4 313l244 207l-168 203l278 238l361 -439l-518 -444z" />
<glyph unicode="?" horiz-adv-x="1001" d="M-72 -2l60 334h336l-60 -334h-336zM-4 371l39 227l258 219h344l25 21l18 102h-586l60 336l919 2l-102 -580l-254 -217h-342l-29 -22l-16 -88h-334z" />
<glyph unicode="@" horiz-adv-x="1273" d="M-78 -74l170 963l459 389h584l178 -221l-150 -856l-237 -203h-396l-159 199l92 520l180 153q9 0 97.5 1t165.5 1t104 -2l6 31l-35 41h-360l-218 -184l-147 -832h-334zM729 334h123l35 203h-121z" />
<glyph unicode="A" horiz-adv-x="1046" d="M-72 -2l226 1278h964l-225 -1276h-334l70 397h-295l-72 -399h-334zM391 731h297l37 211h-297z" />
<glyph unicode="B" d="M-72 -2l226 1280h749l178 -219l-53 -305l-127 -109l88 -110l-53 -310l-268 -227h-740zM322 334h268l35 31l16 86l-23 26h-272zM406 811h264l41 35l12 76l-16 20h-279z" />
<glyph unicode="C" horiz-adv-x="1046" d="M-33 225l144 807l288 246h719l-59 -336h-582l-57 -47l-92 -526l28 -35h596l-59 -336h-739z" />
<glyph unicode="D" horiz-adv-x="1046" d="M-72 -2l226 1280h692l225 -270l-129 -734l-321 -276h-693zM322 334h219l92 78l80 456l-64 74h-221z" />
<glyph unicode="E" d="M-72 -2l226 1280h966l-59 -336h-633l-22 -127h552l-57 -334h-553l-26 -147h630l-57 -336h-967z" />
<glyph unicode="F" d="M-72 0l226 1276h966l-59 -334h-633l-22 -129h593l-59 -334h-592l-86 -479h-334z" />
<glyph unicode="G" horiz-adv-x="1050" d="M-72 -2l226 1280h966l-59 -336h-633l-106 -608h299l26 153h-184l59 336h328l158 -190l-111 -635h-969z" />
<glyph unicode="H" d="M-72 0l226 1276h333l-81 -465h299l81 465h334l-225 -1276h-334l84 475h-299l-84 -475h-334z" />
<glyph unicode="I" horiz-adv-x="415" d="M-72 0l226 1276h333l-225 -1276h-334z" />
<glyph unicode="J" horiz-adv-x="1120" d="M-72 -2l60 336h256l35 31l102 579l-287 -2l60 336h893l120 -148l-278 -237l-41 51h-133l-125 -719l-268 -227h-394z" />
<glyph unicode="K" d="M-72 0l226 1278h333l-81 -473h65l277 258l36 213h334l-59 -342l-320 -297l215 -293l-59 -344h-334l37 215l-186 256h-66l-84 -471h-334z" />
<glyph unicode="L" horiz-adv-x="1009" d="M-35 205l189 1071h333l-163 -932l8 -10h581l-57 -334h-723z" />
<glyph unicode="M" horiz-adv-x="1333" d="M-72 0l187 1061l254 215h354l47 -53l64 53h350l182 -217l-186 -1059h-336l162 918l-19 24h-76l-28 -24l-162 -918h-334l162 918l-21 24h-77l-25 -22l-164 -920h-334z" />
<glyph unicode="N" d="M-72 0l226 1278h364l166 -573l102 571h334l-225 -1278h-365l-168 569l-100 -567h-334z" />
<glyph unicode="O" d="M-72 -2l226 1280h966l-225 -1280h-967zM322 334h299l106 608h-299z" />
<glyph unicode="P" d="M-72 0l176 999l326 277h690l-157 -889h-631l-70 -387h-334zM389 721h299l39 221h-217l-96 -82z" />
<glyph unicode="Q" horiz-adv-x="1046" d="M-35 0l225 1276h965l-225 -1276h-334l-6 -37l31 -39h129l-58 -334h-280l-170 207l37 203h-314zM358 334h295l109 608h-297z" />
<glyph unicode="R" d="M-72 0l191 1075l237 201h764l-114 -647l-76 -64l53 -65l-88 -500h-334l64 360l-31 39h-260l-72 -399h-334zM395 731h258l43 37l31 174h-295z" />
<glyph unicode="S" d="M-72 -2l70 393h334l-10 -55h296l29 151h-631l140 791h964l-69 -393h-334l10 55h-297l-20 -119h630l-145 -823h-967z" />
<glyph unicode="T" horiz-adv-x="937" d="M94 942l60 334h856l-58 -334h-266l-166 -942h-334l166 942h-258z" />
<glyph unicode="U" horiz-adv-x="1046" d="M-25 268l179 1010h333l-153 -870l61 -74h150l86 74l153 868h334l-178 -1008l-315 -268h-428z" />
<glyph unicode="V" d="M23 537l131 739h333l-112 -639l112 -231l187 231l112 639h334l-131 -739l-440 -537h-258z" />
<glyph unicode="W" horiz-adv-x="1544" d="M27 553l127 723h333l-112 -639l74 -205l155 207l113 637h334l-111 -639l74 -205l153 207l115 637h334l-129 -727l-414 -549h-282l-93 252l-188 -252h-285z" />
<glyph unicode="X" d="M-72 0l92 526l218 133l-168 142l84 475h333l-53 -303l133 -111l164 111l53 303h334l-84 -475l-221 -139l174 -136l-92 -526h-334l62 350l-127 105l-172 -107l-62 -348h-334z" />
<glyph unicode="Y" horiz-adv-x="1044" d="M57 727l97 549h333l-71 -414l41 -51h192l60 51l73 414h334l-96 -551l-291 -248h-76l-84 -477h-336l84 475h-59z" />
<glyph unicode="Z" horiz-adv-x="1050" d="M-70 -2l82 473l625 471h-207l-10 -53h-334l68 389h966l-71 -412l-703 -532h275l10 55h334l-68 -391h-967z" />
<glyph unicode="[" horiz-adv-x="595" d="M-72 -2l226 1280h510l-60 -338h-176l-106 -604h178l-58 -338h-514z" />
<glyph unicode="\" horiz-adv-x="657" d="M154 1276h340l10 -1276l-338 -2z" />
<glyph unicode="]" horiz-adv-x="595" d="M-72 -2l60 338h178l106 604h-174l60 338h510l-226 -1280h-514z" />
<glyph unicode="^" horiz-adv-x="782" d="M31 995l413 355l287 -353l-280 -233l-91 110l-133 -114z" />
<glyph unicode="_" horiz-adv-x="745" d="M12 -334l58 334h663l-59 -334h-662z" />
<glyph unicode="`" horiz-adv-x="667" d="M51 1147l279 235l286 -348l-278 -235z" />
<glyph unicode="a" horiz-adv-x="1038" d="M-51 0l119 674h622l12 71h-296l-7 -28h-323l59 334h957l-187 -1051h-956zM330 313h297l12 68h-297z" />
<glyph unicode="b" d="M-72 0l226 1276h333l-38 -225h630l-139 -797l-299 -254h-713zM322 332h239l70 57l55 326h-297z" />
<glyph unicode="c" horiz-adv-x="1046" d="M-51 0l141 801l293 250h717l-72 -392h-334l11 56h-240l-66 -56l-57 -323h631l-60 -336h-964z" />
<glyph unicode="d" horiz-adv-x="1046" d="M-72 0l187 1051h630l39 225h334l-180 -1026l-295 -250h-715zM322 334h241l66 55l57 326h-297z" />
<glyph unicode="e" horiz-adv-x="1038" d="M-51 0l184 1051h959l-88 -494l-209 -178l-447 -4l-12 -70h559l-53 -305h-893zM401 670h269l32 26l7 41h-297z" />
<glyph unicode="f" horiz-adv-x="964" d="M-80 -315l201 1142l264 224h659l-59 -334h-516l-37 -31l-10 -53h407l-59 -334h-408l-108 -614h-334z" />
<glyph unicode="g" horiz-adv-x="1046" d="M23 223l145 828h965l-211 -1205l-275 -233h-565l57 334h467l8 53h-409zM381 365l41 -50h250l69 400h-299z" />
<glyph unicode="h" d="M-72 0l226 1276h333l-36 -209h411l182 -221l-149 -846h-334l125 707l-22 26h-273l-129 -733h-334z" />
<glyph unicode="i" horiz-adv-x="417" d="M-72 0l158 889h334l-158 -889h-334zM94 942l60 334h335l-59 -334h-336z" />
<glyph unicode="j" horiz-adv-x="595" d="M-106 -408l57 336h190q-2 12 38 252t81 474l41 233h334l-195 -1108l-219 -187h-327zM309 942l58 334h335l-57 -334h-336z" />
<glyph unicode="k" horiz-adv-x="978" d="M-72 0l226 1276h333l-84 -483l324 256h231l-43 -240l-217 -172l207 -191l-80 -446h-333l51 285l-191 174h-8l-82 -459h-334z" />
<glyph unicode="l" horiz-adv-x="415" d="M-72 0l226 1276h333l-225 -1276h-334z" />
<glyph unicode="m" horiz-adv-x="1333" d="M-51 0l147 834l256 215h350l48 -54l63 54h350l183 -218l-148 -831h-334l123 694l-18 21h-78l-27 -25l-123 -690h-333l120 690l-20 25h-78l-24 -23l-123 -692h-334z" />
<glyph unicode="n" horiz-adv-x="1046" d="M-51 0l184 1049h705l215 -261l-140 -788h-333l114 651l-53 64h-231l-127 -715h-334z" />
<glyph unicode="o" d="M-51 0l184 1049h967l-185 -1049h-966zM342 336h299l66 379h-297z" />
<glyph unicode="p" d="M-80 -313l242 1362h731l192 -240l-143 -809h-633l-53 -313h-336zM369 334h297l61 336l-35 43h-256z" />
<glyph unicode="q" d="M-25 0l144 809l276 240h731l-239 -1362h-334l55 313h-633zM369 334h299l65 379h-256l-49 -43z" />
<glyph unicode="r" horiz-adv-x="937" d="M-51 0l137 780l315 269h588l-69 -392l-334 2l10 56h-133l-64 -56l-116 -659h-334z" />
<glyph unicode="s" d="M-51 0l59 334h334l-6 -39h297l14 88h-631l117 666h967l-60 -330l-333 2l6 37h-297l-15 -84h633l-119 -674h-966z" />
<glyph unicode="t" horiz-adv-x="808" d="M-27 256l181 1020h333l-36 -209h313l-57 -334h-316l-59 -338l49 -59h334l-60 -336h-473z" />
<glyph unicode="u" d="M-4 268l137 783h334l-113 -645l62 -72h151l86 72l113 643h334l-137 -781l-318 -270h-428z" />
<glyph unicode="v" d="M55 604l78 447h336l-63 -359l106 -268l190 270l64 355h334l-78 -447l-444 -604h-281z" />
<glyph unicode="w" horiz-adv-x="1544" d="M45 545l88 506h336l-76 -422l74 -205l156 207l73 418h336l-74 -420l74 -205l156 207l74 418h333l-90 -506l-411 -545h-285l-92 246l-187 -246h-284z" />
<glyph unicode="x" d="M-51 0l78 438l225 133l-178 140l59 338h334l-31 -175l133 -100l166 100l31 175h334l-60 -336l-215 -142l166 -135l-76 -436h-335l47 260l-129 107l-170 -107l-45 -260h-334z" />
<glyph unicode="y" d="M-4 106l166 945h334l-107 -605h299l107 605h333l-196 -1119l-297 -251h-578l58 333h442l64 54l6 38h-631z" />
<glyph unicode="z" d="M-51 0l76 426l512 299h-125l-9 -47h-335l65 371h967l-68 -379l-600 -344h205l8 49h336l-68 -375h-964z" />
<glyph unicode="{" horiz-adv-x="622" d="M12 471l58 334h59l41 237l276 234h248l-57 -334h-111l-45 -39l-94 -532l31 -37h106l-59 -334h-244l-192 231l41 240h-58z" />
<glyph unicode="|" horiz-adv-x="415" d="M-72 0l226 1276h333l-225 -1276h-334z" />
<glyph unicode="}" horiz-adv-x="622" d="M-68 0l60 334h108l41 37l95 532l-31 39h-111l60 334h247l195 -234l-43 -237h59l-59 -334h-59l-41 -240l-275 -231h-246z" />
<glyph unicode="~" horiz-adv-x="913" d="M35 1065l399 338l107 -129l147 127l195 -238l-426 -360l-107 129l-123 -105z" />
<glyph unicode="&#xa1;" horiz-adv-x="415" d="M-72 0l166 940h334l-166 -940h-334zM102 985l52 291h333l-51 -291h-334z" />
<glyph unicode="&#xa2;" horiz-adv-x="1148" d="M-51 0l141 801l293 250h190l13 73h248l-15 -73h381l-67 -381h-334l6 45h-45l-66 -379h381l-59 -336h-381l-14 -74h-246l12 74h-438zM342 336h104l68 379h-49l-66 -56z" />
<glyph unicode="&#xa3;" horiz-adv-x="1175" d="M-43 160l45 260h334l-14 -84h45l26 145h-141l59 334h142l43 242l258 221h493l-57 -336h-356l-29 -24l-19 -103h271l-60 -334h-268l-27 -145h379l-59 -338h-932z" />
<glyph unicode="&#xa5;" horiz-adv-x="1044" d="M72 809l82 467h333l-57 -330l41 -53l193 2l59 51l59 330h334l-82 -467l-289 -248h-77l-11 -53h156l-37 -203h-153l-9 -45h154l-35 -203h-153l-11 -57h-336l11 57h-158l35 203h160l8 45h-160l37 203h158l10 51h-62z" />
<glyph unicode="&#xa8;" horiz-adv-x="716" d="M12 942l58 334h295l-60 -334h-293zM352 942l60 334h293l-58 -334h-295z" />
<glyph unicode="&#xa9;" horiz-adv-x="950" d="M-41 336l164 940h868l-164 -940h-868zM102 459h623l123 694h-623zM135 492l111 632h571l-20 -123h-449l-67 -387h446l-20 -122h-572z" />
<glyph unicode="&#xab;" horiz-adv-x="1374" d="M41 500l537 458l194 -237l-258 -219l176 -215l-278 -238zM639 500l539 458l194 -237l-260 -219l178 -215l-278 -238z" />
<glyph unicode="&#xad;" horiz-adv-x="542" d="M12 334l58 336h460l-59 -336h-459z" />
<glyph unicode="&#xae;" horiz-adv-x="950" d="M-41 338l164 938h868l-164 -938h-868zM102 461h623l123 692h-623zM141 489l97 547l106 92h463l-57 -325l-54 -45l39 -47l-39 -222h-123l31 170l-31 37h-272l-37 -207h-123zM322 819h274l39 33l27 154h-289l-23 -21z" />
<glyph unicode="&#xaf;" horiz-adv-x="557" d="M12 1049l58 335h475l-58 -335h-475z" />
<glyph unicode="&#xb0;" horiz-adv-x="667" d="M-10 760l102 583h586l-103 -583h-585zM279 1006h94l16 92h-94z" />
<glyph unicode="&#xb4;" horiz-adv-x="663" d="M31 1040l407 346l195 -237l-408 -346z" />
<glyph unicode="&#xb6;" horiz-adv-x="1202" d="M16 336l119 676l311 264h594l215 -262l-235 -1336h-334l117 658h-43l-117 -658h-334l117 658h-410zM410 666h73l49 282l-88 -78zM817 666h43l39 215l-35 45z" />
<glyph unicode="&#xb8;" horiz-adv-x="641" d="M18 -399l265 399h364l-352 -545z" />
<glyph unicode="&#xbb;" horiz-adv-x="1374" d="M8 287l252 215l-180 219l278 237l375 -458l-530 -451zM608 287l252 215l-182 219l278 237l377 -458l-530 -451z" />
<glyph unicode="&#xbf;" horiz-adv-x="1001" d="M-72 -2l103 577l254 218h342l28 22l17 88h334l-41 -225l-256 -219h-344l-25 -21l-18 -102l585 -2l-59 -336h-920zM678 944l59 332h336l-59 -332h-336z" />
<glyph unicode="&#xc0;" horiz-adv-x="1046" d="M-72 -2l226 1278h964l-225 -1276h-334l70 397h-295l-72 -399h-334zM315 1686l279 237l289 -350l-279 -236zM391 731h297l37 211h-297z" />
<glyph unicode="&#xc1;" horiz-adv-x="1046" d="M-72 -2l226 1278h964l-225 -1276h-334l70 397h-295l-72 -399h-334zM317 1573l408 346l195 -236l-408 -346zM391 731h297l37 211h-297z" />
<glyph unicode="&#xc2;" horiz-adv-x="1046" d="M-72 -2l226 1278h964l-225 -1276h-334l70 397h-295l-72 -399h-334zM281 1581l411 350l285 -346l-279 -235l-90 108l-133 -112zM391 731h297l37 211h-297z" />
<glyph unicode="&#xc3;" horiz-adv-x="1046" d="M-72 -2l226 1278h964l-225 -1276h-334l70 397h-295l-72 -399h-334zM229 1593l402 336l104 -127l148 125l194 -235l-424 -363l-106 129l-123 -102zM391 731h297l37 211h-297z" />
<glyph unicode="&#xc4;" horiz-adv-x="1046" d="M-72 -2l226 1278h964l-225 -1276h-334l70 397h-295l-72 -399h-334zM303 1346l57 333h295l-59 -333h-293zM391 731h297l37 211h-297zM643 1346l59 333h293l-57 -333h-295z" />
<glyph unicode="&#xc5;" horiz-adv-x="1046" d="M-72 -2l226 1278h964l-225 -1276h-334l70 397h-295l-72 -399h-334zM309 1346l109 620h563l-109 -620h-563zM391 731h297l37 211h-297zM612 1604h47l19 104h-47z" />
<glyph unicode="&#xc6;" horiz-adv-x="1581" d="M-72 0l183 1036l286 242h1254l-60 -334h-542l-23 -135h463l-59 -334h-463l-25 -141h543l-58 -336h-878l84 477h-287l-84 -475h-334zM406 809h284l17 88l-39 45h-193l-53 -45z" />
<glyph unicode="&#xc7;" horiz-adv-x="1046" d="M-33 225l144 807l288 246h719l-59 -336h-582l-57 -47l-92 -526l28 -35h596l-59 -336h-739zM70 -399l264 399h364l-352 -545z" />
<glyph unicode="&#xc8;" d="M-72 -2l226 1280h966l-59 -336h-633l-22 -127h552l-57 -334h-553l-26 -147h630l-57 -336h-967zM315 1686l279 237l289 -350l-279 -236z" />
<glyph unicode="&#xc9;" d="M-72 -2l226 1280h966l-59 -336h-633l-22 -127h552l-57 -334h-553l-26 -147h630l-57 -336h-967zM350 1575l408 346l194 -235l-407 -347z" />
<glyph unicode="&#xca;" d="M-72 -2l226 1280h966l-59 -336h-633l-22 -127h552l-57 -334h-553l-26 -147h630l-57 -336h-967zM285 1579l411 350l283 -346l-277 -235l-90 108l-133 -113z" />
<glyph unicode="&#xcb;" d="M-72 -2l226 1280h966l-59 -336h-633l-22 -127h552l-57 -334h-553l-26 -147h630l-57 -336h-967zM281 1348l59 333h293l-60 -333h-292zM637 1348l57 333h295l-59 -333h-293z" />
<glyph unicode="&#xcc;" horiz-adv-x="667" d="M68 0l223 1276h336l-226 -1276h-333zM168 1686l278 237l289 -350l-278 -236z" />
<glyph unicode="&#xcd;" horiz-adv-x="663" d="M115 0l225 1276h336l-225 -1276h-336zM150 1579l407 346l195 -235l-408 -347z" />
<glyph unicode="&#xce;" horiz-adv-x="776" d="M117 0l225 1276h334l-225 -1276h-334zM150 1573l409 350l285 -346l-279 -236l-88 109l-133 -113z" />
<glyph unicode="&#xcf;" horiz-adv-x="731" d="M90 0l225 1276h336l-225 -1276h-336zM131 1348l57 333h295l-59 -333h-293zM485 1348l60 333h293l-58 -333h-295z" />
<glyph unicode="&#xd1;" d="M-72 0l226 1278h364l166 -573l102 571h334l-225 -1278h-367l-166 569l-100 -567h-334zM229 1581l400 336l106 -127l148 125l194 -236l-426 -362l-106 129l-123 -103z" />
<glyph unicode="&#xd2;" d="M-72 -2l226 1280h966l-225 -1280h-967zM317 1690l277 237l289 -350l-279 -236zM322 334h299l106 608h-299z" />
<glyph unicode="&#xd3;" d="M-72 -2l226 1280h966l-225 -1280h-967zM322 334h299l106 608h-299zM322 1577l407 346l195 -235l-408 -347z" />
<glyph unicode="&#xd4;" d="M-72 -2l226 1280h966l-225 -1280h-967zM281 1573l411 350l285 -346l-279 -236l-90 109l-133 -113zM322 334h299l106 608h-299z" />
<glyph unicode="&#xd5;" d="M-72 -2l226 1280h966l-225 -1280h-967zM229 1593l402 336l104 -127l148 125l194 -235l-424 -363l-106 129l-123 -102zM322 334h299l106 608h-299z" />
<glyph unicode="&#xd6;" d="M-72 -2l226 1280h966l-225 -1280h-967zM303 1346l57 333h295l-59 -333h-293zM322 334h299l106 608h-299zM643 1346l59 333h295l-59 -333h-295z" />
<glyph unicode="&#xd7;" horiz-adv-x="792" d="M27 414l129 108l-95 117l277 235l96 -114l144 123l194 -238l-143 -123l96 -114l-279 -236l-96 115l-129 -111z" />
<glyph unicode="&#xd8;" d="M-72 -2l226 1280h966l-225 -1280h-967zM322 334h16l219 608h-129zM496 334h125l106 608h-12z" />
<glyph unicode="&#xd9;" horiz-adv-x="1046" d="M-25 268l179 1010h333l-153 -870l61 -74h150l86 74l153 868h334l-178 -1008l-315 -268h-428zM332 1692l278 237l289 -350l-278 -236z" />
<glyph unicode="&#xda;" horiz-adv-x="1046" d="M-25 268l179 1010h333l-153 -870l61 -74h150l86 74l153 868h334l-178 -1008l-315 -268h-428zM342 1579l406 346l196 -235l-407 -347z" />
<glyph unicode="&#xdb;" horiz-adv-x="1046" d="M-25 268l179 1010h333l-153 -870l61 -74h150l86 74l153 868h334l-178 -1008l-315 -268h-428zM276 1581l412 350l285 -346l-279 -235l-88 108l-133 -112z" />
<glyph unicode="&#xdc;" horiz-adv-x="1046" d="M-25 268l179 1010h333l-153 -870l61 -74h150l86 74l153 868h334l-178 -1008l-315 -268h-428zM303 1346l57 333h295l-59 -333h-293zM643 1346l59 333h293l-57 -333h-295z" />
<glyph unicode="&#xdd;" horiz-adv-x="1044" d="M57 727l97 549h333l-71 -414l41 -51h192l60 51l73 414h334l-96 -551l-291 -248h-76l-84 -477h-336l84 475h-59zM354 1583l408 346l194 -235l-407 -346z" />
<glyph unicode="&#xdf;" horiz-adv-x="1058" d="M-86 -164l254 1440h774l168 -203l-61 -342l-43 -37l24 -32l-74 -426l-274 -236h-352l59 334h211l47 41l25 149l-250 2l59 334h248l10 10l13 64l-9 8h-301l-194 -1104z" />
<glyph unicode="&#xe0;" horiz-adv-x="1038" d="M-51 0l119 674h622l12 71h-296l-7 -28h-323l59 334h957l-187 -1051h-956zM313 1464l279 238l287 -350l-279 -236zM330 313h297l12 68h-297z" />
<glyph unicode="&#xe1;" horiz-adv-x="1038" d="M-51 0l119 674h622l12 71h-296l-7 -28h-323l59 334h957l-187 -1051h-956zM299 1366l408 346l194 -235l-407 -347zM330 313h297l12 68h-297z" />
<glyph unicode="&#xe2;" horiz-adv-x="1038" d="M-51 0l119 674h622l12 71h-296l-7 -28h-323l59 334h957l-187 -1051h-956zM252 1360l412 350l284 -346l-278 -236l-90 109l-134 -113zM330 313h297l12 68h-297z" />
<glyph unicode="&#xe3;" horiz-adv-x="1038" d="M-51 0l119 674h622l12 71h-296l-7 -28h-323l59 334h957l-187 -1051h-956zM211 1380l399 336l107 -127l147 125l195 -235l-426 -363l-107 129l-123 -102zM330 313h297l12 68h-297z" />
<glyph unicode="&#xe4;" horiz-adv-x="1038" d="M-51 0l119 674h622l12 71h-296l-7 -28h-323l59 334h957l-187 -1051h-956zM283 1124l59 334h293l-60 -334h-292zM330 313h297l12 68h-297zM625 1124l57 334h295l-59 -334h-293z" />
<glyph unicode="&#xe5;" horiz-adv-x="1038" d="M-51 0l119 674h622l12 71h-296l-7 -28h-323l59 334h957l-187 -1051h-956zM256 1124l111 621h563l-109 -621h-565zM330 313h297l12 68h-297zM559 1382h49l19 105h-49z" />
<glyph unicode="&#xe6;" horiz-adv-x="1587" d="M-51 0l119 674h587l13 71h-262l-7 -28h-323l59 334h1503l-86 -494l-209 -178l-407 -4l-12 -70h520l-55 -305h-1440zM330 313h262l12 68h-262zM987 670h232l30 26l8 41h-258z" />
<glyph unicode="&#xe7;" horiz-adv-x="1046" d="M-51 0l141 801l293 250h717l-72 -392h-334l11 56h-240l-66 -56l-57 -323h631l-60 -336h-964zM84 -399l264 399h367l-355 -545z" />
<glyph unicode="&#xe8;" horiz-adv-x="1038" d="M-45 0l184 1051h957l-86 -494l-209 -178l-447 -4l-12 -70h559l-55 -305h-891zM322 1466l278 238l287 -350l-279 -236zM406 670h270l33 26l6 41h-297z" />
<glyph unicode="&#xe9;" horiz-adv-x="1038" d="M-45 0l184 1051h957l-86 -494l-209 -178l-447 -4l-12 -70h559l-55 -305h-891zM305 1360l406 346l194 -236l-405 -346zM406 670h270l33 26l6 41h-297z" />
<glyph unicode="&#xea;" horiz-adv-x="1038" d="M-45 0l184 1051h957l-86 -494l-209 -178l-447 -4l-12 -70h559l-55 -305h-891zM258 1352l412 350l282 -346l-276 -236l-90 109l-133 -113zM406 670h270l33 26l6 41h-297z" />
<glyph unicode="&#xeb;" horiz-adv-x="1038" d="M-45 0l184 1051h957l-86 -494l-209 -178l-447 -4l-12 -70h559l-55 -305h-891zM289 1124l59 334h293l-59 -334h-293zM406 670h270l33 26l6 41h-297zM631 1124l59 334h293l-59 -334h-293z" />
<glyph unicode="&#xec;" horiz-adv-x="667" d="M76 0l186 1051h334l-186 -1051h-334zM150 1475l278 237l287 -350l-277 -236z" />
<glyph unicode="&#xed;" horiz-adv-x="663" d="M74 0l184 1051h336l-186 -1051h-334zM131 1364l408 346l194 -235l-407 -347z" />
<glyph unicode="&#xee;" horiz-adv-x="776" d="M129 1358l412 350l284 -346l-278 -236l-90 109l-131 -113zM135 0l184 1051h334l-184 -1051h-334z" />
<glyph unicode="&#xef;" horiz-adv-x="716" d="M82 0l184 1051h336l-186 -1051h-334zM111 1124l59 334h293l-60 -334h-292zM453 1124l59 334h293l-60 -334h-292z" />
<glyph unicode="&#xf1;" horiz-adv-x="1046" d="M-51 0l184 1049h705l215 -261l-140 -788h-333l114 651l-53 64h-231l-127 -715h-334zM176 1382l399 338l107 -129l147 125l195 -235l-426 -363l-106 129l-123 -102z" />
<glyph unicode="&#xf2;" d="M-51 0l184 1049h967l-185 -1049h-966zM342 336h299l66 379h-297zM377 1464l278 238l287 -350l-278 -236z" />
<glyph unicode="&#xf3;" d="M-51 0l184 1049h967l-185 -1049h-966zM340 1354l408 346l194 -236l-407 -346zM342 336h299l66 379h-297z" />
<glyph unicode="&#xf4;" d="M-51 0l184 1049h967l-185 -1049h-966zM252 1350l412 350l284 -346l-278 -236l-90 109l-134 -113zM342 336h299l66 379h-297z" />
<glyph unicode="&#xf5;" d="M-51 0l184 1049h967l-185 -1049h-966zM211 1382l401 336l105 -127l147 125l195 -235l-424 -363l-107 129l-122 -102zM342 336h299l66 379h-297z" />
<glyph unicode="&#xf6;" d="M-51 0l184 1049h967l-185 -1049h-966zM283 1124l59 334h293l-60 -334h-292zM342 336h299l66 379h-297zM625 1124l59 334h293l-59 -334h-293z" />
<glyph unicode="&#xf7;" horiz-adv-x="743" d="M12 334l60 336h661l-59 -336h-662zM145 0l54 293h272l-53 -293h-273zM270 707l52 292h274l-53 -292h-273z" />
<glyph unicode="&#xf8;" d="M-51 0l184 1049h967l-185 -1049h-966zM342 336h27l135 379h-94zM524 336h117l66 379h-45z" />
<glyph unicode="&#xf9;" d="M-4 268l137 783h334l-113 -645l62 -74h151l86 74l113 643h334l-137 -781l-318 -270h-428zM317 1468l279 238l287 -350l-277 -236z" />
<glyph unicode="&#xfa;" d="M-4 268l137 783h334l-113 -645l62 -74h151l86 74l113 643h334l-137 -781l-318 -270h-428zM330 1354l407 346l195 -236l-408 -346z" />
<glyph unicode="&#xfb;" d="M-4 268l137 783h334l-113 -645l62 -74h151l86 74l113 643h334l-137 -781l-318 -270h-428zM268 1352l410 350l285 -346l-279 -236l-88 109l-133 -113z" />
<glyph unicode="&#xfc;" d="M-4 268l137 783h334l-113 -645l62 -74h151l86 74l113 643h334l-137 -781l-318 -270h-428zM283 1124l59 334h293l-60 -334h-292zM625 1124l59 334h293l-59 -334h-293z" />
<glyph unicode="&#xfd;" d="M-4 106l166 945h334l-107 -605h299l107 605h333l-196 -1119l-297 -251h-578l58 333h442l64 54l6 38h-631zM354 1358l408 346l194 -236l-407 -346z" />
<glyph unicode="&#xff;" d="M-4 106l166 945h334l-107 -605h299l107 605h333l-196 -1119l-297 -251h-578l58 333h442l64 54l6 38h-631zM289 1122l59 334h293l-59 -334h-293zM645 1122l57 334h295l-59 -334h-293z" />
<glyph unicode="&#x152;" horiz-adv-x="1499" d="M-72 0l226 1276l1415 -2l-60 -334h-522l-20 -121h442l-59 -334h-443l-26 -151h522l-57 -334h-1418zM322 336h225l106 604h-225z" />
<glyph unicode="&#x153;" horiz-adv-x="1665" d="M-51 0l184 1049l1585 2l-88 -494l-209 -178l-446 -2l-12 -72h559l-54 -305h-1519zM336 307h299l76 430h-299zM1026 670h270l33 26l6 41h-297z" />
<glyph unicode="&#x178;" horiz-adv-x="1044" d="M57 727l97 549h333l-71 -414l41 -51h192l60 51l73 414h334l-96 -551l-291 -248h-76l-84 -477h-336l84 475h-59zM281 1348l57 333h295l-60 -333h-292zM635 1348l59 333h293l-57 -333h-295z" />
<glyph unicode="&#x2c6;" horiz-adv-x="776" d="M31 1057l411 350l285 -346l-278 -236l-91 109l-133 -113z" />
<glyph unicode="&#x2dc;" horiz-adv-x="1210" d="M31 1055l407 346l195 -238l-408 -346zM582 1057l403 344l195 -238l-404 -342z" />
<glyph unicode="&#x2000;" horiz-adv-x="983" />
<glyph unicode="&#x2001;" horiz-adv-x="1966" />
<glyph unicode="&#x2002;" horiz-adv-x="983" />
<glyph unicode="&#x2003;" horiz-adv-x="1966" />
<glyph unicode="&#x2004;" horiz-adv-x="655" />
<glyph unicode="&#x2005;" horiz-adv-x="491" />
<glyph unicode="&#x2006;" horiz-adv-x="327" />
<glyph unicode="&#x2007;" horiz-adv-x="327" />
<glyph unicode="&#x2008;" horiz-adv-x="245" />
<glyph unicode="&#x2009;" horiz-adv-x="393" />
<glyph unicode="&#x200a;" horiz-adv-x="109" />
<glyph unicode="&#x2010;" horiz-adv-x="542" d="M12 334l58 336h460l-59 -336h-459z" />
<glyph unicode="&#x2011;" horiz-adv-x="542" d="M12 334l58 336h460l-59 -336h-459z" />
<glyph unicode="&#x2012;" horiz-adv-x="542" d="M12 334l58 336h460l-59 -336h-459z" />
<glyph unicode="&#x2013;" horiz-adv-x="571" d="M12 332l58 336h491l-59 -336h-490z" />
<glyph unicode="&#x2014;" horiz-adv-x="1148" d="M12 336l58 336h1069l-60 -336h-1067z" />
<glyph unicode="&#x2018;" horiz-adv-x="376" d="M-10 768l102 578l242 -297l-49 -281h-295z" />
<glyph unicode="&#x2019;" horiz-adv-x="376" d="M43 1063l49 280h295l-102 -577z" />
<glyph unicode="&#x201c;" horiz-adv-x="759" d="M-10 768l102 578l242 -297l-49 -281h-295zM373 768l102 578l242 -297l-49 -281h-295z" />
<glyph unicode="&#x201d;" horiz-adv-x="759" d="M43 1069l49 281h295l-102 -580zM426 1069l49 281h295l-102 -580z" />
<glyph unicode="&#x2022;" horiz-adv-x="602" d="M-4 283l90 518h520l-92 -518h-518z" />
<glyph unicode="&#x2026;" horiz-adv-x="1087" d="M12 0l58 334h297l-60 -334h-295zM367 0l57 334h297l-59 -334h-295zM721 0l57 334h297l-59 -334h-295z" />
<glyph unicode="&#x202f;" horiz-adv-x="393" />
<glyph unicode="&#x205f;" horiz-adv-x="491" />
<glyph unicode="&#x20ac;" horiz-adv-x="1087" d="M-66 506l35 55h101q3 25 12 78q8 36 20 82h-120l30 55h107q35 109 86.5 197t123.5 158t169.5 108.5t212.5 38.5q106 0 183 -27.5t118 -68.5l-15 -72q-102 109 -295 109q-98 0 -183 -36t-148 -98.5t-108 -140t-73 -168.5h631l-35 -55h-614q-3 -12 -10 -41.5t-10 -40.5 q-2 -11 -5.5 -28.5t-5.5 -29.5t-4 -20h555l-35 -55h-524q-22 -215 61 -332t261 -117q186 0 342 109l-17 -72q-56 -40 -146 -67t-198 -27q-424 0 -373 506h-129z" />
<glyph unicode="&#x2122;" horiz-adv-x="1171" d="M68 1135l24 143h406l-25 -143h-133l-78 -437h-143l78 437h-129zM451 698l102 580h281l30 -37l45 37h166l88 -107l-84 -473h-143l74 414l-19 23h-49l-29 -25l-71 -412h-144l72 412l-20 25h-80l-76 -437h-143z" />
<glyph unicode="&#x25fc;" horiz-adv-x="1044" d="M0 0v1044h1044v-1044h-1044z" />
</font>
</defs>
</svg>
