<?xml version="1.0" standalone="no"?>
<!DOCTYPE svg PUBLIC "-//W3C//DTD SVG 1.1//EN" "http://www.w3.org/Graphics/SVG/1.1/DTD/svg11.dtd" >
<svg xmlns="http://www.w3.org/2000/svg" xmlns:xlink="http://www.w3.org/1999/xlink" version="1.1">
<metadata></metadata>
<defs>
<font id="tremblebold" horiz-adv-x="1024" >
<font-face units-per-em="2048" ascent="1638" descent="-410" />
<missing-glyph horiz-adv-x="512" />
<glyph horiz-adv-x="0" />
<glyph horiz-adv-x="682" />
<glyph unicode=" "  horiz-adv-x="512" />
<glyph unicode="&#x09;" horiz-adv-x="512" />
<glyph unicode="&#xa0;" horiz-adv-x="512" />
<glyph unicode="!" horiz-adv-x="339" d="M41 0v213h258v-213h-258zM41 258v1016h258v-1016h-258z" />
<glyph unicode="&#x22;" horiz-adv-x="561" d="M41 1114v232h217v-449zM303 1114v232h217v-449z" />
<glyph unicode="#" horiz-adv-x="1216" d="M41 399v260h197l8 52h-203v260h250l55 305l262 -2l-53 -303h166l53 303l264 2l-53 -305h189v-260h-236l-8 -52h244v-260h-289l-70 -399h-262l68 399h-170l-70 -399h-262l69 399h-149zM500 659h170l8 52h-168z" />
<glyph unicode="$" horiz-adv-x="1026" d="M41 0v340h258v-84h92v266h-350v754h350v70h258v-70h334v-342h-258v84h-76v-236h336v-782h-336v-74h-258v74h-350zM299 782h92v236h-92v-236zM649 256h78v266h-78v-266z" />
<glyph unicode="%" horiz-adv-x="1499" d="M41 743v531h530v-531h-530zM205 907h203v203h-203v-203zM383 0l457 1274h274l-455 -1274h-276zM928 0v530h530v-530h-530zM1092 164h202v203h-202v-203z" />
<glyph unicode="&#x26;" horiz-adv-x="1140" d="M41 254v326l68 67l-64 62v348l217 219h440l203 -203v-297h180v-258h-180v-260h195v-258h-807zM299 360l100 -102h246l2 260h-301l-47 -45v-113zM305 817l41 -41h299v189l-49 53h-225l-66 -68v-133z" />
<glyph unicode="'" horiz-adv-x="299" d="M41 1114v232h217v-449z" />
<glyph unicode="(" horiz-adv-x="501" d="M41 219v834l223 223h197v-258h-90l-72 -72v-618l70 -70h86v-258h-193z" />
<glyph unicode=")" horiz-adv-x="501" d="M41 1018v258h197l223 -223v-834l-223 -219h-193v258h86l70 70v618l-72 72h-88z" />
<glyph unicode="*" horiz-adv-x="679" d="M41 948v191h68l-50 47l136 135l49 -49v74h190v-74l43 45l135 -135l-45 -43h72v-191h-72l60 -59l-135 -133l-58 57v-70h-190v70l-60 -57l-133 133l58 59h-68z" />
<glyph unicode="+" horiz-adv-x="694" d="M41 373v258h176v188h260v-188h176v-258h-176v-170h-260v170h-176z" />
<glyph unicode="," horiz-adv-x="299" d="M41 49v232h217v-449z" />
<glyph unicode="-" horiz-adv-x="477" d="M41 373v258h395v-258h-395z" />
<glyph unicode="." horiz-adv-x="294" d="M41 2v258h213v-258h-213z" />
<glyph unicode="/" horiz-adv-x="575" d="M41 -2l235 1280h259l-238 -1280h-256z" />
<glyph unicode="0" horiz-adv-x="1067" d="M41 203v870l203 203h579l203 -203v-870l-203 -203h-579zM299 309l51 -49h367l51 49v658l-51 49h-367l-51 -49v-658z" />
<glyph unicode="1" horiz-adv-x="436" d="M41 1016v258h354v-1274h-260v1016h-94z" />
<glyph unicode="2" d="M41 0v539l684 360v80l-39 39h-342l-45 -43v-80h-258v184l197 197h553l192 -195v-340l-684 -362v-119h684v-260h-942z" />
<glyph unicode="3" horiz-adv-x="1054" d="M41 1079l197 197h573l201 -203v-360l-58 -58l60 -59v-401l-195 -195h-749v260h641l45 43v184l-39 39h-543v258h543l37 35v148l-52 49h-358l-121 -119z" />
<glyph unicode="4" horiz-adv-x="1075" d="M41 451v294l614 529h306v-774h73v-260h-73v-238h-261v238h-448zM299 559l61 -59h340v471l-401 -342v-70z" />
<glyph unicode="5" horiz-adv-x="1042" d="M41 0v258l639 2l45 45v144l-49 49h-453l-182 182v596h805l155 -156l-182 -182l-80 78h-438v-228l31 -30h452l199 -203v-358l-197 -197h-745z" />
<glyph unicode="6" horiz-adv-x="1058" d="M41 213v883l180 180h641l156 -154l-187 -182l-75 76h-426l-31 -29v-74h471l213 -213v-485l-211 -215h-516zM299 322l61 -62h304l61 62v272l-61 61l-306 -2l-59 -59v-272z" />
<glyph unicode="7" horiz-adv-x="1021" d="M41 1016v258h940v-473l-643 -477v-324h-260v451l645 479v86h-682z" />
<glyph unicode="8" horiz-adv-x="1079" d="M41 193v413l45 47l-33 35v389l199 199h575l195 -193v-395l-35 -35l51 -51v-409l-190 -193h-615zM299 299l41 -39h399l41 39v207l-18 16h-440l-23 -22v-201zM311 795l13 -13l426 2l14 15v176l-43 41h-363l-47 -45v-176z" />
<glyph unicode="9" d="M41 633v422l219 221h506l217 -221v-803l-252 -252h-487l-172 170l182 184l96 -94h275l100 100v58h-467zM299 739l63 -63h363v276l-66 66h-292l-66 -66z" />
<glyph unicode=":" horiz-adv-x="299" d="M41 0v260h217v-260h-217zM41 371v260h217v-260h-217z" />
<glyph unicode=";" horiz-adv-x="299" d="M41 49v232h217v-449zM43 371v258h215v-258h-215z" />
<glyph unicode="&#x3c;" horiz-adv-x="669" d="M41 522l401 402l185 -183l-221 -219l223 -225l-185 -182z" />
<glyph unicode="=" horiz-adv-x="696" d="M41 279v260h614v-260h-614zM41 602v258h614v-258h-614z" />
<glyph unicode="&#x3e;" horiz-adv-x="669" d="M41 297l221 225l-219 219l184 183l402 -402l-404 -407z" />
<glyph unicode="?" horiz-adv-x="972" d="M41 0v256h260v-256h-260zM41 1014v260l891 2v-551l-203 -205h-371l-57 -55v-146h-258v254l207 207h371l53 51v181z" />
<glyph unicode="@" horiz-adv-x="1189" d="M41 -74v961l391 389h512l205 -205v-883l-186 -188h-400l-182 184v566l192 194h316v74h-363l-227 -230v-862h-258zM639 291l33 -31h180l37 37v387h-207l-43 -41v-352z" />
<glyph unicode="A" horiz-adv-x="1021" d="M41 0v1276h940v-1274h-258v428h-424v-430h-258zM299 688h424v330h-424v-330z" />
<glyph unicode="B" d="M41 0v1276h737l205 -205v-289l-137 -137l137 -139v-291l-215 -215h-727zM299 260h363l63 64v135l-59 57h-367v-256zM299 774h358l68 66v125l-53 51h-373v-242z" />
<glyph unicode="C" horiz-adv-x="1021" d="M41 215v825l233 236h707v-260h-600l-80 -82l-2 -610l63 -64h619v-260h-725z" />
<glyph unicode="D" horiz-adv-x="1021" d="M41 0v1276h676l264 -262v-746l-264 -268h-676zM299 260h309l115 115v530l-113 111h-311v-756z" />
<glyph unicode="E" d="M41 0v1276h942v-260h-684v-238h598v-260h-598v-258h684v-260h-942z" />
<glyph unicode="F" d="M41 0v1276h942l-2 -258h-682v-242h641v-260h-641v-516h-258z" />
<glyph unicode="G" horiz-adv-x="1026" d="M41 0v1276h942v-260h-684v-756h426v244l-25 22h-241v260h350l174 -176l2 -610h-944z" />
<glyph unicode="H" d="M41 0v1276h258v-502h426v502h258v-1276h-258v514h-426v-514h-258z" />
<glyph unicode="I" horiz-adv-x="339" d="M41 0v1276h258v-1276h-258z" />
<glyph unicode="J" horiz-adv-x="1044" d="M41 1016v260h774l189 -189l-185 -182l-110 113h-99v-803l-215 -215h-352v260h244l63 62v696z" />
<glyph unicode="K" d="M41 0v1276h258v-510h145l279 311v199h260v-299l-305 -340l305 -336v-301h-258v201l-281 307h-145v-508h-258z" />
<glyph unicode="L" horiz-adv-x="980" d="M41 190v1086h258v-977l41 -41h600v-258h-707z" />
<glyph unicode="M" horiz-adv-x="1331" d="M41 0v1073l207 203h336l82 -78l79 80l338 -2l207 -203v-1073h-258v965l-55 53h-125l-55 -55v-963h-260v963l-58 55h-125l-55 -53v-965h-258z" />
<glyph unicode="N" d="M41 0v1276h309l375 -795v795h258v-1276h-311l-373 791v-791h-258z" />
<glyph unicode="O" d="M41 0v1276h942v-1276h-942zM299 260h426v756h-426v-756z" />
<glyph unicode="P" d="M41 0v1008l268 268h674v-858h-684v-418h-258zM299 676h426v342h-307l-119 -117v-225z" />
<glyph unicode="Q" horiz-adv-x="1021" d="M41 0v1276h940v-1276h-342v-37l39 -41h125v-260h-232l-192 195v143h-338zM299 258h424v760h-424v-760z" />
<glyph unicode="R" d="M41 -2v1092l186 186h756v-625l-92 -92l92 -90v-471h-258v360l-70 72h-354v-432h-260zM299 690l356 -2l70 68v262h-391l-35 -35v-293z" />
<glyph unicode="S" d="M41 0v342h258v-82h426v266h-682v750h940v-342h-258v82h-424v-232h682v-784h-942z" />
<glyph unicode="T" horiz-adv-x="905" d="M41 1018v258h823v-258h-286v-1018h-259v1018h-278z" />
<glyph unicode="U" d="M41 260v1016h258v-907l111 -111h204l109 111v907h260l-2 -1016l-260 -260h-420z" />
<glyph unicode="V" d="M41 545v731h258v-655l219 -328l207 330v653h258v-733l-350 -543h-223z" />
<glyph unicode="W" horiz-adv-x="1560" d="M41 559v717h258v-653l170 -314l180 316v651l260 2v-655l170 -314l181 316v651h260v-719l-322 -557h-246l-176 326l-186 -326h-248z" />
<glyph unicode="X" d="M41 0v489l246 173l-246 178v436h258v-301l217 -158l207 158v301h258v-436l-252 -178l254 -170v-492h-258v352l-209 150l-217 -150v-352h-258z" />
<glyph unicode="Y" horiz-adv-x="1019" d="M41 754v522h258v-416l86 -86h250l86 86v416h258v-522l-236 -238h-112v-518h-258v516h-97z" />
<glyph unicode="Z" horiz-adv-x="1026" d="M41 934v342h942v-371l-682 -592v-53h424l2 82h258v-342h-942v432l672 584h-416v-82h-258z" />
<glyph unicode="[" horiz-adv-x="534" d="M41 0v1276h448v-260h-190v-756h195v-260h-453z" />
<glyph unicode="\" horiz-adv-x="581" d="M41 1276h262l238 -1278l-265 2z" />
<glyph unicode="]" horiz-adv-x="534" d="M41 0v260h192v756h-188v260h449v-1276h-453z" />
<glyph unicode="^" horiz-adv-x="694" d="M41 1059l307 309l305 -307l-184 -182l-121 122l-123 -124z" />
<glyph unicode="_" horiz-adv-x="696" d="M41 0h614v-258h-614v258z" />
<glyph unicode="`" horiz-adv-x="569" d="M41 1151l182 184l305 -305l-182 -184z" />
<glyph unicode="a" horiz-adv-x="1013" d="M41 0v657h674v136h-426v-74h-248v332h932v-1051h-932zM291 258h424v141h-424v-141z" />
<glyph unicode="b" d="M41 0v1274h258v-223h684l-2 -809l-242 -242h-698zM299 256h332l92 92v443h-424v-535z" />
<glyph unicode="c" horiz-adv-x="1021" d="M41 0v811l240 240h700v-344h-258l-2 84h-332l-90 -91v-440h682v-260h-940z" />
<glyph unicode="d" horiz-adv-x="1021" d="M41 0v1051h682v225h258v-1036l-240 -240h-700zM299 258h334l90 90v443h-424v-533z" />
<glyph unicode="e" d="M41 0v1051h942v-506l-195 -195h-489v-90h614v-260h-872zM299 598h381l45 43v152h-426v-195z" />
<glyph unicode="f" horiz-adv-x="933" d="M41 -319v1157l211 213h641v-258h-528l-66 -64v-125h442v-260h-442v-663h-258z" />
<glyph unicode="g" d="M41 233v818h942l-2 -1170l-221 -223h-539v258h461l41 43v41h-447zM299 344l84 -82h342v529l-426 2v-449z" />
<glyph unicode="h" d="M41 0v1276h258v-225h475l209 -211v-840h-258v733l-59 60h-367v-793h-258z" />
<glyph unicode="i" horiz-adv-x="342" d="M41 0v979h258v-979h-258zM41 1018v258h260v-258h-260z" />
<glyph unicode="j" horiz-adv-x="534" d="M41 -53h176l19 20v1012h258v-1120l-170 -170h-283v258zM233 1018v258h261v-258h-261z" />
<glyph unicode="k" horiz-adv-x="950" d="M41 0v1276h258v-520h74l319 295h180l-2 -187l-247 -231l286 -227v-406h-258v281l-272 215h-80v-496h-258z" />
<glyph unicode="l" horiz-adv-x="339" d="M41 0v1276h258v-1276h-258z" />
<glyph unicode="m" horiz-adv-x="1331" d="M41 0v848l207 203h336l82 -78l79 78h338l207 -203v-848h-258v739l-55 54h-125l-55 -56v-737h-260v737l-58 56h-125l-55 -54v-739h-258z" />
<glyph unicode="n" horiz-adv-x="1021" d="M41 0v1051h690l250 -250v-801h-258v692l-100 101h-324v-793h-258z" />
<glyph unicode="o" d="M41 0v1051h942v-1051h-942zM299 260h426v533h-426v-533z" />
<glyph unicode="p" d="M41 -317v1368h719l223 -228v-823h-684v-317h-258zM299 260h424l2 457l-74 74l-352 -3v-528z" />
<glyph unicode="q" d="M41 0v823l225 228h717v-1368h-258v317h-684zM299 260h426v528l-352 3l-74 -74v-457z" />
<glyph unicode="r" horiz-adv-x="860" d="M41 0v856l195 195h583v-342h-260v84h-215l-45 -45v-748h-258z" />
<glyph unicode="s" d="M41 0v334h258v-86h424v141h-682v662h942v-332h-260v84h-424v-154h684v-649h-942z" />
<glyph unicode="t" horiz-adv-x="765" d="M41 246v1030h258v-225h340v-258h-340v-439l94 -94h332v-260h-440z" />
<glyph unicode="u" d="M41 262v789h258v-682l111 -109h206l109 109v682h258v-789l-260 -262h-422z" />
<glyph unicode="v" d="M41 625v426h258v-359l221 -383l205 385v357h258v-428l-344 -623h-244z" />
<glyph unicode="w" horiz-adv-x="1560" d="M41 559v492h258v-426l170 -314l180 316v424h260v-426l170 -314l181 316v424h260v-494l-322 -557h-246l-176 326l-186 -326h-248z" />
<glyph unicode="x" d="M41 0v406l262 167l-262 179v299h258v-162l215 -158l211 156v164h258v-297l-240 -181l240 -170v-403h-258v266l-211 150l-215 -152v-264h-258z" />
<glyph unicode="y" d="M41 141v910h258v-648h426v648h258v-1129l-242 -241h-553v258h447l90 90v112h-684z" />
<glyph unicode="z" d="M41 709v342h942v-383l-682 -383v-27h422l2 88h258v-346h-940v432l641 361h-385v-84h-258z" />
<glyph unicode="{" horiz-adv-x="565" d="M41 508v260h63v285l224 223h196v-258h-90l-72 -72v-618l70 -70h86v-258h-192l-222 219v289h-63z" />
<glyph unicode="|" horiz-adv-x="339" d="M41 0v1276h258v-1276h-258z" />
<glyph unicode="}" horiz-adv-x="565" d="M41 1018v258h197l223 -223v-285h63v-260h-63v-289l-223 -219h-193v258h86l70 70v618l-72 72h-88z" />
<glyph unicode="~" horiz-adv-x="835" d="M41 621l295 292l139 -139l135 135l185 -182l-320 -319l-139 139l-113 -111z" />
<glyph unicode="&#xa1;" horiz-adv-x="339" d="M41 -2v1018h258v-1018h-258zM41 1061v213h258v-213h-258z" />
<glyph unicode="&#xa2;" horiz-adv-x="1064" d="M41 0v809l242 242h159v73h258v-73h324v-346l-258 2v84h-66v-533h324v-258h-324v-74h-258v74h-401zM299 258h143v533h-53l-90 -91v-442z" />
<glyph unicode="&#xa3;" horiz-adv-x="1163" d="M41 143v207h258v-92h154v262h-154v258h154v289l209 209h460v-260h-354l-57 -55v-183h293v-258h-293v-262h411v-258h-940z" />
<glyph unicode="&#xa4;" horiz-adv-x="1253" d="M61 416v157h191v97h-191v157h191v213l233 236h707v-260h-600l-80 -82v-107h559v-157h-559v-97h559v-157h-561v-92l63 -64h619v-260h-725l-215 215v201h-191z" />
<glyph unicode="&#xa5;" horiz-adv-x="950" d="M41 754v522h258v-416l86 -86h180l86 86v414h258v-520l-235 -238h-70v-74h146v-155h-146v-54h146v-155h-146v-78h-258v78h-147v155h147v54h-147v155h147v74h-70z" />
<glyph unicode="&#xa7;" horiz-adv-x="886" d="M61 -57v278h209v-67h344v188h-553l2 635v397h762v-278h-211v69h-342v-188h553l-2 -635v-399h-762zM272 551h342v215h-342v-215z" />
<glyph unicode="&#xa8;" horiz-adv-x="569" d="M41 1018v258h215v-258h-215zM313 1018v258h215v-258h-215z" />
<glyph unicode="&#xa9;" horiz-adv-x="950" d="M41 336v940h868v-940h-868zM164 459h622v694h-622v-694zM190 492v632h572v-123h-449v-387h449v-122h-572z" />
<glyph unicode="&#xaa;" horiz-adv-x="878" d="M61 422v532h545v111h-344v-59h-201v268h756v-852h-756zM264 631h342v114h-342v-114z" />
<glyph unicode="&#xab;" horiz-adv-x="1161" d="M41 500l422 422l182 -183l-237 -239l231 -232l-182 -182zM516 500l422 422l182 -183l-237 -239l231 -232l-182 -182z" />
<glyph unicode="&#xad;" horiz-adv-x="477" d="M41 373v258h395v-258h-395z" />
<glyph unicode="&#xae;" horiz-adv-x="950" d="M41 338v938h868v-938h-868zM164 461h622v692h-622v-692zM197 489v547l90 92h463v-325l-45 -45l49 -47v-222h-123v170l-37 37h-275v-207h-122zM319 819h275l33 33v154h-289l-19 -21v-166z" />
<glyph unicode="&#xaf;" horiz-adv-x="493" d="M41 1087v259h412v-259h-412z" />
<glyph unicode="&#xb0;" horiz-adv-x="612" d="M41 815v531h530v-531h-530zM205 979h203v203h-203v-203z" />
<glyph unicode="&#xb4;" horiz-adv-x="567" d="M41 1036l301 301l184 -184l-303 -301z" />
<glyph unicode="&#xb6;" horiz-adv-x="1191" d="M41 371v649l256 256h600l254 -254v-1341h-260v690h-148v-690h-260v690h-442zM301 629h182v387h-75l-107 -105v-282zM743 629h148v293l-96 96h-52v-389z" />
<glyph unicode="&#xb8;" horiz-adv-x="536" d="M41 -356l172 356h283l-222 -469z" />
<glyph unicode="&#xba;" horiz-adv-x="886" d="M61 422v852h764v-852h-764zM270 633h344v432h-344v-432z" />
<glyph unicode="&#xbb;" horiz-adv-x="1161" d="M41 739l182 183l422 -422l-416 -414l-182 182l232 232zM516 739l182 183l422 -422l-415 -414l-183 182l232 232z" />
<glyph unicode="&#xbf;" horiz-adv-x="972" d="M41 0v551l203 205h370l58 55v145h258v-254l-207 -206h-371l-53 -52v-180l633 -2v-260zM672 1020v256h260v-256h-260z" />
<glyph unicode="&#xc0;" horiz-adv-x="1021" d="M41 0v1276h940v-1274h-258v428h-424v-430h-258zM233 1645l185 182l305 -305l-184 -183zM299 688h424v330h-424v-330z" />
<glyph unicode="&#xc1;" horiz-adv-x="1021" d="M41 0v1276h940v-1274h-258v428h-424v-430h-258zM256 1511l303 304l182 -185l-301 -301zM299 688h424v330h-424v-330z" />
<glyph unicode="&#xc2;" horiz-adv-x="1021" d="M41 0v1276h940v-1274h-258v428h-424v-430h-258zM217 1528l305 305l301 -301l-184 -182l-117 116l-123 -120zM299 688h424v330h-424v-330z" />
<glyph unicode="&#xc3;" horiz-adv-x="1021" d="M41 0v1276h940v-1274h-258v428h-424v-430h-258zM160 1546l295 293l139 -139l135 135l184 -182l-319 -320l-139 140l-113 -111zM299 688h424v330h-424v-330z" />
<glyph unicode="&#xc4;" horiz-adv-x="1021" d="M41 0v1276h940v-1274h-258v428h-424v-430h-258zM268 1348v258h215v-258h-215zM299 688h424v330h-424v-330zM541 1348v258h215v-258h-215z" />
<glyph unicode="&#xc5;" horiz-adv-x="1021" d="M41 0v1276h940v-1274h-258v428h-424v-430h-258zM260 1346v569h508v-569h-508zM299 688h424v330h-424v-330zM436 1522h156v217h-156v-217z" />
<glyph unicode="&#xc6;" horiz-adv-x="1599" d="M41 0v1044l233 232h1282v-258h-585v-246h499v-260h-499v-252h588v-260h-848v512h-412v-512h-258zM299 772h412v166l-82 78h-248l-82 -78v-166z" />
<glyph unicode="&#xc7;" horiz-adv-x="1021" d="M41 215v825l233 236h707v-260h-600l-80 -82l-2 -610l63 -64h619v-260h-293l-203 -428l-233 113l154 315h-150z" />
<glyph unicode="&#xc8;" d="M41 0v1276h942v-260h-684v-238h598v-260h-598v-258h684v-260h-942zM236 1642l182 183l305 -305l-184 -183z" />
<glyph unicode="&#xc9;" d="M41 0v1276h942v-260h-684v-238h598v-260h-598v-258h684v-260h-942zM293 1524l301 303l184 -185l-303 -301z" />
<glyph unicode="&#xca;" d="M41 0v1276h942v-260h-684v-238h598v-260h-598v-258h684v-260h-942zM221 1524l305 305l301 -301l-184 -182l-117 116l-123 -121z" />
<glyph unicode="&#xcb;" d="M41 0v1276h942v-260h-684v-238h598v-260h-598v-258h684v-260h-942zM266 1348v258h215v-258h-215zM539 1348v258h215v-258h-215z" />
<glyph unicode="&#xcc;" horiz-adv-x="569" d="M41 1645l182 182l305 -305l-182 -183zM137 0v1276h260v-1276h-260z" />
<glyph unicode="&#xcd;" horiz-adv-x="567" d="M41 1513l301 304l184 -185l-303 -301zM190 0v1276h261v-1276h-261z" />
<glyph unicode="&#xce;" horiz-adv-x="688" d="M41 1520l305 305l301 -301l-184 -183l-117 117l-123 -121zM217 0v1276h260v-1276h-260z" />
<glyph unicode="&#xcf;" horiz-adv-x="569" d="M41 1348v258h215v-258h-215zM156 0v1276h260v-1276h-260zM313 1348v258h215v-258h-215z" />
<glyph unicode="&#xd1;" d="M41 0v1276h309l375 -795v795h258v-1276h-311l-373 791v-791h-258zM160 1550l297 293l137 -139l135 135l184 -182l-319 -320l-139 140l-113 -111z" />
<glyph unicode="&#xd2;" d="M41 0v1276h942v-1276h-942zM236 1645l182 182l305 -305l-184 -183zM299 260h426v756h-426v-756z" />
<glyph unicode="&#xd3;" d="M41 0v1276h942v-1276h-942zM256 1524l303 303l182 -185l-301 -301zM299 260h426v756h-426v-756z" />
<glyph unicode="&#xd4;" d="M41 0v1276h942v-1276h-942zM186 1526l306 305l301 -301l-183 -182l-118 116l-121 -121zM299 260h426v756h-426v-756z" />
<glyph unicode="&#xd5;" d="M41 0v1276h942v-1276h-942zM160 1552l297 293l137 -139l135 135l184 -182l-319 -320l-139 140l-113 -111zM299 260h426v756h-426v-756z" />
<glyph unicode="&#xd6;" d="M41 0v1276h942v-1276h-942zM279 1348v258h215v-258h-215zM299 260h426v756h-426v-756zM551 1348v258h215v-258h-215z" />
<glyph unicode="&#xd7;" horiz-adv-x="704" d="M41 647l182 184l127 -124l131 131l183 -183l-132 -133l125 -125l-182 -182l-125 125l-121 -119l-182 182l119 119z" />
<glyph unicode="&#xd8;" d="M41 0v1276h942v-1276h-942zM299 260h18l142 756h-160v-756zM575 260h150v756h-8z" />
<glyph unicode="&#xd9;" d="M41 260v1016h258v-907l111 -111h204l109 111v907h260l-2 -1016l-260 -260h-420zM233 1642l185 183l305 -305l-184 -183z" />
<glyph unicode="&#xda;" d="M41 260v1016h258v-907l111 -111h204l109 111v907h260l-2 -1016l-260 -260h-420zM256 1524l303 303l182 -185l-301 -301z" />
<glyph unicode="&#xdb;" d="M41 260v1016h258v-907l111 -111h204l109 111v907h260l-2 -1016l-260 -260h-420zM193 1518l305 305l301 -301l-185 -183l-116 117l-123 -121z" />
<glyph unicode="&#xdc;" d="M41 260v1016h258v-907l111 -111h204l109 111v907h260l-2 -1016l-260 -260h-420zM268 1348v258h215v-258h-215zM541 1348v258h215v-258h-215z" />
<glyph unicode="&#xdd;" horiz-adv-x="1019" d="M41 754v522h258v-416l86 -86h250l86 86v416h258v-522l-236 -238h-112v-518h-258v516h-97zM297 1520l301 303l184 -185l-303 -301z" />
<glyph unicode="&#xdf;" horiz-adv-x="946" d="M41 -170v1446h674l190 -191v-327l-61 -62l55 -55v-418l-223 -223h-307v258h198l72 74v203l-31 32h-239v258h237l39 39v113l-39 39h-307v-1186h-258z" />
<glyph unicode="&#xe0;" horiz-adv-x="1013" d="M41 0v657h674v136h-426v-74h-248v332h932v-1051h-932zM252 1427l184 183l305 -305l-184 -183zM291 258h424v141h-424v-141z" />
<glyph unicode="&#xe1;" horiz-adv-x="1013" d="M41 0v657h674v136h-426v-74h-248v332h932v-1051h-932zM256 1298l303 304l182 -185l-301 -301zM291 258h424v141h-424v-141z" />
<glyph unicode="&#xe2;" horiz-adv-x="1013" d="M41 0v657h674v136h-426v-74h-248v332h932v-1051h-932zM209 1292l305 305l299 -301l-182 -182l-117 117l-123 -121zM291 258h424v141h-424v-141z" />
<glyph unicode="&#xe3;" horiz-adv-x="1013" d="M41 0v657h674v136h-426v-74h-248v332h932v-1051h-932zM160 1335l297 293l137 -139l135 135l184 -182l-319 -320l-139 140l-113 -111zM291 258h424v141h-424v-141z" />
<glyph unicode="&#xe4;" horiz-adv-x="1013" d="M41 0v657h674v136h-426v-74h-248v332h932v-1051h-932zM256 1124v258h215v-258h-215zM291 258h424v141h-424v-141zM528 1124v258h215v-258h-215z" />
<glyph unicode="&#xe5;" horiz-adv-x="1013" d="M41 0v657h674v136h-426v-74h-248v332h932v-1051h-932zM240 1124v570h508v-570h-508zM291 258h424v141h-424v-141zM416 1300h155v218h-155v-218z" />
<glyph unicode="&#xe6;" horiz-adv-x="1585" d="M41 0v684h596v109h-338v-64h-258v322h1503v-559l-194 -195h-453v-39h557v-258h-1413zM301 260l336 2v162l-336 2v-166zM897 557h346l41 41v195h-387v-236z" />
<glyph unicode="&#xe7;" horiz-adv-x="1021" d="M41 0v811l240 240h700v-344h-258l-2 84h-332l-90 -91v-440h682v-260h-303l-201 -428l-233 113l151 315h-354z" />
<glyph unicode="&#xe8;" d="M41 0v1051h942v-506l-195 -195h-489v-90h614v-260h-872zM254 1421l184 183l305 -306l-184 -182zM299 598h381l45 43v152h-426v-195z" />
<glyph unicode="&#xe9;" d="M41 0v1051h942v-506l-195 -195h-489v-90h614v-260h-872zM256 1298l303 304l182 -185l-301 -301zM299 598h381l45 43v152h-426v-195z" />
<glyph unicode="&#xea;" d="M41 0v1051h942v-506l-195 -195h-489v-90h614v-260h-872zM209 1296l305 306l299 -302l-182 -182l-117 117l-123 -121zM299 598h381l45 43v152h-426v-195z" />
<glyph unicode="&#xeb;" d="M41 0v1051h942v-506l-195 -195h-489v-90h614v-260h-872zM268 1124v258h215v-258h-215zM299 598h381l45 43v152h-426v-195zM541 1124v258h215v-258h-215z" />
<glyph unicode="&#xec;" horiz-adv-x="569" d="M41 1417l182 182l305 -305l-182 -182zM147 0v1051h261v-1051h-261z" />
<glyph unicode="&#xed;" horiz-adv-x="567" d="M41 1296l301 303l184 -184l-303 -301zM170 0v1051h258v-1051h-258z" />
<glyph unicode="&#xee;" horiz-adv-x="688" d="M41 1303l305 305l301 -299l-184 -185l-117 119l-123 -123zM217 0v1051h260v-1051h-260z" />
<glyph unicode="&#xef;" horiz-adv-x="569" d="M41 1124v258h215v-258h-215zM160 0v1051h260v-1051h-260zM313 1124v258h215v-258h-215z" />
<glyph unicode="&#xf1;" horiz-adv-x="1021" d="M41 0v1051h690l250 -250v-801h-258v692l-100 101h-324v-793h-258zM121 1329l297 293l139 -139l135 135l182 -182l-317 -320l-141 139l-113 -110z" />
<glyph unicode="&#xf2;" d="M41 0v1051h942v-1051h-942zM299 260h426v533h-426v-533zM319 1427l185 183l305 -305l-184 -183z" />
<glyph unicode="&#xf3;" d="M41 0v1051h942v-1051h-942zM299 260h426v533h-426v-533zM303 1298l301 304l184 -185l-303 -301z" />
<glyph unicode="&#xf4;" d="M41 0v1051h942v-1051h-942zM209 1300l305 306l299 -301l-182 -183l-117 117l-123 -121zM299 260h426v533h-426v-533z" />
<glyph unicode="&#xf5;" d="M41 0v1051h942v-1051h-942zM160 1331l297 293l137 -139l135 135l184 -182l-319 -320l-139 139l-113 -110zM299 260h426v533h-426v-533z" />
<glyph unicode="&#xf6;" d="M41 0v1051h942v-1051h-942zM276 1124v258h216v-258h-216zM299 260h426v533h-426v-533zM549 1124v258h215v-258h-215z" />
<glyph unicode="&#xf7;" horiz-adv-x="694" d="M41 373v258h612v-258h-612zM250 96v215h192v-215h-192zM250 696v215h192v-215h-192z" />
<glyph unicode="&#xf8;" d="M41 0v1051h942v-1051h-942zM299 293l186 500h-186v-500zM532 260h193v469z" />
<glyph unicode="&#xf9;" d="M41 262v789h258v-682l111 -109h206l109 109v682h258v-789l-260 -262h-422zM256 1417l184 182l305 -305l-184 -182z" />
<glyph unicode="&#xfa;" d="M41 262v789h258v-682l111 -109h206l109 109v682h258v-789l-260 -262h-422zM291 1284l301 303l184 -184l-303 -301z" />
<glyph unicode="&#xfb;" d="M41 262v789h258v-682l111 -109h206l109 109v682h258v-789l-260 -262h-422zM209 1296l305 306l299 -302l-182 -182l-117 117l-123 -121z" />
<glyph unicode="&#xfc;" d="M41 262v789h258v-682l111 -109h206l109 109v682h258v-789l-260 -262h-422zM260 1124v258h215v-258h-215zM532 1124v258h216v-258h-216z" />
<glyph unicode="&#xfd;" d="M41 141v910h258v-648h426v648h258v-1129l-242 -241h-553v258h447l90 90v112h-684zM287 1294l303 303l182 -184l-301 -301z" />
<glyph unicode="&#xff;" d="M41 141v910h258v-648h426v648h258v-1129l-242 -241h-553v258h447l90 90v112h-684zM268 1124v258h215v-258h-215zM541 1124v258h215v-258h-215z" />
<glyph unicode="&#x152;" horiz-adv-x="1531" d="M41 0v1276h1450v-260h-586v-234h500v-258h-500v-266h586v-258h-1450zM299 260h346v756h-346v-756z" />
<glyph unicode="&#x153;" horiz-adv-x="1550" d="M41 0v1051h1468v-508l-192 -193h-443v-90h545v-260h-1378zM299 260h317v533h-317v-533zM874 608h334l43 43v142h-377v-185z" />
<glyph unicode="&#x178;" horiz-adv-x="1019" d="M41 754v522h258v-416l86 -86h250l86 86v416h258v-522l-236 -238h-112v-518h-258v516h-97zM268 1348v258h215v-258h-215zM541 1348v258h215v-258h-215z" />
<glyph unicode="&#x2c6;" horiz-adv-x="688" d="M41 1053l305 305l301 -301l-184 -183l-117 117l-123 -123z" />
<glyph unicode="&#x2dc;" horiz-adv-x="876" d="M61 1063l295 293l140 -139l135 135l184 -183l-319 -319l-140 139l-112 -110z" />
<glyph unicode="&#x2000;" horiz-adv-x="957" />
<glyph unicode="&#x2001;" horiz-adv-x="1915" />
<glyph unicode="&#x2002;" horiz-adv-x="957" />
<glyph unicode="&#x2003;" horiz-adv-x="1915" />
<glyph unicode="&#x2004;" horiz-adv-x="638" />
<glyph unicode="&#x2005;" horiz-adv-x="478" />
<glyph unicode="&#x2006;" horiz-adv-x="319" />
<glyph unicode="&#x2007;" horiz-adv-x="319" />
<glyph unicode="&#x2008;" horiz-adv-x="239" />
<glyph unicode="&#x2009;" horiz-adv-x="383" />
<glyph unicode="&#x200a;" horiz-adv-x="106" />
<glyph unicode="&#x2010;" horiz-adv-x="477" d="M41 373v258h395v-258h-395z" />
<glyph unicode="&#x2011;" horiz-adv-x="477" d="M41 373v258h395v-258h-395z" />
<glyph unicode="&#x2012;" horiz-adv-x="477" d="M41 373v258h395v-258h-395z" />
<glyph unicode="&#x2013;" horiz-adv-x="509" d="M41 371v258h428v-258h-428z" />
<glyph unicode="&#x2014;" horiz-adv-x="1134" d="M41 375v258h1053v-258h-1053z" />
<glyph unicode="&#x2018;" horiz-adv-x="299" d="M41 895v448l217 -217v-231h-217z" />
<glyph unicode="&#x2019;" horiz-adv-x="299" d="M41 1114v232h217v-449z" />
<glyph unicode="&#x201a;" horiz-adv-x="339" d="M61 6v232h218v-449z" />
<glyph unicode="&#x201c;" horiz-adv-x="561" d="M41 889v448l217 -217v-231h-217zM303 889v448l217 -217v-231h-217z" />
<glyph unicode="&#x201d;" horiz-adv-x="561" d="M41 1114v232h217v-449zM303 1114v232h217v-449z" />
<glyph unicode="&#x201e;" horiz-adv-x="602" d="M61 0v231h218v-448zM324 0v231h217v-448z" />
<glyph unicode="&#x2022;" horiz-adv-x="540" d="M41 311v461h459v-461h-459z" />
<glyph unicode="&#x2026;" horiz-adv-x="890" d="M41 0v258h217v-258h-217zM334 0v258h219v-258h-219zM631 0v258h219v-258h-219z" />
<glyph unicode="&#x202f;" horiz-adv-x="383" />
<glyph unicode="&#x2039;" horiz-adv-x="727" d="M61 500l422 422l183 -183l-238 -239l231 -232l-182 -182z" />
<glyph unicode="&#x203a;" horiz-adv-x="727" d="M61 739l183 183l422 -422l-416 -414l-182 182l231 232z" />
<glyph unicode="&#x205f;" horiz-adv-x="478" />
<glyph unicode="&#x2122;" horiz-adv-x="1150" d="M41 1153v123h385v-123h-133v-436h-123v436h-129zM502 717v559h266l43 -41l41 41h158l100 -100v-459h-123v407l-29 29h-57l-29 -31v-405h-122v405l-31 31h-94v-436h-123z" />
<glyph unicode="&#x25fc;" horiz-adv-x="1054" d="M0 0v1055h1055v-1055h-1055z" />
<glyph unicode="&#xfb01;" horiz-adv-x="1314" d="M61 -319v1157l211 213h641v-258h-528l-66 -64v-125h443v-260h-443v-663h-258zM993 0v979h258v-979h-258zM993 1018v258h260v-258h-260z" />
<glyph unicode="&#xfb02;" horiz-adv-x="1308" d="M61 -319v1157l211 213h641v-258h-528l-66 -64v-125h443v-260h-443v-663h-258zM989 0v1276h258v-1276h-258z" />
</font>
</defs>
</svg>
